<svg width="30" height="22" viewBox="0 0 30 22" fill="none" xmlns="http://www.w3.org/2000/svg">
<path d="M26.9185 18.1631C27.7005 19.3824 28.287 20.2063 28.678 20.6394C29.069 21.0678 29.5112 21.4068 30 21.6563V21.9953H25.1078V21.6563C25.6012 21.3409 25.8433 21.0349 25.8433 20.743C25.8433 20.4276 25.685 20.0321 25.3732 19.5566L22.962 15.762H6.8751L4.9294 18.8457C4.37083 19.7496 4.09154 20.4181 4.09154 20.8466C4.09154 21.162 4.28239 21.4351 4.65942 21.661V22H0V21.661C0.512025 21.4351 0.940259 21.129 1.2754 20.7477C1.61055 20.3617 2.20171 19.5048 3.05353 18.1725L13.7455 1.52536C13.322 1.02632 12.8286 0.630858 12.27 0.338969V0H15.2211L26.9185 18.1725V18.1631ZM7.94569 14.0248H21.8542L15.3514 3.82281L14.8813 3.07896L7.94104 14.0295L7.94569 14.0248Z" fill="#F7F7EB"/>
</svg>
