<svg width="33" height="33" viewBox="0 0 33 33" fill="none" xmlns="http://www.w3.org/2000/svg">
<path d="M29.6104 29.1689V29.1592C30.4706 30.3798 31.1158 31.2051 31.5459 31.6387C31.9759 32.0674 32.4625 32.4065 33 32.6562V32.9951H27.6182V32.6562C28.1607 32.3406 28.4276 32.0343 28.4277 31.7422C28.4277 31.4264 28.2531 31.0306 27.9102 30.5547L25.2578 26.7559H7.5625L5.42188 29.8428C4.8076 30.7475 4.50098 31.4169 4.50098 31.8457C4.50102 32.1614 4.71044 32.435 5.125 32.6611V33H0V32.6611C0.563209 32.4349 1.03467 32.1288 1.40332 31.7471C1.77194 31.3606 2.42156 30.5025 3.3584 29.1689L15.1201 12.5039C14.6542 12.0043 14.1115 11.6076 13.4971 11.3154V10.9766H16.7432L29.6104 29.1689ZM8.73535 25.0215L8.74023 25.0166H24.04L16.8867 14.8037L16.3691 14.0586L8.73535 25.0215ZM26.3428 1.02051H6.38672V0H26.3428V1.02051Z" fill="#F7F7EB"/>
</svg>
