<svg width="127" height="18" viewBox="0 0 127 18" fill="none" xmlns="http://www.w3.org/2000/svg">
<g opacity="1">
<path d="M42.6523 12.3162C41.5681 12.3162 40.7739 11.7111 40.7109 10.6018H38.9839C39.1351 12.7322 40.6857 13.7155 42.6523 13.7155C44.3163 13.7155 45.9424 12.8961 45.9424 11.0556C45.9424 9.15708 44.4697 8.73125 42.959 8.29442L42.917 8.28227C41.7572 7.94191 41.0261 7.60154 41.0261 6.85778C41.0261 6.02578 41.6942 5.68541 42.5388 5.68541C43.5095 5.68541 44.0137 6.13923 44.1776 7.12251H45.8668C45.6777 5.13074 44.3793 4.28613 42.5766 4.28613C40.9252 4.28613 39.3368 5.10553 39.3621 6.83257C39.3747 8.62264 40.8496 9.12688 42.3371 9.5807L42.4134 9.60331C43.5193 9.93098 44.2784 10.1559 44.2784 11.0556C44.2784 11.9002 43.6355 12.3162 42.6523 12.3162Z" fill="#F7F7EB"/>
<path d="M91.4633 10.6018C91.5263 11.7111 92.3205 12.3162 93.4046 12.3162C94.3879 12.3162 95.0308 11.9002 95.0308 11.0556C95.0308 10.1559 94.2717 9.93098 93.1657 9.6033L93.0895 9.5807C91.6019 9.12688 90.127 8.62264 90.1144 6.83257C90.0892 5.10553 91.6776 4.28613 93.329 4.28613C95.1317 4.28613 96.4301 5.13074 96.6192 7.12251H94.9299C94.7661 6.13923 94.2618 5.68541 93.2912 5.68541C92.4465 5.68541 91.7784 6.02578 91.7784 6.85778C91.7784 7.60154 92.5096 7.94191 93.6693 8.28227L93.7114 8.29442C95.2221 8.73125 96.6948 9.15708 96.6948 11.0556C96.6948 12.8961 95.0686 13.7155 93.4046 13.7155C91.4381 13.7155 89.8875 12.7322 89.7362 10.6018H91.4633Z" fill="#F7F7EB"/>
<path d="M96.7285 5.93753V4.50043H103.674V5.93753H101.052V13.5012H99.3632V5.93753H96.7285Z" fill="#F7F7EB"/>
<path fill-rule="evenodd" clip-rule="evenodd" d="M81.4125 13.5012H83.1647L84.0094 11.1439H87.4634L88.2828 13.5012H90.0603L86.8079 4.50043H84.6775L81.4125 13.5012ZM86.997 9.795H84.4632L85.7112 6.05098H85.7364L86.997 9.795Z" fill="#F7F7EB"/>
<path d="M75.1591 4.50043H76.8484V12.0641H81.021V13.5012H75.1591V4.50043Z" fill="#F7F7EB"/>
<path d="M74.2256 5.93753V4.50043H68.3763V13.5012H74.2634V12.0641H70.0656V9.65633H73.9608V8.25705H70.0656V5.93753H74.2256Z" fill="#F7F7EB"/>
<path d="M65.7915 4.50043H67.4807V13.5012H65.7915V9.70675H61.997V13.5012H60.3078V4.50043H61.997V8.26966H65.7915V4.50043Z" fill="#F7F7EB"/>
<path d="M55.1179 5.93756V13.5012H56.8072V5.93756H59.4292V4.50046H45.9762V5.93756H48.6109V13.5012H50.3001V5.93756H55.1179Z" fill="#F7F7EB"/>
<path fill-rule="evenodd" clip-rule="evenodd" d="M31.8228 13.4886V4.50046H35.2895C37.3569 4.50046 38.5293 5.55937 38.5293 7.0595C38.5293 8.39575 37.7099 9.18994 36.7518 9.44206C37.5838 9.68157 37.8738 10.3749 38.1763 11.3582L38.1966 11.4242C38.4394 12.2135 38.6386 12.8614 38.9453 13.4256V13.5012H37.2182C37.0128 13.1262 36.8454 12.6182 36.6711 12.0895C36.5994 11.8719 36.5265 11.6507 36.4493 11.4338C36.1467 10.6018 35.7433 10.0345 34.634 10.0345H33.512V13.4886H31.8228ZM33.512 8.67308H35.2013C36.2602 8.67308 36.8653 8.10581 36.8653 7.22338C36.8653 6.45441 36.3358 5.87453 35.1634 5.87453H33.512V8.67308Z" fill="#F7F7EB"/>
<path d="M30.932 4.50043H29.2428V13.5012H30.932V4.50043Z" fill="#F7F7EB"/>
<path d="M22.6265 13.5012V4.50043H28.3622V5.93753H24.3157V8.25705H28.0597V9.65633H24.3157V13.5012H22.6265Z" fill="#F7F7EB"/>
<path d="M21.7226 5.93753V4.50043H15.8734V13.5012H21.7604V12.0641H17.5626V9.65633H21.4579V8.25705H17.5626V5.93753H21.7226Z" fill="#F7F7EB"/>
<path d="M13.291 4.50043H14.9802V13.5012H13.291V9.70675H9.49652V13.5012H7.8073V4.50043H9.49652V8.26966H13.291V4.50043Z" fill="#F7F7EB"/>
<path d="M0 4.50043V5.93753H2.63468V13.5012H4.3239V5.93753H6.94597V4.50043H0Z" fill="#F7F7EB"/>
<path d="M122.955 12.1266C124.43 11.3531 125.167 10.3747 125.167 9.43317C125.167 8.63207 124.639 7.80664 123.556 7.09301C122.51 6.40264 121.019 5.87313 119.273 5.63363L119.273 6.61544L118.058 6.61544L118.058 3.59942L119.273 3.59942L119.273 4.60665L119.274 4.59817C121.186 4.84323 122.882 5.42087 124.115 6.23419C125.339 7.04105 126.188 8.14058 126.188 9.43317C126.188 10.9509 125.025 12.1989 123.426 13.0371C121.804 13.8883 119.597 14.3994 117.187 14.3994C114.778 14.3994 112.571 13.8883 110.948 13.0371C109.35 12.1989 108.187 10.9509 108.187 9.43317C108.187 8.14058 109.036 7.04105 110.259 6.23419C111.474 5.43357 113.136 4.86133 115.011 4.6099L115.011 3.59942L116.227 3.59942L116.227 6.61544L115.011 6.61544L115.011 5.64634C113.304 5.89153 111.847 6.4146 110.818 7.09301C109.736 7.80664 109.207 8.63207 109.207 9.43317C109.207 10.3747 109.945 11.3531 111.42 12.1266C112.87 12.887 114.908 13.3727 117.187 13.3727C119.467 13.3727 121.505 12.887 122.955 12.1266Z" fill="#F7F7EB"/>
</g>
</svg>
