<svg preserveAspectRatio="none" width="1114" height="168" viewBox="0 0 1114 168" fill="none" xmlns="http://www.w3.org/2000/svg">
<g opacity="0.8" filter="url(#filter0_di_3166_3041)">
<path d="M85.5593 167.601C68.2326 167.601 53.1293 164.151 40.2493 157.251C27.3693 150.197 17.4026 140.614 10.3493 128.501C3.4493 116.387 -0.00070294 102.587 -0.00070294 87.1008C-0.00070294 75.4474 2.0693 64.4841 6.2093 54.2108C10.5026 43.9374 16.5593 34.8908 24.3793 27.0708C32.3526 19.2508 41.8593 13.1174 52.8993 8.67077C63.9393 4.2241 76.206 2.00077 89.6993 2.00077C99.5126 2.00077 108.713 2.99744 117.299 4.99078C126.039 6.83077 135.239 10.1274 144.899 14.8808V45.7008H137.999C135.086 33.8941 128.799 25.3074 119.139 19.9408C109.633 14.4208 98.5926 11.6608 86.0193 11.6608C72.6793 11.6608 61.3326 14.7274 51.9793 20.8608C42.626 26.9941 35.496 35.2741 30.5893 45.7008C25.6826 56.1274 23.2293 67.9341 23.2293 81.1208C23.2293 90.4741 24.6093 99.7508 27.3693 108.951C30.2826 117.997 34.4993 126.277 40.0193 133.791C45.5393 141.151 52.3626 147.054 60.4893 151.501C68.616 155.794 78.046 157.941 88.7793 157.941C96.446 157.941 103.193 157.097 109.019 155.411C114.846 153.724 119.906 150.121 124.199 144.601C128.646 138.927 132.479 130.417 135.699 119.071H142.599V155.641C131.713 159.934 121.516 163.001 112.009 164.841C102.503 166.681 93.686 167.601 85.5593 167.601ZM236.479 167.601C219.612 167.601 204.815 164.151 192.089 157.251C179.516 150.351 169.702 140.691 162.649 128.271C155.749 115.851 152.299 101.361 152.299 84.8008C152.299 68.3941 155.902 53.9808 163.109 41.5608C170.469 29.1408 180.665 19.4808 193.699 12.5808C206.886 5.52744 222.066 2.00077 239.239 2.00077C256.105 2.00077 270.749 5.45077 283.169 12.3508C295.742 19.2508 305.479 28.9108 312.379 41.3308C319.432 53.7508 322.959 68.3174 322.959 85.0308C322.959 101.284 319.279 115.621 311.919 128.041C304.712 140.461 294.592 150.197 281.559 157.251C268.679 164.151 253.652 167.601 236.479 167.601ZM242.919 157.941C254.419 157.941 264.385 155.411 272.819 150.351C281.405 145.137 287.999 137.701 292.599 128.041C297.352 118.227 299.729 106.574 299.729 93.0808C299.729 76.8274 296.816 62.6441 290.989 50.5308C285.162 38.2641 277.189 28.7574 267.069 22.0108C256.949 15.1108 245.372 11.6608 232.339 11.6608C220.839 11.6608 210.796 14.2674 202.209 19.4808C193.775 24.5408 187.182 31.9008 182.429 41.5608C177.829 51.2208 175.529 62.8741 175.529 76.5208C175.529 92.7741 178.442 107.034 184.269 119.301C190.095 131.414 198.069 140.921 208.189 147.821C218.309 154.567 229.886 157.941 242.919 157.941ZM473.515 167.141L358.975 29.3708C359.129 37.4974 359.205 45.4708 359.205 53.2908C359.359 60.9574 359.512 69.0074 359.665 77.4408C359.819 85.8741 359.895 95.2274 359.895 105.501C360.049 115.621 360.125 127.274 360.125 140.461C360.125 144.907 360.585 148.357 361.505 150.811C362.579 153.264 364.419 155.027 367.025 156.101C369.785 157.174 373.542 157.864 378.295 158.171L383.125 158.401V165.301H328.385V158.401L333.215 157.941C337.509 157.481 340.805 156.714 343.105 155.641C345.405 154.414 346.939 152.651 347.705 150.351C348.625 147.897 349.085 144.601 349.085 140.461L349.775 29.1408C349.775 22.8541 348.549 18.5608 346.095 16.2608C343.795 13.8074 339.119 12.2741 332.065 11.6608L327.235 11.2008V4.30077H365.645L470.525 130.111C470.372 119.684 470.219 110.484 470.065 102.511C469.912 94.5374 469.759 87.0241 469.605 79.9708C469.605 72.7641 469.605 65.3274 469.605 57.6608C469.605 49.9941 469.605 41.2541 469.605 31.4408C469.605 26.2274 469.069 22.2408 467.995 19.4808C467.075 16.7208 465.312 14.7274 462.705 13.5008C460.099 12.2741 456.342 11.5841 451.435 11.4308L446.605 11.2008V4.30077H501.345V11.2008L496.515 11.6608C492.222 12.1208 488.925 12.9641 486.625 14.1908C484.325 15.2641 482.715 17.1808 481.795 19.9408C481.029 22.5474 480.645 26.3808 480.645 31.4408L479.955 167.141H473.515ZM652.313 167.141L537.773 29.3708C537.927 37.4974 538.003 45.4708 538.003 53.2908C538.157 60.9574 538.31 69.0074 538.463 77.4408C538.617 85.8741 538.693 95.2274 538.693 105.501C538.847 115.621 538.923 127.274 538.923 140.461C538.923 144.907 539.383 148.357 540.303 150.811C541.377 153.264 543.217 155.027 545.823 156.101C548.583 157.174 552.34 157.864 557.093 158.171L561.923 158.401V165.301H507.183V158.401L512.013 157.941C516.307 157.481 519.603 156.714 521.903 155.641C524.203 154.414 525.737 152.651 526.503 150.351C527.423 147.897 527.883 144.601 527.883 140.461L528.573 29.1408C528.573 22.8541 527.347 18.5608 524.893 16.2608C522.593 13.8074 517.917 12.2741 510.863 11.6608L506.033 11.2008V4.30077H544.443L649.323 130.111C649.17 119.684 649.017 110.484 648.863 102.511C648.71 94.5374 648.557 87.0241 648.403 79.9708C648.403 72.7641 648.403 65.3274 648.403 57.6608C648.403 49.9941 648.403 41.2541 648.403 31.4408C648.403 26.2274 647.867 22.2408 646.793 19.4808C645.873 16.7208 644.11 14.7274 641.503 13.5008C638.897 12.2741 635.14 11.5841 630.233 11.4308L625.403 11.2008V4.30077H680.143V11.2008L675.313 11.6608C671.02 12.1208 667.723 12.9641 665.423 14.1908C663.123 15.2641 661.513 17.1808 660.593 19.9408C659.827 22.5474 659.443 26.3808 659.443 31.4408L658.753 167.141H652.313ZM799.372 166.681C793.698 166.221 787.872 165.837 781.892 165.531C776.065 165.377 770.851 165.301 766.251 165.301H684.371V158.401L693.801 157.481C698.861 157.021 702.388 155.641 704.381 153.341C706.375 151.041 707.371 147.207 707.371 141.841V27.7608C707.371 22.3941 706.375 18.5608 704.381 16.2608C702.388 13.9608 698.861 12.5808 693.801 12.1208L684.371 11.2008V4.30077H766.711C774.072 4.30077 780.205 4.2241 785.112 4.07077C790.172 3.76411 794.848 3.38078 799.142 2.92077L802.592 40.1808H795.691C793.545 30.0608 790.248 23.0841 785.802 19.2508C781.355 15.4174 774.378 13.5008 764.872 13.5008H728.991V78.5908H777.062C782.428 78.5908 786.185 77.5941 788.332 75.6008C790.478 73.4541 791.782 69.5441 792.241 63.8708L792.702 57.8908H799.602V108.031H792.702L792.471 100.211C792.318 95.7641 791.015 92.6208 788.561 90.7808C786.262 88.7874 782.428 87.7908 777.062 87.7908H728.991V141.841C728.991 145.827 729.681 148.894 731.061 151.041C732.595 153.187 735.431 154.721 739.571 155.641C743.712 156.407 749.845 156.791 757.972 156.791C766.558 156.791 773.305 155.794 778.212 153.801C783.272 151.654 787.258 148.051 790.171 142.991C793.238 137.777 795.922 130.571 798.222 121.371H805.352L799.372 166.681ZM901.161 167.601C883.834 167.601 868.731 164.151 855.851 157.251C842.971 150.197 833.004 140.614 825.951 128.501C819.051 116.387 815.601 102.587 815.601 87.1008C815.601 75.4474 817.671 64.4841 821.811 54.2108C826.104 43.9374 832.161 34.8908 839.981 27.0708C847.954 19.2508 857.461 13.1174 868.501 8.67077C879.541 4.2241 891.808 2.00077 905.301 2.00077C915.114 2.00077 924.314 2.99744 932.901 4.99078C941.641 6.83077 950.841 10.1274 960.501 14.8808V45.7008H953.601C950.688 33.8941 944.401 25.3074 934.741 19.9408C925.234 14.4208 914.194 11.6608 901.621 11.6608C888.281 11.6608 876.934 14.7274 867.581 20.8608C858.228 26.9941 851.098 35.2741 846.191 45.7008C841.284 56.1274 838.831 67.9341 838.831 81.1208C838.831 90.4741 840.211 99.7508 842.971 108.951C845.884 117.997 850.101 126.277 855.621 133.791C861.141 141.151 867.964 147.054 876.091 151.501C884.218 155.794 893.648 157.941 904.381 157.941C912.048 157.941 918.794 157.097 924.621 155.411C930.448 153.724 935.508 150.121 939.801 144.601C944.248 138.927 948.081 130.417 951.301 119.071H958.201V155.641C947.314 159.934 937.118 163.001 927.611 164.841C918.104 166.681 909.288 167.601 901.161 167.601ZM1026.28 141.841V13.2708L1001.9 14.1908C994.537 14.4974 988.787 15.4941 984.647 17.1808C980.661 18.8674 977.594 21.9341 975.447 26.3808C973.454 30.6741 971.767 36.9608 970.387 45.2408H963.257L965.327 2.92077C969.774 3.38078 974.911 3.76411 980.737 4.07077C986.717 4.2241 992.621 4.30077 998.447 4.30077H1075.73C1080.63 4.30077 1086.08 4.2241 1092.06 4.07077C1098.19 3.76411 1103.79 3.38078 1108.85 2.92077L1110.92 45.2408H1103.79C1102.41 36.9608 1100.64 30.6741 1098.5 26.3808C1096.5 21.9341 1093.44 18.8674 1089.3 17.1808C1085.31 15.4941 1079.64 14.4974 1072.28 14.1908L1047.9 13.2708V141.841C1047.9 145.367 1048.36 148.281 1049.28 150.581C1050.2 152.727 1051.88 154.337 1054.34 155.411C1056.94 156.484 1060.47 157.251 1064.92 157.711L1072.05 158.401V165.301H1002.13V158.401L1009.26 157.711C1013.86 157.251 1017.38 156.484 1019.84 155.411C1022.29 154.337 1023.98 152.727 1024.9 150.581C1025.82 148.281 1026.28 145.367 1026.28 141.841Z" fill="white" fill-opacity="0.01" shape-rendering="crispEdges"/>
</g>
<defs>
<filter id="filter0_di_3166_3041" x="0" y="0" width="1113.92" height="167.602" filterUnits="userSpaceOnUse" color-interpolation-filters="sRGB">
<feFlood flood-opacity="0" result="BackgroundImageFix"/>
<feColorMatrix in="SourceAlpha" type="matrix" values="0 0 0 0 0 0 0 0 0 0 0 0 0 0 0 0 0 0 127 0" result="hardAlpha"/>
<feOffset dx="2" dy="-1"/>
<feGaussianBlur stdDeviation="0.5"/>
<feComposite in2="hardAlpha" operator="out"/>
<feColorMatrix type="matrix" values="0 0 0 0 1 0 0 0 0 1 0 0 0 0 1 0 0 0 0.12 0"/>
<feBlend mode="normal" in2="BackgroundImageFix" result="effect1_dropShadow_3166_3041"/>
<feBlend mode="normal" in="SourceGraphic" in2="effect1_dropShadow_3166_3041" result="shape"/>
<feColorMatrix in="SourceAlpha" type="matrix" values="0 0 0 0 0 0 0 0 0 0 0 0 0 0 0 0 0 0 127 0" result="hardAlpha"/>
<feOffset dx="2" dy="-1"/>
<feGaussianBlur stdDeviation="1"/>
<feComposite in2="hardAlpha" operator="arithmetic" k2="-1" k3="1"/>
<feColorMatrix type="matrix" values="0 0 0 0 0 0 0 0 0 0 0 0 0 0 0 0 0 0 1 0"/>
<feBlend mode="normal" in2="shape" result="effect2_innerShadow_3166_3041"/>
</filter>
</defs>
</svg>
