<svg width="940" height="168" viewBox="0 0 940 168" fill="none" xmlns="http://www.w3.org/2000/svg">
<g opacity="0.8" filter="url(#filter0_di_694_8605)">
<path d="M-0.000390351 165.3V158.4L9.42961 157.48C14.6429 156.867 18.1696 155.41 20.0096 153.11C22.0029 150.81 22.9996 147.053 22.9996 141.84V27.76C22.9996 22.3933 22.0029 18.6367 20.0096 16.49C18.1696 14.19 14.6429 12.7333 9.42961 12.12L-0.000390351 11.2V4.29998H80.4996C87.8596 4.29998 93.9929 4.22331 98.8996 4.06998C103.96 3.76332 108.636 3.37998 112.93 2.91998L116.15 40.18H109.25C107.103 30.06 103.806 23.0833 99.3596 19.25C94.9129 15.4166 87.9363 13.5 78.4296 13.5H44.6196V81.58H90.6196C95.9863 81.58 99.7429 80.5066 101.89 78.36C104.19 76.2133 105.493 72.38 105.8 66.86L106.26 59.73H113.16V112.17H106.26L106.03 102.97C105.876 98.6766 104.573 95.61 102.12 93.77C99.8196 91.7767 95.9863 90.78 90.6196 90.78H44.6196V139.77C44.6196 145.443 45.6163 149.583 47.6096 152.19C49.7563 154.797 53.2829 156.407 58.1896 157.02L69.9196 158.4V165.3H-0.000390351ZM209.575 167.6C192.708 167.6 177.911 164.15 165.185 157.25C152.611 150.35 142.798 140.69 135.745 128.27C128.845 115.85 125.395 101.36 125.395 84.8C125.395 68.3933 128.998 53.98 136.205 41.56C143.565 29.14 153.761 19.48 166.795 12.58C179.981 5.52665 195.161 1.99998 212.335 1.99998C229.201 1.99998 243.845 5.44998 256.265 12.35C268.838 19.25 278.575 28.91 285.475 41.33C292.528 53.75 296.055 68.3166 296.055 85.03C296.055 101.283 292.375 115.62 285.015 128.04C277.808 140.46 267.688 150.197 254.655 157.25C241.775 164.15 226.748 167.6 209.575 167.6ZM216.015 157.94C227.515 157.94 237.481 155.41 245.915 150.35C254.501 145.137 261.095 137.7 265.695 128.04C270.448 118.227 272.825 106.573 272.825 93.08C272.825 76.8267 269.911 62.6433 264.085 50.53C258.258 38.2633 250.285 28.7566 240.165 22.01C230.045 15.11 218.468 11.66 205.435 11.66C193.935 11.66 183.891 14.2666 175.305 19.48C166.871 24.54 160.278 31.9 155.525 41.56C150.925 51.22 148.625 62.8733 148.625 76.52C148.625 92.7733 151.538 107.033 157.365 119.3C163.191 131.413 171.165 140.92 181.285 147.82C191.405 154.567 202.981 157.94 216.015 157.94ZM299.646 165.3V158.4L309.076 157.48C314.136 157.02 317.663 155.64 319.656 153.34C321.65 151.04 322.646 147.207 322.646 141.84V27.76C322.646 22.3933 321.65 18.56 319.656 16.26C317.663 13.96 314.136 12.58 309.076 12.12L299.646 11.2V4.29998H368.876C388.043 4.29998 402.38 7.67331 411.886 14.42C421.393 21.1666 426.147 31.0566 426.147 44.09C426.147 49.7633 424.843 55.4367 422.236 61.11C419.783 66.63 415.49 71.6133 409.356 76.06C403.223 80.3533 394.713 83.42 383.826 85.26C391.8 87.56 398.316 91.24 403.376 96.3C408.436 101.207 412.5 107.8 415.566 116.08C418.633 124.207 421.086 134.25 422.927 146.21C423.54 150.043 424.69 152.957 426.376 154.95C428.063 156.79 430.746 157.863 434.427 158.17L437.416 158.4V165.3H421.546C414.033 165.3 408.82 163.92 405.906 161.16C403.146 158.4 401.153 153.57 399.926 146.67C397.933 134.863 395.25 124.59 391.876 115.85C388.503 106.957 384.133 100.133 378.766 95.38C373.4 90.4733 366.73 88.02 358.756 88.02H344.266V141.84C344.266 147.207 345.263 151.117 347.256 153.57C349.25 155.87 352.776 157.173 357.836 157.48L369.566 158.4V165.3H299.646ZM344.266 79.05H364.736C376.083 79.05 385.206 75.83 392.106 69.39C399.16 62.7967 402.686 54.5933 402.686 44.78C402.686 34.8133 399.696 27.1466 393.716 21.78C387.89 16.26 379.073 13.5 367.266 13.5C358.833 13.5 352.853 14.1133 349.326 15.34C345.953 16.5666 344.266 18.7133 344.266 21.78V79.05ZM437.287 165.3V158.4L442.117 157.94C446.257 157.48 449.477 156.637 451.777 155.41C454.077 154.183 455.764 152.19 456.837 149.43C458.064 146.67 458.83 142.913 459.137 138.16L467.877 31.44C468.49 24.3866 467.57 19.5566 465.117 16.95C462.817 14.19 457.834 12.4266 450.167 11.66L445.337 11.2V4.29998H490.417L542.397 141.38H536.187L585.177 4.29998H628.877V11.2L624.047 11.66C619.294 12.12 615.69 12.9633 613.237 14.19C610.937 15.4166 609.48 17.41 608.867 20.17C608.254 22.7766 608.177 26.5333 608.637 31.44L618.067 135.17C618.527 140.537 619.37 144.83 620.597 148.05C621.977 151.117 623.97 153.417 626.577 154.95C629.184 156.33 632.71 157.327 637.157 157.94L642.447 158.4V165.3H576.437V158.4L584.027 157.71C590.007 157.097 593.84 155.333 595.527 152.42C597.214 149.353 597.674 143.603 596.907 135.17L586.557 18.1L589.777 18.79L537.337 165.3H529.747L477.307 28.45L470.177 138.16C469.87 143.067 470.177 146.977 471.097 149.89C472.17 152.65 474.087 154.643 476.847 155.87C479.76 157.097 483.824 157.863 489.037 158.17L493.867 158.4V165.3H437.287ZM757.418 166.68C751.745 166.22 745.918 165.837 739.938 165.53C734.112 165.377 728.898 165.3 724.298 165.3H642.418V158.4L651.848 157.48C656.908 157.02 660.435 155.64 662.428 153.34C664.422 151.04 665.418 147.207 665.418 141.84V27.76C665.418 22.3933 664.422 18.56 662.428 16.26C660.435 13.96 656.908 12.58 651.848 12.12L642.418 11.2V4.29998H724.758C732.118 4.29998 738.252 4.22331 743.158 4.06998C748.218 3.76332 752.895 3.37998 757.188 2.91998L760.638 40.18H753.738C751.592 30.06 748.295 23.0833 743.848 19.25C739.402 15.4166 732.425 13.5 722.918 13.5H687.038V78.59H735.108C740.475 78.59 744.232 77.5933 746.378 75.6C748.525 73.4533 749.828 69.5433 750.288 63.87L750.748 57.89H757.648V108.03H750.748L750.518 100.21C750.365 95.7633 749.062 92.62 746.608 90.78C744.308 88.7867 740.475 87.79 735.108 87.79H687.038V141.84C687.038 145.827 687.728 148.893 689.108 151.04C690.642 153.187 693.478 154.72 697.618 155.64C701.758 156.407 707.892 156.79 716.018 156.79C724.605 156.79 731.352 155.793 736.258 153.8C741.318 151.653 745.305 148.05 748.218 142.99C751.285 137.777 753.968 130.57 756.268 121.37H763.398L757.418 166.68ZM771.578 165.3V158.4L781.008 157.48C786.068 157.02 789.594 155.64 791.588 153.34C793.581 151.04 794.578 147.207 794.578 141.84V27.76C794.578 22.3933 793.581 18.56 791.588 16.26C789.594 13.96 786.068 12.58 781.008 12.12L771.578 11.2V4.29998H845.178C864.498 4.29998 880.904 7.28998 894.398 13.27C908.044 19.0966 918.394 27.8366 925.448 39.49C932.654 50.99 936.258 65.3266 936.258 82.5C936.258 99.52 932.424 114.24 924.758 126.66C917.244 138.927 906.664 148.433 893.018 155.18C879.524 161.927 863.884 165.3 846.098 165.3H771.578ZM846.098 156.1C866.951 156.1 883.281 150.35 895.088 138.85C907.048 127.35 913.028 110.713 913.028 88.94C913.028 73.4533 910.038 60.0366 904.058 48.69C898.078 37.19 889.798 28.2966 879.218 22.01C868.791 15.7233 856.908 12.58 843.568 12.58C839.581 12.58 835.518 12.7333 831.378 13.04C827.391 13.1933 822.331 13.5 816.198 13.96V142.53C816.198 146.363 816.964 149.277 818.498 151.27C820.031 153.11 822.944 154.413 827.238 155.18C831.531 155.793 837.818 156.1 846.098 156.1Z" fill="white" fill-opacity="0.02" shape-rendering="crispEdges"/>
</g>
<defs>
<filter id="filter0_di_694_8605" x="0" y="0" width="939.258" height="167.6" filterUnits="userSpaceOnUse" color-interpolation-filters="sRGB">
<feFlood flood-opacity="0" result="BackgroundImageFix"/>
<feColorMatrix in="SourceAlpha" type="matrix" values="0 0 0 0 0 0 0 0 0 0 0 0 0 0 0 0 0 0 127 0" result="hardAlpha"/>
<feOffset dx="2" dy="-1"/>
<feGaussianBlur stdDeviation="0.5"/>
<feComposite in2="hardAlpha" operator="out"/>
<feColorMatrix type="matrix" values="0 0 0 0 1 0 0 0 0 1 0 0 0 0 1 0 0 0 0.12 0"/>
<feBlend mode="normal" in2="BackgroundImageFix" result="effect1_dropShadow_694_8605"/>
<feBlend mode="normal" in="SourceGraphic" in2="effect1_dropShadow_694_8605" result="shape"/>
<feColorMatrix in="SourceAlpha" type="matrix" values="0 0 0 0 0 0 0 0 0 0 0 0 0 0 0 0 0 0 127 0" result="hardAlpha"/>
<feOffset dx="2" dy="-1"/>
<feGaussianBlur stdDeviation="1"/>
<feComposite in2="hardAlpha" operator="arithmetic" k2="-1" k3="1"/>
<feColorMatrix type="matrix" values="0 0 0 0 0 0 0 0 0 0 0 0 0 0 0 0 0 0 1 0"/>
<feBlend mode="normal" in2="shape" result="effect2_innerShadow_694_8605"/>
</filter>
</defs>
</svg>
