<svg width="20" height="20" viewBox="0 0 20 20" fill="none" xmlns="http://www.w3.org/2000/svg">
<path d="M10.0033 7.50033C8.62211 7.50033 7.50326 8.61958 7.50326 10.0003C7.50326 11.3814 8.62252 12.5003 10.0033 12.5003C11.3844 12.5003 12.5033 11.3811 12.5033 10.0003C12.5033 8.61924 11.384 7.50033 10.0033 7.50033ZM10.0033 5.83366C12.3036 5.83366 14.1699 7.69791 14.1699 10.0003C14.1699 12.3007 12.3057 14.167 10.0033 14.167C7.70286 14.167 5.83659 12.3027 5.83659 10.0003C5.83659 7.69993 7.70084 5.83366 10.0033 5.83366ZM15.4199 5.62462C15.4199 6.19971 14.9526 6.6663 14.3783 6.6663C13.8032 6.6663 13.3366 6.19899 13.3366 5.62462C13.3366 5.05024 13.8039 4.58366 14.3783 4.58366C14.9519 4.58293 15.4199 5.05024 15.4199 5.62462ZM10.0033 3.33366C7.94119 3.33366 7.60509 3.33912 6.646 3.38183C5.99256 3.4125 5.55455 3.50038 5.14757 3.65838C4.78591 3.79865 4.52501 3.96614 4.24704 4.24412C3.968 4.52316 3.80081 4.78335 3.66111 5.14518C3.50274 5.55309 3.41488 5.99042 3.38476 6.64295C3.34163 7.56299 3.33659 7.88453 3.33659 10.0003C3.33659 12.0624 3.34205 12.3985 3.38475 13.3575C3.41544 14.0107 3.50344 14.4493 3.66106 14.8553C3.80169 15.2175 3.96952 15.479 4.24616 15.7557C4.5263 16.0354 4.78726 16.2032 5.14566 16.3415C5.5576 16.5007 5.99534 16.5887 6.64587 16.6188C7.56592 16.6619 7.88746 16.667 10.0033 16.667C12.0654 16.667 12.4014 16.6615 13.3604 16.6188C14.0122 16.5882 14.4512 16.5 14.8583 16.3425C15.2194 16.2022 15.4818 16.0338 15.7586 15.7574C16.0388 15.4768 16.2062 15.2165 16.3447 14.8572C16.5035 14.4468 16.5917 14.0085 16.6218 13.3577C16.6649 12.4377 16.6699 12.1161 16.6699 10.0003C16.6699 7.93826 16.6644 7.60217 16.6218 6.64313C16.5911 5.99121 16.5029 5.55157 16.3452 5.14464C16.2053 4.78398 16.0372 4.52228 15.7594 4.24412C15.4799 3.96462 15.2204 3.79777 14.8584 3.65818C14.4508 3.49994 14.0128 3.41196 13.3606 3.38183C12.4406 3.3387 12.119 3.33366 10.0033 3.33366ZM10.0033 1.66699C12.2671 1.66699 12.5498 1.67533 13.4387 1.71699C14.3254 1.75797 14.9304 1.89824 15.4616 2.10449C16.0109 2.3163 16.4748 2.60241 16.9379 3.0656C17.4004 3.5288 17.6866 3.99408 17.8991 4.54199C18.1046 5.07255 18.2449 5.6781 18.2866 6.56491C18.3262 7.4538 18.3366 7.73643 18.3366 10.0003C18.3366 12.2642 18.3283 12.5468 18.2866 13.4357C18.2456 14.3226 18.1046 14.9274 17.8991 15.4587C17.6873 16.008 17.4004 16.4718 16.9379 16.9351C16.4748 17.3976 16.0088 17.6837 15.4616 17.8962C14.9304 18.1017 14.3254 18.242 13.4387 18.2837C12.5498 18.3232 12.2671 18.3337 10.0033 18.3337C7.73936 18.3337 7.45672 18.3253 6.56784 18.2837C5.68103 18.2427 5.07686 18.1017 4.54492 17.8962C3.99631 17.6843 3.53172 17.3976 3.06853 16.9351C2.60534 16.4718 2.31992 16.0059 2.10742 15.4587C1.90117 14.9274 1.76159 14.3226 1.71992 13.4357C1.68034 12.5468 1.66992 12.2642 1.66992 10.0003C1.66992 7.73643 1.67826 7.4538 1.71992 6.56491C1.76089 5.67741 1.90117 5.07324 2.10742 4.54199C2.31922 3.99338 2.60534 3.5288 3.06853 3.0656C3.53172 2.60241 3.99701 2.31699 4.54492 2.10449C5.07617 1.89824 5.68034 1.75866 6.56784 1.71699C7.45672 1.67741 7.73936 1.66699 10.0033 1.66699Z" fill="#F7F7EB"/>
</svg>
