<svg width="20" height="20" viewBox="0 0 20 20" fill="none" xmlns="http://www.w3.org/2000/svg">
<path d="M10.0033 7.49984C8.62211 7.49984 7.50326 8.61909 7.50326 9.99984C7.50326 11.3809 8.62252 12.4998 10.0033 12.4998C11.3844 12.4998 12.5033 11.3806 12.5033 9.99984C12.5033 8.61875 11.384 7.49984 10.0033 7.49984ZM10.0033 5.83317C12.3036 5.83317 14.1699 7.69742 14.1699 9.99984C14.1699 12.3003 12.3057 14.1665 10.0033 14.1665C7.70286 14.1665 5.83659 12.3023 5.83659 9.99984C5.83659 7.69945 7.70084 5.83317 10.0033 5.83317ZM15.4199 5.62413C15.4199 6.19922 14.9526 6.66581 14.3783 6.66581C13.8032 6.66581 13.3366 6.1985 13.3366 5.62413C13.3366 5.04975 13.8039 4.58317 14.3783 4.58317C14.9519 4.58245 15.4199 5.04975 15.4199 5.62413ZM10.0033 3.33317C7.94119 3.33317 7.60509 3.33863 6.646 3.38134C5.99256 3.41201 5.55455 3.4999 5.14757 3.6579C4.78591 3.79816 4.52501 3.96565 4.24704 4.24363C3.968 4.52267 3.80081 4.78286 3.66111 5.1447C3.50274 5.5526 3.41488 5.98993 3.38476 6.64246C3.34163 7.5625 3.33659 7.88405 3.33659 9.99984C3.33659 12.0619 3.34205 12.398 3.38475 13.357C3.41544 14.0102 3.50344 14.4488 3.66106 14.8548C3.80169 15.217 3.96952 15.4785 4.24616 15.7552C4.5263 16.0349 4.78726 16.2027 5.14566 16.341C5.5576 16.5003 5.99534 16.5883 6.64587 16.6183C7.56592 16.6614 7.88746 16.6665 10.0033 16.6665C12.0654 16.6665 12.4014 16.661 13.3604 16.6183C14.0122 16.5878 14.4512 16.4995 14.8583 16.342C15.2194 16.2018 15.4818 16.0333 15.7586 15.7569C16.0388 15.4763 16.2062 15.216 16.3447 14.8568C16.5035 14.4463 16.5917 14.008 16.6218 13.3573C16.6649 12.4372 16.6699 12.1156 16.6699 9.99984C16.6699 7.93777 16.6644 7.60168 16.6218 6.64265C16.5911 5.99072 16.5029 5.55108 16.3452 5.14415C16.2053 4.78349 16.0372 4.5218 15.7594 4.24363C15.4799 3.96413 15.2204 3.79728 14.8584 3.65769C14.4508 3.49945 14.0128 3.41147 13.3606 3.38135C12.4406 3.33821 12.119 3.33317 10.0033 3.33317ZM10.0033 1.6665C12.2671 1.6665 12.5498 1.67484 13.4387 1.7165C14.3254 1.75748 14.9304 1.89775 15.4616 2.104C16.0109 2.31581 16.4748 2.60192 16.9379 3.06511C17.4004 3.52831 17.6866 3.99359 17.8991 4.5415C18.1046 5.07206 18.2449 5.67761 18.2866 6.56442C18.3262 7.45331 18.3366 7.73595 18.3366 9.99984C18.3366 12.2638 18.3283 12.5463 18.2866 13.4353C18.2456 14.3221 18.1046 14.9269 17.8991 15.4582C17.6873 16.0075 17.4004 16.4713 16.9379 16.9346C16.4748 17.3971 16.0088 17.6832 15.4616 17.8957C14.9304 18.1013 14.3254 18.2415 13.4387 18.2832C12.5498 18.3228 12.2671 18.3332 10.0033 18.3332C7.73936 18.3332 7.45672 18.3248 6.56784 18.2832C5.68103 18.2422 5.07686 18.1013 4.54492 17.8957C3.99631 17.6838 3.53172 17.3971 3.06853 16.9346C2.60534 16.4713 2.31992 16.0054 2.10742 15.4582C1.90117 14.9269 1.76159 14.3221 1.71992 13.4353C1.68034 12.5463 1.66992 12.2638 1.66992 9.99984C1.66992 7.73595 1.67826 7.45331 1.71992 6.56442C1.76089 5.67692 1.90117 5.07275 2.10742 4.5415C2.31922 3.9929 2.60534 3.52831 3.06853 3.06511C3.53172 2.60192 3.99701 2.3165 4.54492 2.104C5.07617 1.89775 5.68034 1.75817 6.56784 1.7165C7.45672 1.67692 7.73936 1.6665 10.0033 1.6665Z" fill="#10070B"/>
</svg>
