<svg width="27" height="22" viewBox="0 0 27 22" fill="none" xmlns="http://www.w3.org/2000/svg">
<path d="M5.03019 0.344198C4.49457 0.525858 4.11264 0.72664 3.88908 0.946545C3.66552 1.16645 3.54442 1.51543 3.52113 1.99826V13.2899L19.5525 2.37592C20.8706 1.48196 21.3643 0.884398 21.029 0.588005C20.9405 0.497175 20.7588 0.415906 20.4934 0.348978V0.00478018H25.6586V0.348978C25.0997 0.511517 23.558 1.52977 21.029 3.4133L13.5163 8.60973L23.8468 19.0743C25.2767 20.5897 26.3293 21.4502 27 21.6558V22H21.9046V21.6558C22.4635 21.5172 22.743 21.3355 22.743 21.106C22.743 20.8527 22.5287 20.5085 22.1049 20.0734L11.807 9.78096L3.52113 15.4937V19.7962C3.52113 20.3459 3.63291 20.7475 3.85648 21.0009C4.08004 21.2542 4.47128 21.4694 5.03019 21.6558V22H0V21.6558C0.55891 21.4741 0.945491 21.2542 1.15508 21.0009C1.36933 20.7475 1.4718 20.3459 1.4718 19.7962V2.23729C1.4718 1.66362 1.36467 1.2525 1.15508 0.99913C0.945491 0.745762 0.55891 0.530639 0 0.344198V0H5.03019V0.344198Z" fill="#F7F7EB"/>
</svg>
