<svg width="169" height="2064" viewBox="0 0 169 2064" fill="none" xmlns="http://www.w3.org/2000/svg">
<g opacity="0.36" filter="url(#filter0_di_351_3282)">
<path d="M164.681 1944.34C164.221 1949.1 163.837 1954.46 163.531 1960.44C163.377 1966.27 163.301 1971.94 163.301 1977.46L163.301 2063.94L156.401 2063.94L155.481 2054.51C155.021 2049.45 153.641 2045.93 151.341 2043.93C149.041 2041.94 145.207 2040.94 139.841 2040.94L25.7608 2040.94C20.3941 2040.94 16.5608 2041.94 14.2608 2043.93C11.9608 2045.93 10.5808 2049.45 10.1208 2054.51L9.20078 2063.94L2.30077 2063.94L2.30077 1994.02L9.20077 1994.02L10.1208 2005.75C10.4274 2010.81 11.8074 2014.34 14.2608 2016.33C16.5608 2018.33 20.3941 2019.32 25.7608 2019.32L139.841 2019.32C143.827 2019.32 146.894 2018.63 149.041 2017.25C151.187 2015.72 152.721 2012.88 153.641 2008.74C154.407 2004.6 154.791 1998.47 154.791 1990.34C154.791 1980.84 153.794 1973.25 151.801 1967.57C149.654 1961.75 146.051 1957.22 140.991 1954C135.777 1950.63 128.571 1947.79 119.371 1945.49L119.371 1938.36L164.681 1944.34ZM164.681 1824.28C164.221 1829.95 163.837 1835.78 163.531 1841.76C163.377 1847.58 163.301 1852.8 163.301 1857.4L163.301 1939.28L156.401 1939.28L155.481 1929.85C155.021 1924.79 153.641 1921.26 151.341 1919.27C149.041 1917.27 145.207 1916.28 139.841 1916.28L25.7608 1916.28C20.3941 1916.28 16.5608 1917.27 14.2608 1919.27C11.9608 1921.26 10.5808 1924.79 10.1208 1929.85L9.20077 1939.28L2.30076 1939.28L2.30076 1856.94C2.30076 1849.58 2.22409 1843.44 2.07076 1838.54C1.7641 1833.48 1.38077 1828.8 0.920764 1824.51L38.1808 1821.06L38.1808 1827.96C28.0608 1830.1 21.0841 1833.4 17.2508 1837.85C13.4174 1842.29 11.5008 1849.27 11.5008 1858.78L11.5008 1894.66L76.5908 1894.66L76.5908 1846.59C76.5908 1841.22 75.5941 1837.46 73.6008 1835.32C71.4541 1833.17 67.5441 1831.87 61.8708 1831.41L55.8908 1830.95L55.8908 1824.05L106.031 1824.05L106.031 1830.95L98.2108 1831.18C93.7641 1831.33 90.6208 1832.63 88.7808 1835.09C86.7874 1837.39 85.7908 1841.22 85.7908 1846.59L85.7908 1894.66L139.841 1894.66C143.827 1894.66 146.894 1893.97 149.041 1892.59C151.187 1891.05 152.721 1888.22 153.641 1884.08C154.407 1879.94 154.791 1873.8 154.791 1865.68C154.791 1857.09 153.794 1850.34 151.801 1845.44C149.654 1840.38 146.051 1836.39 140.991 1833.48C135.777 1830.41 128.571 1827.73 119.371 1825.43L119.371 1818.3L164.681 1824.28ZM0.000757058 1718.12C0.000756636 1708.46 0.997424 1699.33 2.99076 1690.75C4.83075 1682.01 8.12742 1672.81 12.8808 1663.15L43.7008 1663.15L43.7008 1670.05C31.8941 1672.96 23.3074 1679.25 17.9408 1688.91C12.4208 1698.41 9.66076 1709.45 9.66076 1722.03C9.66076 1734.6 12.5741 1745.64 18.4008 1755.15C24.0741 1764.5 32.1241 1771.78 42.5508 1777C52.9774 1782.21 65.1674 1784.82 79.1208 1784.82C90.3141 1784.82 100.587 1783.13 109.941 1779.76C119.294 1776.38 127.421 1771.63 134.321 1765.5C141.221 1759.36 146.587 1752.16 150.421 1743.88C154.101 1735.44 155.941 1726.24 155.941 1716.28C155.941 1710.14 155.557 1705.24 154.791 1701.56C153.871 1697.88 152.414 1695.19 150.421 1693.51C148.427 1691.82 145.897 1690.98 142.831 1690.98L109.941 1690.98C105.494 1690.98 102.351 1692.66 100.511 1696.04C98.5174 1699.26 97.2908 1705.16 96.8308 1713.75L96.6008 1718.58L89.7008 1718.58L89.7008 1654.41L96.6008 1654.41L97.0608 1659.24C97.3674 1663.38 98.6708 1666.29 100.971 1667.98C103.271 1669.66 107.027 1670.51 112.241 1670.51L154.331 1670.51C158.164 1679.4 161.001 1688.14 162.841 1696.73C164.681 1705.31 165.601 1713.98 165.601 1722.72C165.601 1739.58 162.227 1754.46 155.481 1767.34C148.734 1780.06 139.304 1790.03 127.191 1797.24C115.077 1804.44 101.047 1808.05 85.1008 1808.05C72.8341 1808.05 61.5641 1805.82 51.2908 1801.38C40.8641 1796.93 31.8174 1790.64 24.1508 1782.52C16.4841 1774.39 10.5808 1764.88 6.44076 1754C2.14742 1742.96 0.000757621 1731 0.000757058 1718.12ZM163.301 1664.34L156.401 1664.34C155.481 1658.51 154.407 1654.07 153.181 1651C151.954 1647.78 149.807 1645.17 146.741 1643.18C143.521 1641.19 138.691 1638.89 132.251 1636.28L1.15075 1582.69L1.15075 1575.1L135.471 1521.28C142.524 1518.52 147.584 1515.38 150.651 1511.85C153.717 1508.32 155.634 1502.88 156.401 1495.52L163.301 1495.52L163.301 1561.07L156.401 1561.07L155.251 1551.64C154.637 1546.73 152.874 1543.67 149.961 1542.44C146.894 1541.06 142.524 1541.52 136.851 1543.82L22.7708 1588.9L22.7708 1581.77L134.091 1625.24C141.451 1628.15 146.741 1628.84 149.961 1627.31C153.181 1625.78 155.097 1622.1 155.711 1616.27L156.401 1609.6L163.301 1609.6L163.301 1664.34ZM100.971 1615.81L91.7708 1615.81L91.7708 1546.35L100.971 1546.35L100.971 1615.81ZM165.601 1420.82C165.601 1438.15 162.151 1453.25 155.251 1466.13C148.197 1479.01 138.614 1488.98 126.501 1496.03C114.387 1502.93 100.587 1506.38 85.1008 1506.38C73.4474 1506.38 62.4841 1504.31 52.2108 1500.17C41.9374 1495.88 32.8908 1489.82 25.0708 1482C17.2508 1474.03 11.1174 1464.52 6.67074 1453.48C2.22408 1442.44 0.000744472 1430.17 0.000743882 1416.68C0.000743453 1406.87 0.997411 1397.67 2.99075 1389.08C4.83074 1380.34 8.1274 1371.14 12.8807 1361.48L43.7007 1361.48L43.7007 1368.38C31.8941 1371.29 23.3074 1377.58 17.9407 1387.24C12.4207 1396.75 9.66074 1407.79 9.66074 1420.36C9.66074 1433.7 12.7274 1445.05 18.8607 1454.4C24.9941 1463.75 33.2741 1470.88 43.7007 1475.79C54.1274 1480.7 65.9341 1483.15 79.1207 1483.15C88.4741 1483.15 97.7508 1481.77 106.951 1479.01C115.997 1476.1 124.277 1471.88 131.791 1466.36C139.151 1460.84 145.054 1454.02 149.501 1445.89C153.794 1437.76 155.941 1428.33 155.941 1417.6C155.941 1409.93 155.097 1403.19 153.411 1397.36C151.724 1391.53 148.121 1386.47 142.601 1382.18C136.927 1377.73 128.417 1373.9 117.071 1370.68L117.071 1363.78L153.641 1363.78C157.934 1374.67 161.001 1384.86 162.841 1394.37C164.681 1403.88 165.601 1412.69 165.601 1420.82ZM163.301 1321.46L156.401 1321.46L155.711 1314.33C155.251 1309.73 154.484 1306.21 153.411 1303.75C152.337 1301.3 150.727 1299.61 148.581 1298.69C146.281 1297.77 143.367 1297.31 139.841 1297.31L90.6207 1297.31L27.1407 1337.33C22.0807 1340.4 18.3241 1343.08 15.8707 1345.38C13.4174 1347.53 11.7307 1349.83 10.8107 1352.28C9.89074 1354.74 9.35408 1357.96 9.20075 1361.94L2.30074 1361.94L2.30074 1302.14L9.20074 1302.14L9.43074 1306.97C9.7374 1312.19 11.3474 1315.41 14.2607 1316.63C17.1741 1317.86 21.4674 1316.79 27.1407 1313.41L86.7107 1277.07L86.7107 1285.81L27.8307 1250.16C22.3107 1246.79 17.9407 1245.87 14.7207 1247.4C11.5007 1248.78 9.7374 1252.23 9.43074 1257.75L9.20074 1262.58L2.30073 1262.58L2.30073 1214.05L9.20074 1214.05C9.5074 1219.11 11.0407 1223.41 13.8007 1226.93C16.4074 1230.46 20.8541 1234.22 27.1407 1238.2L87.8607 1275.69L139.841 1275.69C143.367 1275.69 146.281 1275.23 148.581 1274.31C150.727 1273.39 152.337 1271.71 153.411 1269.25C154.484 1266.65 155.251 1263.12 155.711 1258.67L156.401 1251.54L163.301 1251.54L163.301 1321.46ZM139.841 1089.49L11.2707 1089.49L12.1907 1113.87C12.4974 1121.23 13.4941 1126.98 15.1807 1131.12C16.8674 1135.1 19.9341 1138.17 24.3807 1140.32C28.6741 1142.31 34.9607 1144 43.2407 1145.38L43.2407 1152.51L0.920734 1150.44C1.38074 1145.99 1.76407 1140.85 2.07073 1135.03C2.22406 1129.05 2.30073 1123.14 2.30073 1117.32L2.30073 1040.04C2.30073 1035.13 2.22406 1029.69 2.07073 1023.71C1.76406 1017.57 1.38073 1011.98 0.920728 1006.92L43.2407 1004.85L43.2407 1011.98C34.9607 1013.36 28.6741 1015.12 24.3807 1017.27C19.9341 1019.26 16.8674 1022.33 15.1807 1026.47C13.4941 1030.45 12.4974 1036.13 12.1907 1043.49L11.2707 1067.87L139.841 1067.87C143.367 1067.87 146.281 1067.41 148.581 1066.49C150.727 1065.57 152.337 1063.88 153.411 1061.43C154.484 1058.82 155.251 1055.29 155.711 1050.85L156.401 1043.72L163.301 1043.72L163.301 1113.64L156.401 1113.64L155.711 1106.51C155.251 1101.91 154.484 1098.38 153.411 1095.93C152.337 1093.47 150.727 1091.79 148.581 1090.87C146.281 1089.95 143.367 1089.49 139.841 1089.49ZM163.301 893.981L156.401 893.981L155.481 884.551C155.021 880.718 154.177 877.881 152.951 876.041C151.724 874.048 150.037 872.745 147.891 872.131C145.744 871.365 143.061 870.981 139.841 870.981L25.7607 870.981C22.5407 870.981 19.8574 871.365 17.7107 872.131C15.5641 872.745 13.8774 874.048 12.6507 876.041C11.2707 877.881 10.4274 880.718 10.1207 884.551L9.20073 893.981L2.30072 893.981L2.30072 826.361L9.20072 826.361L10.1207 835.791C10.4274 839.471 11.2707 842.308 12.6507 844.301C13.8774 846.295 15.5641 847.675 17.7107 848.441C19.8574 849.055 22.5407 849.361 25.7607 849.361L139.841 849.361C143.061 849.361 145.744 849.055 147.891 848.441C150.037 847.675 151.724 846.295 152.951 844.301C154.177 842.308 155.021 839.471 155.481 835.791L156.401 826.361L163.301 826.361L163.301 893.981ZM163.301 1004.38L156.401 1004.38L155.481 994.951C155.021 991.118 154.177 988.281 152.951 986.441C151.724 984.448 150.037 983.145 147.891 982.531C145.744 981.765 143.061 981.381 139.841 981.381L25.7607 981.381C22.5407 981.381 19.8574 981.765 17.7107 982.531C15.5641 983.145 13.8774 984.448 12.6507 986.441C11.2707 988.281 10.4274 991.118 10.1207 994.951L9.20073 1004.38L2.30072 1004.38L2.30072 936.761L9.20073 936.761L10.1207 946.191C10.4274 949.871 11.2707 952.708 12.6507 954.701C13.8774 956.695 15.5641 958.075 17.7107 958.841C19.8574 959.455 22.5407 959.761 25.7607 959.761L139.841 959.761C143.061 959.761 145.744 959.455 147.891 958.841C150.037 958.075 151.724 956.695 152.951 954.701C154.177 952.708 155.021 949.871 155.481 946.191L156.401 936.761L163.301 936.761L163.301 1004.38ZM83.0307 969.881L73.8307 969.881L73.8307 863.161L83.0307 863.161L83.0307 969.881ZM163.301 821.765L156.401 821.765L155.481 812.335C155.021 807.275 153.641 803.748 151.341 801.755C149.041 799.762 145.207 798.765 139.841 798.765L25.7607 798.765C20.3941 798.765 16.5607 799.762 14.2607 801.755C11.9607 803.748 10.5807 807.275 10.1207 812.335L9.20072 821.765L2.30072 821.765L2.30071 752.535C2.30071 733.368 5.67405 719.032 12.4207 709.525C19.1674 700.018 29.0574 695.265 42.0907 695.265C47.7641 695.265 53.4374 696.568 59.1107 699.175C64.6307 701.628 69.6141 705.922 74.0607 712.055C78.3541 718.188 81.4207 726.698 83.2607 737.585C85.5607 729.612 89.2407 723.095 94.3007 718.035C99.2074 712.975 105.801 708.912 114.081 705.845C122.207 702.778 132.251 700.325 144.211 698.485C148.044 697.872 150.957 696.722 152.951 695.035C154.791 693.348 155.864 690.665 156.171 686.985L156.401 683.995L163.301 683.995L163.301 699.865C163.301 707.378 161.921 712.592 159.161 715.505C156.401 718.265 151.571 720.258 144.671 721.485C132.864 723.478 122.591 726.162 113.851 729.535C104.957 732.908 98.1341 737.278 93.3807 742.645C88.4741 748.012 86.0207 754.682 86.0207 762.655L86.0207 777.145L139.841 777.145C145.207 777.145 149.117 776.148 151.571 774.155C153.871 772.162 155.174 768.635 155.481 763.575L156.401 751.845L163.301 751.845L163.301 821.765ZM77.0507 777.145L77.0507 756.675C77.0507 745.328 73.8307 736.205 67.3907 729.305C60.7974 722.252 52.5941 718.725 42.7807 718.725C32.814 718.725 25.1474 721.715 19.7807 727.695C14.2607 733.522 11.5007 742.338 11.5007 754.145C11.5007 762.578 12.1141 768.558 13.3407 772.085C14.5674 775.458 16.714 777.145 19.7807 777.145L77.0507 777.145ZM165.601 596.692C165.601 613.559 162.151 628.355 155.251 641.082C148.351 653.655 138.691 663.469 126.271 670.522C113.851 677.422 99.3607 680.872 82.8007 680.872C66.394 680.872 51.9807 677.269 39.5607 670.062C27.1407 662.702 17.4807 652.505 10.5807 639.472C3.52738 626.285 0.000708669 611.105 0.000707918 593.932C0.000707181 577.065 3.45071 562.422 10.3507 550.002C17.2507 537.429 26.9107 527.692 39.3307 520.792C51.7507 513.739 66.3174 510.212 83.0307 510.212C99.284 510.212 113.621 513.892 126.041 521.252C138.461 528.459 148.197 538.579 155.251 551.612C162.151 564.492 165.601 579.519 165.601 596.692ZM155.941 590.252C155.941 578.752 153.411 568.785 148.351 560.352C143.137 551.765 135.701 545.172 126.041 540.572C116.227 535.819 104.574 533.442 91.0807 533.442C74.8274 533.442 60.644 536.355 48.5307 542.182C36.264 548.009 26.7574 555.982 20.0107 566.102C13.1107 576.222 9.66071 587.799 9.66071 600.832C9.66071 612.332 12.2674 622.375 17.4807 630.962C22.5407 639.395 29.9007 645.989 39.5607 650.742C49.2207 655.342 60.874 657.642 74.5207 657.642C90.7741 657.642 105.034 654.729 117.301 648.902C129.414 643.075 138.921 635.102 145.821 624.982C152.567 614.862 155.941 603.285 155.941 590.252ZM165.601 423.152C165.601 465.932 142.677 487.322 96.8307 487.322L27.1407 487.322C20.7007 487.322 16.1774 488.472 13.5707 490.772C10.964 493.072 9.58404 497.212 9.43071 503.192L9.20071 508.022L2.3007 508.022L2.3007 445.002L9.20071 445.002L9.4307 449.832C9.58404 455.812 10.964 459.952 13.5707 462.252C16.1774 464.552 20.7007 465.702 27.1407 465.702L93.1507 465.702C133.937 465.702 154.331 449.602 154.331 417.402C154.331 401.455 148.887 389.725 138.001 382.212C127.114 374.545 110.171 370.712 87.1707 370.712L27.1407 370.712C20.7007 370.712 16.254 371.938 13.8007 374.392C11.194 376.692 9.73736 381.062 9.4307 387.502L9.2007 392.332L2.3007 392.332L2.30069 339.432L9.2007 339.432L9.4307 344.262C9.58403 350.242 10.964 354.382 13.5707 356.682C16.1774 358.982 20.7007 360.132 27.1407 360.132L90.1607 360.132C116.074 360.132 135.164 365.192 147.431 375.312C159.544 385.432 165.601 401.378 165.601 423.152ZM0.000692785 247.726C0.000692363 238.066 0.99736 228.943 2.99069 220.356C4.83069 211.616 8.12735 202.416 12.8807 192.756L43.7007 192.756L43.7007 199.656C31.894 202.57 23.3074 208.856 17.9407 218.516C12.4207 228.023 9.66069 239.063 9.66069 251.636C9.66069 264.21 12.574 275.25 18.4007 284.756C24.074 294.11 32.124 301.393 42.5507 306.606C52.9774 311.82 65.1674 314.426 79.1207 314.426C90.314 314.426 100.587 312.74 109.941 309.366C119.294 305.993 127.421 301.24 134.321 295.106C141.221 288.973 146.587 281.766 150.421 273.486C154.101 265.053 155.941 255.853 155.941 245.886C155.941 239.753 155.557 234.846 154.791 231.166C153.871 227.486 152.414 224.803 150.421 223.116C148.427 221.43 145.897 220.586 142.831 220.586L109.941 220.586C105.494 220.586 102.351 222.273 100.511 225.646C98.5174 228.866 97.2907 234.77 96.8307 243.356L96.6007 248.186L89.7007 248.186L89.7007 184.016L96.6007 184.016L97.0607 188.846C97.3674 192.986 98.6707 195.9 100.971 197.586C103.271 199.273 107.027 200.116 112.241 200.116L154.331 200.116C158.164 209.01 161.001 217.75 162.841 226.336C164.681 234.923 165.601 243.586 165.601 252.326C165.601 269.193 162.227 284.066 155.481 296.946C148.734 309.673 139.304 319.64 127.191 326.846C115.077 334.053 101.047 337.656 85.1007 337.656C72.834 337.656 61.564 335.433 51.2907 330.986C40.864 326.54 31.8174 320.253 24.1507 312.126C16.484 304 10.5807 294.493 6.44069 283.606C2.14736 272.566 0.000693348 260.606 0.000692785 247.726ZM163.301 69.6201L156.401 69.6201L155.481 60.1902C155.021 56.3568 154.177 53.5202 152.951 51.6802C151.724 49.6868 150.037 48.3835 147.891 47.7702C145.744 47.0035 143.061 46.6202 139.841 46.6202L25.7607 46.6202C22.5407 46.6202 19.8574 47.0035 17.7107 47.7702C15.564 48.3835 13.8774 49.6868 12.6507 51.6802C11.2707 53.5202 10.4274 56.3568 10.1207 60.1902L9.20069 69.6202L2.30068 69.6202L2.30068 2.00016L9.20069 2.00016L10.1207 11.4302C10.4274 15.1102 11.2707 17.9468 12.6507 19.9402C13.8774 21.9335 15.564 23.3135 17.7107 24.0802C19.8574 24.6935 22.5407 25.0002 25.7607 25.0002L139.841 25.0001C143.061 25.0001 145.744 24.6935 147.891 24.0802C150.037 23.3135 151.724 21.9335 152.951 19.9402C154.177 17.9468 155.021 15.1102 155.481 11.4302L156.401 2.00015L163.301 2.00015L163.301 69.6201ZM163.301 180.02L156.401 180.02L155.481 170.59C155.021 166.757 154.177 163.92 152.951 162.08C151.724 160.087 150.037 158.783 147.891 158.17C145.744 157.403 143.061 157.02 139.841 157.02L25.7607 157.02C22.5407 157.02 19.8574 157.403 17.7107 158.17C15.564 158.783 13.8774 160.087 12.6507 162.08C11.2707 163.92 10.4274 166.757 10.1207 170.59L9.20069 180.02L2.30069 180.02L2.30068 112.4L9.20069 112.4L10.1207 121.83C10.4274 125.51 11.2707 128.347 12.6507 130.34C13.8774 132.333 15.564 133.713 17.7107 134.48C19.8574 135.093 22.5407 135.4 25.7607 135.4L139.841 135.4C143.061 135.4 145.744 135.093 147.891 134.48C150.037 133.713 151.724 132.333 152.951 130.34C154.177 128.347 155.021 125.51 155.481 121.83L156.401 112.4L163.301 112.4L163.301 180.02ZM83.0307 145.52L73.8307 145.52L73.8307 38.8001L83.0307 38.8001L83.0307 145.52Z" fill="white" fill-opacity="0.02" shape-rendering="crispEdges"/>
</g>
<defs>
<filter id="filter0_di_351_3282" x="0" y="0" width="168.602" height="2063.94" filterUnits="userSpaceOnUse" color-interpolation-filters="sRGB">
<feFlood flood-opacity="0" result="BackgroundImageFix"/>
<feColorMatrix in="SourceAlpha" type="matrix" values="0 0 0 0 0 0 0 0 0 0 0 0 0 0 0 0 0 0 127 0" result="hardAlpha"/>
<feOffset dx="2" dy="-1"/>
<feGaussianBlur stdDeviation="0.5"/>
<feComposite in2="hardAlpha" operator="out"/>
<feColorMatrix type="matrix" values="0 0 0 0 1 0 0 0 0 1 0 0 0 0 1 0 0 0 0.12 0"/>
<feBlend mode="normal" in2="BackgroundImageFix" result="effect1_dropShadow_351_3282"/>
<feBlend mode="normal" in="SourceGraphic" in2="effect1_dropShadow_351_3282" result="shape"/>
<feColorMatrix in="SourceAlpha" type="matrix" values="0 0 0 0 0 0 0 0 0 0 0 0 0 0 0 0 0 0 127 0" result="hardAlpha"/>
<feOffset dx="2" dy="-1"/>
<feGaussianBlur stdDeviation="1"/>
<feComposite in2="hardAlpha" operator="arithmetic" k2="-1" k3="1"/>
<feColorMatrix type="matrix" values="0 0 0 0 0 0 0 0 0 0 0 0 0 0 0 0 0 0 1 0"/>
<feBlend mode="normal" in2="shape" result="effect2_innerShadow_351_3282"/>
</filter>
</defs>
</svg>
