<svg width="853" height="168" viewBox="0 0 853 168" fill="none" xmlns="http://www.w3.org/2000/svg">
<g opacity="0.8" filter="url(#filter0_di_694_8604)">
<path d="M119.6 166.68C114.846 166.22 109.48 165.837 103.5 165.53C97.6729 165.377 91.9996 165.3 86.4796 165.3H-0.000390351V158.4L9.42961 157.48C14.4896 157.02 18.0163 155.64 20.0096 153.34C22.0029 151.04 22.9996 147.207 22.9996 141.84V27.76C22.9996 22.3934 22.0029 18.56 20.0096 16.26C18.0163 13.96 14.4896 12.58 9.42961 12.12L-0.000390351 11.2V4.30004H69.9196V11.2L58.1896 12.12C53.1296 12.4267 49.6029 13.8067 47.6096 16.26C45.6163 18.56 44.6196 22.3934 44.6196 27.76V141.84C44.6196 145.827 45.3096 148.893 46.6896 151.04C48.2229 153.187 51.0596 154.72 55.1996 155.64C59.3396 156.407 65.4729 156.79 73.5996 156.79C83.1063 156.79 90.6963 155.793 96.3696 153.8C102.196 151.653 106.72 148.05 109.94 142.99C113.313 137.777 116.15 130.57 118.45 121.37H125.58L119.6 166.68ZM239.667 166.68C233.993 166.22 228.167 165.837 222.187 165.53C216.36 165.377 211.147 165.3 206.547 165.3H124.667V158.4L134.097 157.48C139.157 157.02 142.683 155.64 144.677 153.34C146.67 151.04 147.667 147.207 147.667 141.84V27.76C147.667 22.3934 146.67 18.56 144.677 16.26C142.683 13.96 139.157 12.58 134.097 12.12L124.667 11.2V4.30004H207.007C214.367 4.30004 220.5 4.22337 225.407 4.07004C230.467 3.76338 235.143 3.38005 239.437 2.92004L242.887 40.18H235.987C233.84 30.06 230.543 23.0834 226.097 19.25C221.65 15.4167 214.673 13.5 205.167 13.5H169.287V78.59H217.357C222.723 78.59 226.48 77.5934 228.627 75.6C230.773 73.4534 232.077 69.5434 232.537 63.87L232.997 57.89H239.897V108.03H232.997L232.767 100.21C232.613 95.7634 231.31 92.62 228.857 90.78C226.557 88.7867 222.723 87.79 217.357 87.79H169.287V141.84C169.287 145.827 169.977 148.893 171.357 151.04C172.89 153.187 175.727 154.72 179.867 155.64C184.007 156.407 190.14 156.79 198.267 156.79C206.853 156.79 213.6 155.793 218.507 153.8C223.567 151.653 227.553 148.05 230.467 142.99C233.533 137.777 236.217 130.57 238.517 121.37H245.647L239.667 166.68ZM345.826 2.00004C355.486 2.00004 364.61 2.99671 373.196 4.99004C381.936 6.83004 391.136 10.1267 400.796 14.88V45.7H393.896C390.983 33.8934 384.696 25.3067 375.036 19.94C365.53 14.42 354.49 11.66 341.916 11.66C329.343 11.66 318.303 14.5734 308.796 20.4C299.443 26.0734 292.16 34.1234 286.946 44.55C281.733 54.9767 279.126 67.1667 279.126 81.12C279.126 92.3134 280.813 102.587 284.186 111.94C287.56 121.293 292.313 129.42 298.446 136.32C304.58 143.22 311.786 148.587 320.066 152.42C328.5 156.1 337.7 157.94 347.666 157.94C353.8 157.94 358.706 157.557 362.386 156.79C366.066 155.87 368.75 154.413 370.436 152.42C372.123 150.427 372.966 147.897 372.966 144.83V111.94C372.966 107.493 371.28 104.35 367.906 102.51C364.686 100.517 358.783 99.29 350.196 98.83L345.366 98.6V91.7H409.536V98.6L404.706 99.06C400.566 99.3667 397.653 100.67 395.966 102.97C394.28 105.27 393.436 109.027 393.436 114.24V156.33C384.543 160.163 375.803 163 367.216 164.84C358.63 166.68 349.966 167.6 341.226 167.6C324.36 167.6 309.486 164.227 296.606 157.48C283.88 150.733 273.913 141.303 266.706 129.19C259.5 117.077 255.896 103.047 255.896 87.1C255.896 74.8334 258.12 63.5634 262.566 53.29C267.013 42.8634 273.3 33.8167 281.426 26.15C289.553 18.4834 299.06 12.58 309.946 8.44004C320.986 4.14671 332.946 2.00004 345.826 2.00004ZM399.605 165.3V158.4C405.432 157.48 409.878 156.407 412.945 155.18C416.165 153.953 418.772 151.807 420.765 148.74C422.758 145.52 425.058 140.69 427.665 134.25L481.255 3.15004H488.845L542.665 137.47C545.425 144.523 548.568 149.583 552.095 152.65C555.622 155.717 561.065 157.633 568.425 158.4V165.3H502.875V158.4L512.305 157.25C517.212 156.637 520.278 154.873 521.505 151.96C522.885 148.893 522.425 144.523 520.125 138.85L475.045 24.77H482.175L438.705 136.09C435.792 143.45 435.102 148.74 436.635 151.96C438.168 155.18 441.848 157.097 447.675 157.71L454.345 158.4V165.3H399.605ZM448.135 102.97V93.77H517.595V102.97H448.135ZM643.125 167.6C625.798 167.6 610.695 164.15 597.815 157.25C584.935 150.197 574.968 140.613 567.915 128.5C561.015 116.387 557.565 102.587 557.565 87.1C557.565 75.4467 559.635 64.4834 563.775 54.21C568.068 43.9367 574.125 34.89 581.945 27.07C589.918 19.25 599.425 13.1167 610.465 8.67004C621.505 4.22337 633.771 2.00004 647.265 2.00004C657.078 2.00004 666.278 2.99671 674.865 4.99004C683.605 6.83004 692.805 10.1267 702.465 14.88V45.7H695.565C692.651 33.8934 686.365 25.3067 676.705 19.94C667.198 14.42 656.158 11.66 643.585 11.66C630.245 11.66 618.898 14.7267 609.545 20.86C600.191 26.9934 593.061 35.2734 588.155 45.7C583.248 56.1267 580.795 67.9334 580.795 81.12C580.795 90.4734 582.175 99.75 584.935 108.95C587.848 117.997 592.065 126.277 597.585 133.79C603.105 141.15 609.928 147.053 618.055 151.5C626.181 155.793 635.611 157.94 646.345 157.94C654.011 157.94 660.758 157.097 666.585 155.41C672.411 153.723 677.471 150.12 681.765 144.6C686.211 138.927 690.045 130.417 693.265 119.07H700.165V155.64C689.278 159.933 679.081 163 669.575 164.84C660.068 166.68 651.251 167.6 643.125 167.6ZM742.481 165.3V158.4L749.611 157.71C754.211 157.25 757.738 156.483 760.191 155.41C762.644 154.337 764.331 152.727 765.251 150.58C766.171 148.28 766.631 145.367 766.631 141.84V92.62L726.611 29.14C723.544 24.08 720.861 20.3234 718.561 17.87C716.414 15.4167 714.114 13.73 711.661 12.81C709.208 11.89 705.988 11.3534 702.001 11.2V4.30004H761.801V11.2L756.971 11.43C751.758 11.7367 748.538 13.3467 747.311 16.26C746.084 19.1734 747.158 23.4667 750.531 29.14L786.871 88.71H778.131L813.781 29.83C817.154 24.31 818.074 19.94 816.541 16.72C815.161 13.5 811.711 11.7367 806.191 11.43L801.361 11.2V4.30004H849.891V11.2C844.831 11.5067 840.538 13.04 837.011 15.8C833.484 18.4067 829.728 22.8534 825.741 29.14L788.251 89.86V141.84C788.251 145.367 788.711 148.28 789.631 150.58C790.551 152.727 792.238 154.337 794.691 155.41C797.298 156.483 800.824 157.25 805.271 157.71L812.401 158.4V165.3H742.481Z" fill="white" fill-opacity="0.02" shape-rendering="crispEdges"/>
</g>
<defs>
<filter id="filter0_di_694_8604" x="0" y="0" width="852.891" height="167.6" filterUnits="userSpaceOnUse" color-interpolation-filters="sRGB">
<feFlood flood-opacity="0" result="BackgroundImageFix"/>
<feColorMatrix in="SourceAlpha" type="matrix" values="0 0 0 0 0 0 0 0 0 0 0 0 0 0 0 0 0 0 127 0" result="hardAlpha"/>
<feOffset dx="2" dy="-1"/>
<feGaussianBlur stdDeviation="0.5"/>
<feComposite in2="hardAlpha" operator="out"/>
<feColorMatrix type="matrix" values="0 0 0 0 1 0 0 0 0 1 0 0 0 0 1 0 0 0 0.12 0"/>
<feBlend mode="normal" in2="BackgroundImageFix" result="effect1_dropShadow_694_8604"/>
<feBlend mode="normal" in="SourceGraphic" in2="effect1_dropShadow_694_8604" result="shape"/>
<feColorMatrix in="SourceAlpha" type="matrix" values="0 0 0 0 0 0 0 0 0 0 0 0 0 0 0 0 0 0 127 0" result="hardAlpha"/>
<feOffset dx="2" dy="-1"/>
<feGaussianBlur stdDeviation="1"/>
<feComposite in2="hardAlpha" operator="arithmetic" k2="-1" k3="1"/>
<feColorMatrix type="matrix" values="0 0 0 0 0 0 0 0 0 0 0 0 0 0 0 0 0 0 1 0"/>
<feBlend mode="normal" in2="shape" result="effect2_innerShadow_694_8604"/>
</filter>
</defs>
</svg>
