<svg width="20" height="20" viewBox="0 0 20 20" fill="none" xmlns="http://www.w3.org/2000/svg">
<path d="M6.40127 5.13945C6.40101 5.70492 6.04461 6.21377 5.50014 6.42605C4.95567 6.63835 4.33185 6.51169 3.92284 6.10581C3.51382 5.69992 3.4013 5.09586 3.63831 4.57846C3.87534 4.06107 4.41457 3.73366 5.00175 3.75063C5.78164 3.77316 6.40163 4.3884 6.40127 5.13945ZM6.44456 7.556H3.55895V16.25H6.44456V7.556ZM11.0038 7.556H8.13264V16.25H10.975V11.6877C10.975 9.14618 14.4161 8.91008 14.4161 11.6877V16.25H17.2656V10.7433C17.2656 6.45883 12.1725 6.61854 10.975 8.72259L11.0038 7.556Z" fill="#F7F7EB"/>
</svg>
