<svg width="20" height="20" viewBox="0 0 20 20" fill="none" xmlns="http://www.w3.org/2000/svg">
<path d="M6.40127 5.13994C6.40101 5.7054 6.04461 6.21425 5.50014 6.42654C4.95567 6.63884 4.33185 6.51218 3.92284 6.10629C3.51382 5.7004 3.4013 5.09634 3.63831 4.57895C3.87534 4.06156 4.41457 3.73415 5.00175 3.75112C5.78164 3.77365 6.40163 4.38889 6.40127 5.13994ZM6.44456 7.55649H3.55895V16.2505H6.44456V7.55649ZM11.0038 7.55649H8.13264V16.2505H10.975V11.6882C10.975 9.14667 14.4161 8.91057 14.4161 11.6882V16.2505H17.2656V10.7438C17.2656 6.45932 12.1725 6.61903 10.975 8.72308L11.0038 7.55649Z" fill="#10070B"/>
</svg>
