<svg width="51" height="33" viewBox="0 0 51 33" fill="none" xmlns="http://www.w3.org/2000/svg">
<path d="M32.2295 27.6621V27.6504C33.1657 29.0993 33.8678 30.079 34.3359 30.5938C34.804 31.1028 35.3338 31.5053 35.9189 31.8018V32.2051H30.0615V31.8018C30.6522 31.427 30.9423 31.0636 30.9424 30.7168C30.9424 30.342 30.7532 29.8716 30.3799 29.3066L27.4922 24.7979H27.4111L26.1201 22.7334H26.166L18.3809 10.6104L17.8174 9.72656L10.8125 20.6953H10.79L10.1953 21.6621L9.50781 22.7393L9.51367 22.7334H9.53711L8.26758 24.7979H8.23145L5.90234 28.4619C5.23356 29.536 4.89844 30.3307 4.89844 30.8398C4.89851 31.2146 5.12775 31.5391 5.5791 31.8076V32.21H0V31.8076C0.612967 31.5391 1.1261 31.1757 1.52734 30.7227C1.92861 30.2639 2.63636 29.2453 3.65625 27.6621L16.458 7.87988C15.951 7.28703 15.36 6.81753 14.6914 6.4707V6.06738H18.2246L32.2295 27.6621Z" fill="#10070B"/>
<path d="M47.3135 27.6621V27.6504C48.2495 29.099 48.9518 30.078 49.4199 30.5928C49.8881 31.1019 50.4177 31.5053 51.0029 31.8018V32.2041H45.1455V31.8018C45.7363 31.4269 46.0264 31.0627 46.0264 30.7158C46.0262 30.3411 45.8361 29.8714 45.4629 29.3066L42.5762 24.7979H42.4951L41.2041 22.7334H41.25L33.4639 10.6094L32.9014 9.72559L25.8955 20.6953H25.874L25.2949 21.6357L24.5918 22.7383L24.5977 22.7334H24.6211L23.3516 24.7979H23.3154L20.9863 28.4619C20.3175 29.536 19.9824 30.3307 19.9824 30.8398C19.9826 31.2145 20.2118 31.5392 20.6631 31.8076V32.21H15.084V31.8076C15.697 31.5391 16.2101 31.1748 16.6113 30.7217C17.0126 30.2628 17.7206 29.2449 18.7402 27.6621L31.541 7.87988C31.0339 7.28695 30.4431 6.81655 29.7744 6.46973V6.06738H33.3086L47.3135 27.6621Z" fill="#10070B"/>
<path d="M31.6697 3.13575C32.5229 3.13575 33.2145 2.43379 33.2145 1.56788C33.2145 0.701962 32.5229 0 31.6697 0C30.8166 0 30.125 0.701962 30.125 1.56788C30.125 2.43379 30.8166 3.13575 31.6697 3.13575Z" fill="#10070B"/>
<path d="M16.6407 3.13575C17.5123 3.13575 18.2189 2.43379 18.2189 1.56788C18.2189 0.701962 17.5123 0 16.6407 0C15.7691 0 15.0625 0.701962 15.0625 1.56788C15.0625 2.43379 15.7691 3.13575 16.6407 3.13575Z" fill="#10070B"/>
</svg>
