<svg width="51" height="33" viewBox="0 0 51 33" fill="none" xmlns="http://www.w3.org/2000/svg">
<path d="M32.2295 27.6626V27.6509C33.1657 29.0998 33.8678 30.0795 34.3359 30.5942C34.804 31.1033 35.3338 31.5058 35.9189 31.8022V32.2056H30.0615V31.8022C30.6522 31.4275 30.9423 31.0641 30.9424 30.7173C30.9424 30.3425 30.7532 29.8721 30.3799 29.3071L27.4922 24.7983H27.4111L26.1201 22.7339H26.166L18.3809 10.6108L17.8174 9.72705L10.8125 20.6958H10.79L10.1953 21.6626L9.50781 22.7397L9.51367 22.7339H9.53711L8.26758 24.7983H8.23145L5.90234 28.4624C5.23356 29.5365 4.89844 30.3312 4.89844 30.8403C4.89851 31.2151 5.12775 31.5396 5.5791 31.8081V32.2104H0V31.8081C0.612967 31.5396 1.1261 31.1762 1.52734 30.7231C1.92861 30.2644 2.63636 29.2458 3.65625 27.6626L16.458 7.88037C15.951 7.28752 15.36 6.81802 14.6914 6.47119V6.06787H18.2246L32.2295 27.6626Z" fill="#F7F7EB"/>
<path d="M47.3125 27.6625V27.6508C48.2486 29.0994 48.9508 30.0784 49.4189 30.5932C49.8871 31.1023 50.4168 31.5057 51.002 31.8022V32.2045H45.1445V31.8022C45.7353 31.4274 46.0254 31.0631 46.0254 30.7162C46.0252 30.3415 45.8352 29.8719 45.4619 29.3071L42.5752 24.7983H42.4941L41.2031 22.7338H41.249L33.4629 10.6098L32.9004 9.72601L25.8945 20.6957H25.873L25.2939 21.6362L24.5908 22.7387L24.5967 22.7338H24.6201L23.3506 24.7983H23.3145L20.9854 28.4623C20.3166 29.5365 19.9814 30.3312 19.9814 30.8403C19.9816 31.2149 20.2109 31.5396 20.6621 31.808V32.2104H15.083V31.808C15.6961 31.5395 16.2091 31.1753 16.6104 30.7221C17.0117 30.2632 17.7196 29.2454 18.7393 27.6625L31.54 7.88031C31.0329 7.28737 30.4422 6.81698 29.7734 6.47015V6.06781H33.3076L47.3125 27.6625Z" fill="#F7F7EB"/>
<path d="M31.6688 3.13575C32.5219 3.13575 33.2135 2.43379 33.2135 1.56788C33.2135 0.701962 32.5219 0 31.6688 0C30.8156 0 30.124 0.701962 30.124 1.56788C30.124 2.43379 30.8156 3.13575 31.6688 3.13575Z" fill="#F7F7EB"/>
<path d="M16.6402 3.13575C17.5118 3.13575 18.2184 2.43379 18.2184 1.56788C18.2184 0.701962 17.5118 0 16.6402 0C15.7686 0 15.062 0.701962 15.062 1.56788C15.062 2.43379 15.7686 3.13575 16.6402 3.13575Z" fill="#F7F7EB"/>
</svg>
