<svg width="33" height="22" viewBox="0 0 33 22" fill="none" xmlns="http://www.w3.org/2000/svg">
<path d="M31.427 19.6342V12.7849C31.427 12.7849 31.427 12.7709 31.427 12.7615V9.01831C31.427 9.01831 31.427 9.01363 31.427 9.00894V2.15971C31.427 1.62095 31.5356 1.22743 31.7482 0.979131C31.9655 0.730834 32.367 0.520017 32.9575 0.337308V0H29.4194L16.5614 18.8565L3.60421 0H0V0.337308C0.566848 0.515332 0.963642 0.730834 1.19038 0.979131C1.41712 1.22743 1.53049 1.62095 1.53049 2.15971V9.04174C1.53049 9.04174 1.53049 9.07453 1.52577 9.09327V12.6959C1.52577 12.7381 1.53049 12.7756 1.53049 12.8177V19.6295C1.50687 20.0792 1.37933 20.4165 1.13842 20.6414C0.902233 20.8663 0.519611 21.0583 0 21.2129V21.5503H5.20555V21.2129C4.61509 21.0349 4.20885 20.8194 3.98211 20.5711C3.75537 20.3228 3.642 19.9293 3.642 19.3905V4.65673L3.30189 3.24191L16.226 22H16.7693L29.6603 3.13884L29.2871 4.62394V19.3999C29.2871 19.9387 29.1785 20.3322 28.9659 20.5805C28.7486 20.8288 28.3613 21.0396 27.7944 21.2223V21.5596H33V21.2223C32.4568 21.063 32.0647 20.8756 31.8285 20.6508C31.5923 20.4259 31.4601 20.0886 31.4364 19.6388L31.427 19.6342Z" fill="#F7F7EB"/>
</svg>
