<svg preserveAspectRatio="none" width="862" height="166" viewBox="0 0 862 166" fill="none" xmlns="http://www.w3.org/2000/svg">
<g opacity="0.8" filter="url(#filter0_di_3166_3040)">
<path d="M0.000390951 164.15V157.25L4.83039 156.79C8.97039 156.33 12.1904 155.487 14.4904 154.26C16.7904 153.034 18.4771 151.04 19.5504 148.28C20.7771 145.52 21.5437 141.764 21.8504 137.01L30.5904 30.2904C31.2037 23.2371 30.2837 18.4071 27.8304 15.8004C25.5304 13.0404 20.5471 11.277 12.8804 10.5104L8.05039 10.0504V3.15038H53.1304L105.11 140.23H98.9004L147.89 3.15038H191.59V10.0504L186.76 10.5104C182.007 10.9704 178.404 11.8137 175.95 13.0404C173.65 14.267 172.194 16.2604 171.58 19.0204C170.967 21.6271 170.89 25.3837 171.35 30.2904L180.78 134.02C181.24 139.387 182.084 143.68 183.31 146.9C184.69 149.967 186.684 152.267 189.29 153.8C191.897 155.18 195.424 156.177 199.87 156.79L205.16 157.25V164.15H139.15V157.25L146.74 156.56C152.72 155.947 156.554 154.184 158.24 151.27C159.927 148.204 160.387 142.454 159.62 134.02L149.27 16.9504L152.49 17.6404L100.05 164.15H92.4604L40.0204 27.3004L32.8904 137.01C32.5837 141.917 32.8904 145.827 33.8104 148.74C34.8837 151.5 36.8004 153.494 39.5604 154.72C42.4737 155.947 46.5371 156.714 51.7504 157.02L56.5804 157.25V164.15H0.000390951ZM245.152 107.57L245.612 94.6904L314.842 27.5304C319.748 22.7771 321.665 18.7904 320.592 15.5704C319.672 12.3504 316.068 10.587 309.782 10.2804L304.952 10.0504V3.15038H363.832V10.0504C359.998 10.357 356.318 11.047 352.792 12.1204C349.418 13.1937 345.815 14.957 341.982 17.4104C338.302 19.8637 334.008 23.3904 329.102 27.9904L245.152 107.57ZM296.672 164.15V157.25L304.262 156.56C309.015 156.1 311.698 154.107 312.312 150.58C313.078 146.9 311.698 142.607 308.172 137.7L268.152 81.8104L283.792 69.3904L335.312 140.69C339.605 146.517 343.822 150.58 347.962 152.88C352.255 155.18 357.545 156.637 363.832 157.25V164.15H296.672ZM205.132 164.15V157.25L214.562 156.33C219.622 155.87 223.148 154.49 225.142 152.19C227.135 149.89 228.132 146.057 228.132 140.69V26.6104C228.132 21.2437 227.135 17.4104 225.142 15.1104C223.148 12.8104 219.622 11.4304 214.562 10.9704L205.132 10.0504V3.15038H272.752V10.0504L263.322 10.7404C258.415 11.047 254.888 12.4271 252.742 14.8804C250.748 17.1804 249.752 21.0904 249.752 26.6104V140.69C249.752 146.21 250.825 150.197 252.972 152.65C255.272 154.95 259.488 156.254 265.622 156.56L275.052 157.25V164.15H205.132ZM356.75 164.15V157.25C362.577 156.33 367.023 155.257 370.09 154.03C373.31 152.804 375.917 150.657 377.91 147.59C379.903 144.37 382.203 139.54 384.81 133.1L438.4 2.00038H445.99L499.81 136.32C502.57 143.374 505.714 148.434 509.24 151.5C512.767 154.567 518.21 156.484 525.57 157.25V164.15H460.02V157.25L469.45 156.1C474.357 155.487 477.424 153.724 478.65 150.81C480.03 147.744 479.57 143.374 477.27 137.7L432.19 23.6204H439.32L395.85 134.94C392.937 142.3 392.247 147.59 393.78 150.81C395.313 154.03 398.993 155.947 404.82 156.56L411.49 157.25V164.15H356.75ZM405.28 101.82V92.6204H474.74V101.82H405.28ZM518.703 164.15V157.25C524.529 156.33 528.976 155.257 532.043 154.03C535.263 152.804 537.869 150.657 539.863 147.59C541.856 144.37 544.156 139.54 546.763 133.1L600.353 2.00038H607.943L661.763 136.32C664.523 143.374 667.666 148.434 671.193 151.5C674.719 154.567 680.163 156.484 687.523 157.25V164.15H621.973V157.25L631.403 156.1C636.309 155.487 639.376 153.724 640.603 150.81C641.983 147.744 641.523 143.374 639.223 137.7L594.143 23.6204H601.273L557.803 134.94C554.889 142.3 554.199 147.59 555.733 150.81C557.266 154.03 560.946 155.947 566.773 156.56L573.443 157.25V164.15H518.703ZM567.233 101.82V92.6204H636.693V101.82H567.233ZM830.317 165.99L715.777 28.2204C715.93 36.347 716.007 44.3204 716.007 52.1404C716.16 59.8071 716.313 67.8571 716.467 76.2904C716.62 84.7237 716.697 94.0771 716.697 104.35C716.85 114.47 716.927 126.124 716.927 139.31C716.927 143.757 717.387 147.207 718.307 149.66C719.38 152.114 721.22 153.877 723.827 154.95C726.587 156.024 730.343 156.714 735.097 157.02L739.927 157.25V164.15H685.187V157.25L690.017 156.79C694.31 156.33 697.607 155.564 699.907 154.49C702.207 153.264 703.74 151.5 704.507 149.2C705.427 146.747 705.887 143.45 705.887 139.31L706.577 27.9904C706.577 21.7037 705.35 17.4104 702.897 15.1104C700.597 12.6571 695.92 11.1237 688.867 10.5104L684.037 10.0504V3.15038H722.447L827.327 128.96C827.173 118.534 827.02 109.334 826.867 101.36C826.713 93.3871 826.56 85.8737 826.407 78.8204C826.407 71.6137 826.407 64.1771 826.407 56.5104C826.407 48.8437 826.407 40.1037 826.407 30.2904C826.407 25.077 825.87 21.0904 824.797 18.3304C823.877 15.5704 822.113 13.5771 819.507 12.3504C816.9 11.1237 813.143 10.4337 808.237 10.2804L803.407 10.0504V3.15038H858.147V10.0504L853.317 10.5104C849.023 10.9704 845.727 11.8137 843.427 13.0404C841.127 14.1137 839.517 16.0304 838.597 18.7904C837.83 21.3971 837.447 25.2304 837.447 30.2904L836.757 165.99H830.317Z" fill="white" fill-opacity="0.01" shape-rendering="crispEdges"/>
</g>
<defs>
<filter id="filter0_di_3166_3040" x="0" y="0" width="861.146" height="165.99" filterUnits="userSpaceOnUse" color-interpolation-filters="sRGB">
<feFlood flood-opacity="0" result="BackgroundImageFix"/>
<feColorMatrix in="SourceAlpha" type="matrix" values="0 0 0 0 0 0 0 0 0 0 0 0 0 0 0 0 0 0 127 0" result="hardAlpha"/>
<feOffset dx="2" dy="-1"/>
<feGaussianBlur stdDeviation="0.5"/>
<feComposite in2="hardAlpha" operator="out"/>
<feColorMatrix type="matrix" values="0 0 0 0 1 0 0 0 0 1 0 0 0 0 1 0 0 0 0.12 0"/>
<feBlend mode="normal" in2="BackgroundImageFix" result="effect1_dropShadow_3166_3040"/>
<feBlend mode="normal" in="SourceGraphic" in2="effect1_dropShadow_3166_3040" result="shape"/>
<feColorMatrix in="SourceAlpha" type="matrix" values="0 0 0 0 0 0 0 0 0 0 0 0 0 0 0 0 0 0 127 0" result="hardAlpha"/>
<feOffset dx="2" dy="-1"/>
<feGaussianBlur stdDeviation="1"/>
<feComposite in2="hardAlpha" operator="arithmetic" k2="-1" k3="1"/>
<feColorMatrix type="matrix" values="0 0 0 0 0 0 0 0 0 0 0 0 0 0 0 0 0 0 1 0"/>
<feBlend mode="normal" in2="shape" result="effect2_innerShadow_3166_3040"/>
</filter>
</defs>
</svg>
