<svg width="46" height="673" viewBox="0 0 46 673" fill="none" xmlns="http://www.w3.org/2000/svg">
<g filter="url(#filter0_di_3001_5162)">
<path d="M41.9503 26.7818V17.7532C41.9503 17.7532 41.9503 17.7347 41.9503 17.7224V12.7882C41.9503 12.7882 41.9503 12.782 41.9503 12.7758V3.74728C41.9503 3.0371 42.0919 2.51836 42.3689 2.19106C42.652 1.86376 43.1752 1.58587 43.9446 1.34502V0.900391H39.3344L22.58 25.7567L5.69639 0.900391H1V1.34502C1.73862 1.57969 2.25565 1.86376 2.5511 2.19106C2.84655 2.51836 2.99427 3.0371 2.99427 3.74728V12.819C2.99427 12.819 2.99427 12.8623 2.98812 12.887V17.6359C2.98812 17.6915 2.99427 17.7409 2.99427 17.7965V26.7756C2.9635 27.3685 2.79731 27.8131 2.4834 28.1095C2.17564 28.4059 1.67707 28.6591 1 28.8629V29.3075H7.78299V28.8629C7.0136 28.6282 6.48425 28.3442 6.18881 28.0169C5.89336 27.6896 5.74563 27.1708 5.74563 26.4607V7.03881L5.30246 5.17381L22.143 29.9004H22.8508L39.6483 5.03795L39.162 6.99558V26.473C39.162 27.1832 39.0205 27.7019 38.7435 28.0292C38.4603 28.3565 37.9556 28.6344 37.217 28.8753V29.3199H44V28.8753C43.2922 28.6653 42.7813 28.4183 42.4735 28.1219C42.1658 27.8254 41.9934 27.3808 41.9626 26.788L41.9503 26.7818Z" fill="white" fill-opacity="0.01" shape-rendering="crispEdges"/>
</g>
<g filter="url(#filter1_di_3001_5162)">
<path d="M11.5206 159.088C10.8263 159.32 10.3312 159.575 10.0414 159.855C9.75159 160.135 9.59462 160.579 9.56443 161.194V175.565L30.3459 161.674C32.0545 160.537 32.6945 159.776 32.2598 159.399C32.1451 159.283 31.9096 159.18 31.5655 159.095V158.656H38.2612V159.095C37.5367 159.301 35.5382 160.597 32.2598 162.995L22.5211 169.608L35.9125 182.927C37.7661 184.856 39.1306 185.951 40 186.212V186.65H33.3949V186.212C34.1194 186.036 34.4816 185.805 34.4816 185.513C34.4816 185.19 34.2039 184.752 33.6545 184.198L20.3053 171.099L9.56443 178.37V183.846C9.56443 184.545 9.70933 185.056 9.99914 185.379C10.2889 185.701 10.7961 185.975 11.5206 186.212V186.65H5V186.212C5.72451 185.981 6.22564 185.701 6.49733 185.379C6.77506 185.056 6.90789 184.545 6.90789 183.846V161.498C6.90789 160.768 6.76902 160.244 6.49733 159.922C6.22564 159.6 5.72451 159.326 5 159.088V158.65H11.5206V159.088Z" fill="white" fill-opacity="0.01" shape-rendering="crispEdges"/>
</g>
<g filter="url(#filter2_di_3001_5162)">
<path d="M38.3914 353.396C39.4341 354.986 40.2161 356.061 40.7374 356.625C41.2587 357.184 41.8483 357.626 42.5 357.952V358.394H35.9771V357.952C36.635 357.54 36.9577 357.141 36.9577 356.761C36.9577 356.349 36.7467 355.833 36.3309 355.213L33.116 350.264H11.6668L9.07253 354.286C8.32777 355.465 7.9554 356.337 7.9554 356.896C7.9554 357.307 8.20985 357.663 8.71256 357.958V358.4H2.5V357.958C3.1827 357.663 3.75369 357.264 4.20055 356.767C4.6474 356.263 5.43561 355.146 6.57137 353.408L20.8274 331.696C20.2626 331.045 19.6047 330.529 18.86 330.148V329.706H22.7948L38.3914 353.408V353.396ZM13.0943 347.998H31.6389L22.9686 334.692L22.3417 333.722L13.0881 348.004L13.0943 347.998Z" fill="white" fill-opacity="0.01"/>
<rect x="9.58203" y="315.401" width="24.1891" height="1.32955" fill="white" fill-opacity="0.01"/>
</g>
<g filter="url(#filter3_di_3001_5162)">
<path d="M37.9941 510.267C39.0107 511.819 39.7732 512.867 40.2815 513.419C40.7898 513.964 41.3646 514.395 42 514.713V515.144H35.6402V514.713C36.2816 514.312 36.5963 513.922 36.5963 513.551C36.5963 513.149 36.3905 512.646 35.9851 512.041L32.8506 507.211H11.9376L9.40822 511.136C8.68208 512.286 8.319 513.137 8.319 513.682C8.319 514.084 8.5671 514.431 9.05725 514.719V515.15H3V514.719C3.66563 514.431 4.22234 514.042 4.65802 513.557C5.09371 513.065 5.86222 511.975 6.96959 510.279L20.8692 489.092C20.3185 488.457 19.6771 487.953 18.951 487.582V487.15H22.7874L37.9941 510.279V510.267ZM13.3294 505H31.4104L22.9569 492.016L22.3457 491.069L13.3234 505.006L13.3294 505Z" fill="white" fill-opacity="0.01"/>
</g>
<g filter="url(#filter4_di_3001_5162)">
<path d="M39.0517 655.995C39.0456 655.92 39.0334 655.852 39.0273 655.778V646.791C39.0273 646.081 39.1734 645.556 39.4657 645.21C39.7579 644.864 40.2694 644.58 41 644.345V643.9H34.467V644.345C35.1367 644.58 35.6116 644.839 35.8917 645.123C36.1718 645.408 36.324 645.858 36.3544 646.482V667.564L8.24979 643.9H4V644.345C4.66974 644.555 5.15682 644.815 5.44907 645.123C5.74132 645.432 5.89962 645.902 5.93006 646.526V653.734H5.88745V655.47C5.88745 655.766 5.86309 656.025 5.82047 656.254V660.016C5.86309 660.25 5.88745 660.51 5.88745 660.806V662.499H5.93006V669.793C5.89962 670.386 5.73523 670.831 5.42471 671.128C5.12029 671.424 4.64538 671.677 4 671.881V672.326H10.533V671.881C9.86325 671.671 9.37617 671.424 9.08392 671.128C8.79167 670.831 8.63338 670.386 8.60294 669.793V647.637L38.3697 672.9H39.0273V660.757C39.0273 660.59 39.0334 660.429 39.0517 660.281V655.988V655.995Z" fill="white" fill-opacity="0.01" shape-rendering="crispEdges"/>
</g>
<defs>
<filter id="filter0_di_3001_5162" x="1" y="0.000390619" width="44.25" height="30" filterUnits="userSpaceOnUse" color-interpolation-filters="sRGB">
<feFlood flood-opacity="0" result="BackgroundImageFix"/>
<feColorMatrix in="SourceAlpha" type="matrix" values="0 0 0 0 0 0 0 0 0 0 0 0 0 0 0 0 0 0 127 0" result="hardAlpha"/>
<feOffset dx="0.75" dy="-0.4"/>
<feGaussianBlur stdDeviation="0.25"/>
<feComposite in2="hardAlpha" operator="out"/>
<feColorMatrix type="matrix" values="0 0 0 0 1 0 0 0 0 1 0 0 0 0 1 0 0 0 0.08 0"/>
<feBlend mode="normal" in2="BackgroundImageFix" result="effect1_dropShadow_3001_5162"/>
<feBlend mode="normal" in="SourceGraphic" in2="effect1_dropShadow_3001_5162" result="shape"/>
<feColorMatrix in="SourceAlpha" type="matrix" values="0 0 0 0 0 0 0 0 0 0 0 0 0 0 0 0 0 0 127 0" result="hardAlpha"/>
<feOffset dx="1" dy="-0.75"/>
<feGaussianBlur stdDeviation="1"/>
<feComposite in2="hardAlpha" operator="arithmetic" k2="-1" k3="1"/>
<feColorMatrix type="matrix" values="0 0 0 0 0 0 0 0 0 0 0 0 0 0 0 0 0 0 0.24 0"/>
<feBlend mode="normal" in2="shape" result="effect2_innerShadow_3001_5162"/>
</filter>
<filter id="filter1_di_3001_5162" x="5" y="157.75" width="36.25" height="29" filterUnits="userSpaceOnUse" color-interpolation-filters="sRGB">
<feFlood flood-opacity="0" result="BackgroundImageFix"/>
<feColorMatrix in="SourceAlpha" type="matrix" values="0 0 0 0 0 0 0 0 0 0 0 0 0 0 0 0 0 0 127 0" result="hardAlpha"/>
<feOffset dx="0.75" dy="-0.4"/>
<feGaussianBlur stdDeviation="0.25"/>
<feComposite in2="hardAlpha" operator="out"/>
<feColorMatrix type="matrix" values="0 0 0 0 1 0 0 0 0 1 0 0 0 0 1 0 0 0 0.08 0"/>
<feBlend mode="normal" in2="BackgroundImageFix" result="effect1_dropShadow_3001_5162"/>
<feBlend mode="normal" in="SourceGraphic" in2="effect1_dropShadow_3001_5162" result="shape"/>
<feColorMatrix in="SourceAlpha" type="matrix" values="0 0 0 0 0 0 0 0 0 0 0 0 0 0 0 0 0 0 127 0" result="hardAlpha"/>
<feOffset dx="1" dy="-0.75"/>
<feGaussianBlur stdDeviation="1"/>
<feComposite in2="hardAlpha" operator="arithmetic" k2="-1" k3="1"/>
<feColorMatrix type="matrix" values="0 0 0 0 0 0 0 0 0 0 0 0 0 0 0 0 0 0 0.24 0"/>
<feBlend mode="normal" in2="shape" result="effect2_innerShadow_3001_5162"/>
</filter>
<filter id="filter2_di_3001_5162" x="2.5" y="314.501" width="41.25" height="43.999" filterUnits="userSpaceOnUse" color-interpolation-filters="sRGB">
<feFlood flood-opacity="0" result="BackgroundImageFix"/>
<feColorMatrix in="SourceAlpha" type="matrix" values="0 0 0 0 0 0 0 0 0 0 0 0 0 0 0 0 0 0 127 0" result="hardAlpha"/>
<feOffset dx="0.75" dy="-0.4"/>
<feGaussianBlur stdDeviation="0.25"/>
<feComposite in2="hardAlpha" operator="out"/>
<feColorMatrix type="matrix" values="0 0 0 0 1 0 0 0 0 1 0 0 0 0 1 0 0 0 0.08 0"/>
<feBlend mode="normal" in2="BackgroundImageFix" result="effect1_dropShadow_3001_5162"/>
<feBlend mode="normal" in="SourceGraphic" in2="effect1_dropShadow_3001_5162" result="shape"/>
<feColorMatrix in="SourceAlpha" type="matrix" values="0 0 0 0 0 0 0 0 0 0 0 0 0 0 0 0 0 0 127 0" result="hardAlpha"/>
<feOffset dx="1" dy="-0.75"/>
<feGaussianBlur stdDeviation="1"/>
<feComposite in2="hardAlpha" operator="arithmetic" k2="-1" k3="1"/>
<feColorMatrix type="matrix" values="0 0 0 0 0 0 0 0 0 0 0 0 0 0 0 0 0 0 0.24 0"/>
<feBlend mode="normal" in2="shape" result="effect2_innerShadow_3001_5162"/>
</filter>
<filter id="filter3_di_3001_5162" x="3" y="486.25" width="40.25" height="29" filterUnits="userSpaceOnUse" color-interpolation-filters="sRGB">
<feFlood flood-opacity="0" result="BackgroundImageFix"/>
<feColorMatrix in="SourceAlpha" type="matrix" values="0 0 0 0 0 0 0 0 0 0 0 0 0 0 0 0 0 0 127 0" result="hardAlpha"/>
<feOffset dx="0.75" dy="-0.4"/>
<feGaussianBlur stdDeviation="0.25"/>
<feComposite in2="hardAlpha" operator="out"/>
<feColorMatrix type="matrix" values="0 0 0 0 1 0 0 0 0 1 0 0 0 0 1 0 0 0 0.08 0"/>
<feBlend mode="normal" in2="BackgroundImageFix" result="effect1_dropShadow_3001_5162"/>
<feBlend mode="normal" in="SourceGraphic" in2="effect1_dropShadow_3001_5162" result="shape"/>
<feColorMatrix in="SourceAlpha" type="matrix" values="0 0 0 0 0 0 0 0 0 0 0 0 0 0 0 0 0 0 127 0" result="hardAlpha"/>
<feOffset dx="1" dy="-0.75"/>
<feGaussianBlur stdDeviation="1"/>
<feComposite in2="hardAlpha" operator="arithmetic" k2="-1" k3="1"/>
<feColorMatrix type="matrix" values="0 0 0 0 0 0 0 0 0 0 0 0 0 0 0 0 0 0 0.24 0"/>
<feBlend mode="normal" in2="shape" result="effect2_innerShadow_3001_5162"/>
</filter>
<filter id="filter4_di_3001_5162" x="4" y="643" width="38.25" height="30" filterUnits="userSpaceOnUse" color-interpolation-filters="sRGB">
<feFlood flood-opacity="0" result="BackgroundImageFix"/>
<feColorMatrix in="SourceAlpha" type="matrix" values="0 0 0 0 0 0 0 0 0 0 0 0 0 0 0 0 0 0 127 0" result="hardAlpha"/>
<feOffset dx="0.75" dy="-0.4"/>
<feGaussianBlur stdDeviation="0.25"/>
<feComposite in2="hardAlpha" operator="out"/>
<feColorMatrix type="matrix" values="0 0 0 0 1 0 0 0 0 1 0 0 0 0 1 0 0 0 0.08 0"/>
<feBlend mode="normal" in2="BackgroundImageFix" result="effect1_dropShadow_3001_5162"/>
<feBlend mode="normal" in="SourceGraphic" in2="effect1_dropShadow_3001_5162" result="shape"/>
<feColorMatrix in="SourceAlpha" type="matrix" values="0 0 0 0 0 0 0 0 0 0 0 0 0 0 0 0 0 0 127 0" result="hardAlpha"/>
<feOffset dx="1" dy="-0.75"/>
<feGaussianBlur stdDeviation="1"/>
<feComposite in2="hardAlpha" operator="arithmetic" k2="-1" k3="1"/>
<feColorMatrix type="matrix" values="0 0 0 0 0 0 0 0 0 0 0 0 0 0 0 0 0 0 0.24 0"/>
<feBlend mode="normal" in2="shape" result="effect2_innerShadow_3001_5162"/>
</filter>
</defs>
</svg>
