<svg preserveAspectRatio="none" width="34" height="403" viewBox="0 0 34 403" fill="none" xmlns="http://www.w3.org/2000/svg">
<path d="M31.5003 19.9088V12.9637C31.5003 12.9637 31.5003 12.9495 31.5003 12.94V9.14444C31.5003 9.14444 31.5003 9.13969 31.5003 9.13494V2.18992C31.5003 1.64362 31.6092 1.24459 31.8222 0.992825C32.04 0.741056 32.4425 0.52729 33.0343 0.342026V0H29.488L16.6 19.1202L3.61261 0H0V0.342026C0.568169 0.522539 0.965888 0.741056 1.19316 0.992825C1.42042 1.24459 1.53406 1.64362 1.53406 2.18992V9.16819C1.53406 9.16819 1.53406 9.20145 1.52932 9.22045V12.8735C1.52932 12.9162 1.53406 12.9542 1.53406 12.997V19.904C1.51038 20.36 1.38255 20.7021 1.14107 20.9301C0.904336 21.1581 0.520822 21.3529 0 21.5096V21.8517H5.21769V21.5096C4.62585 21.3291 4.21866 21.1106 3.99139 20.8588C3.76412 20.6071 3.65049 20.208 3.65049 19.6617V4.72186L3.30959 3.28725L16.2638 22.3077H16.8083L29.7295 3.18274L29.3554 4.68861V19.6712C29.3554 20.2175 29.2465 20.6166 29.0335 20.8683C28.8157 21.1201 28.4274 21.3339 27.8592 21.5191V21.8612H33.0769V21.5191C32.5324 21.3576 32.1394 21.1676 31.9027 20.9396C31.666 20.7116 31.5334 20.3695 31.5097 19.9135L31.5003 19.9088Z" fill="#F7F7EB"/>
<path d="M8.09398 93.2034C7.55989 93.3813 7.17905 93.5778 6.95612 93.7931C6.7332 94.0084 6.61245 94.3501 6.58922 94.8228V105.877L22.5749 95.1925C23.8893 94.3173 24.3816 93.7323 24.0472 93.4421C23.959 93.3532 23.7778 93.2736 23.5131 93.2081V92.8711H28.6636V93.2081C28.1063 93.3672 26.5691 94.3641 24.0472 96.2081L16.5559 101.296L26.857 111.541C28.2828 113.024 29.3324 113.867 30.0012 114.068V114.405H24.9203V114.068C25.4776 113.932 25.7563 113.754 25.7563 113.53C25.7563 113.282 25.5427 112.945 25.12 112.519L14.8515 102.442L6.58922 108.035V112.247C6.58922 112.786 6.70069 113.179 6.92361 113.427C7.14654 113.675 7.53667 113.885 8.09398 114.068V114.405H3.07812V114.068C3.63544 113.89 4.02092 113.675 4.22992 113.427C4.44355 113.179 4.54573 112.786 4.54573 112.247V95.0568C4.54573 94.4951 4.43891 94.0926 4.22992 93.8446C4.02092 93.5965 3.63544 93.3859 3.07812 93.2034V92.8664H8.09398V93.2034Z" fill="#F7F7EB"/>
<path d="M28.7631 214.187C29.5651 215.41 30.1667 216.237 30.5677 216.671C30.9687 217.101 31.4222 217.441 31.9235 217.691V218.032H26.9059V217.691C27.412 217.375 27.6602 217.068 27.6602 216.775C27.6602 216.459 27.4979 216.062 27.178 215.585L24.7051 211.778H8.20568L6.21009 214.872C5.6372 215.779 5.35076 216.449 5.35076 216.879C5.35076 217.196 5.54649 217.469 5.93319 217.696V218.036H1.1543V217.696C1.67945 217.469 2.11867 217.162 2.46241 216.78C2.80615 216.393 3.41246 215.533 4.28612 214.196L15.2523 197.494C14.8178 196.994 14.3118 196.597 13.7389 196.304V195.964H16.7657L28.7631 214.196V214.187ZM9.30373 210.035H23.5688L16.8994 199.799L16.4172 199.053L9.29895 210.04L9.30373 210.035Z" fill="#F7F7EB"/>
<rect x="6.60156" y="184.964" width="18.607" height="1.02273" fill="#F7F7EB"/>
<path d="M28.4576 306.377C29.2396 307.571 29.8261 308.377 30.2171 308.802C30.6081 309.221 31.0503 309.553 31.5391 309.797V310.129H26.6469V309.797C27.1403 309.488 27.3824 309.189 27.3824 308.903C27.3824 308.594 27.2241 308.207 26.9122 307.741L24.5011 304.026H8.41416L6.46846 307.045C5.90989 307.93 5.6306 308.585 5.6306 309.004C5.6306 309.313 5.82145 309.58 6.19849 309.802V310.134H1.53906V309.802C2.05109 309.58 2.47932 309.281 2.81447 308.908C3.14961 308.53 3.74077 307.691 4.59259 306.386L15.2846 290.088C14.861 289.6 14.3676 289.213 13.809 288.927V288.595H16.7602L28.4576 306.386V306.377ZM9.48475 302.326H23.3932L16.8905 292.338L16.4204 291.609L9.4801 302.33L9.48475 302.326Z" fill="#F7F7EB"/>
<path d="M29.2714 389.995C29.2667 389.938 29.2574 389.886 29.2527 389.829V382.916C29.2527 382.369 29.3651 381.966 29.5899 381.7C29.8147 381.433 30.2081 381.215 30.7701 381.034V380.692H25.7447V381.034C26.2599 381.215 26.6252 381.414 26.8407 381.633C27.0561 381.852 27.1732 382.198 27.1966 382.678V398.895L5.57766 380.692H2.30859V381.034C2.82378 381.196 3.19846 381.395 3.42327 381.633C3.64807 381.871 3.76984 382.232 3.79326 382.712V388.256H3.76048V389.592C3.76048 389.82 3.74174 390.019 3.70896 390.195V393.089C3.74174 393.269 3.76048 393.469 3.76048 393.697V394.999H3.79326V400.61C3.76984 401.066 3.64339 401.408 3.40453 401.636C3.17035 401.864 2.80504 402.059 2.30859 402.216V402.558H7.33397V402.216C6.81879 402.054 6.44411 401.864 6.2193 401.636C5.99449 401.408 5.87273 401.066 5.84931 400.61V383.567L28.7469 403H29.2527V393.659C29.2527 393.53 29.2574 393.407 29.2714 393.293V389.991V389.995Z" fill="#F7F7EB"/>
</svg>
