<svg width="200" height="200" viewBox="0 0 200 200" fill="none" xmlns="http://www.w3.org/2000/svg">
<g style="mix-blend-mode:difference">
<ellipse cx="1.68086" cy="1.68188" rx="1.68086" ry="1.68188" transform="matrix(0.991085 0.133231 -0.133375 0.991066 112.158 0)" fill="#F7F7EB" fill-opacity="0.1"/>
<ellipse cx="1.68086" cy="1.68188" rx="1.68086" ry="1.68188" transform="matrix(0.991064 0.133386 0.13322 -0.991086 85.332 199.547)" fill="#F7F7EB" fill-opacity="0.1"/>
<ellipse cx="1.68086" cy="1.68188" rx="1.68086" ry="1.68188" transform="matrix(0.991064 0.133386 -0.13322 0.991086 136.455 6.66406)" fill="#F7F7EB" fill-opacity="0.1"/>
<ellipse cx="1.68086" cy="1.68188" rx="1.68086" ry="1.68188" transform="matrix(0.991064 0.133386 0.13322 -0.991086 110.531 199.547)" fill="#F7F7EB" fill-opacity="0.1"/>
<ellipse cx="1.68086" cy="1.68188" rx="1.68086" ry="1.68188" transform="matrix(0.991085 0.133231 -0.133375 0.991066 86.9629 0.00390625)" fill="#F7F7EB" fill-opacity="0.1"/>
<ellipse cx="1.68086" cy="1.68188" rx="1.68086" ry="1.68188" transform="matrix(0.991064 0.133386 0.13322 -0.991086 61.0312 192.883)" fill="#F7F7EB" fill-opacity="0.1"/>
<ellipse cx="1.68086" cy="1.68188" rx="1.68086" ry="1.68188" transform="matrix(0.991064 0.133386 -0.13322 0.991086 61.4062 6.25781)" fill="#F7F7EB" fill-opacity="0.1"/>
<ellipse cx="1.68086" cy="1.68188" rx="1.68086" ry="1.68188" transform="matrix(0.991064 0.133386 0.13322 -0.991086 38.0371 180.094)" fill="#F7F7EB" fill-opacity="0.1"/>
<ellipse cx="1.68086" cy="1.68188" rx="1.68086" ry="1.68188" transform="matrix(0.991064 0.133386 -0.13322 0.991086 39.3066 19.2891)" fill="#F7F7EB" fill-opacity="0.1"/>
<ellipse cx="1.68086" cy="1.68188" rx="1.68086" ry="1.68188" transform="matrix(0.991064 0.133386 0.13322 -0.991086 20.166 161.688)" fill="#F7F7EB" fill-opacity="0.1"/>
<ellipse cx="1.68086" cy="1.68188" rx="1.68086" ry="1.68188" transform="matrix(0.991064 0.133386 -0.13322 0.991086 20.8418 37.6523)" fill="#F7F7EB" fill-opacity="0.1"/>
<ellipse cx="1.68086" cy="1.68188" rx="1.68086" ry="1.68188" transform="matrix(0.991064 0.133386 0.13322 -0.991086 7.21094 139.09)" fill="#F7F7EB" fill-opacity="0.1"/>
<ellipse cx="1.68086" cy="1.68188" rx="1.68086" ry="1.68188" transform="matrix(0.991064 0.133386 -0.13322 0.991086 7.10352 60.5312)" fill="#F7F7EB" fill-opacity="0.1"/>
<ellipse cx="1.68086" cy="1.68188" rx="1.68086" ry="1.68188" transform="matrix(0.991055 0.133457 0.133149 -0.991096 0 113.395)" fill="#F7F7EB" fill-opacity="0.1"/>
<ellipse cx="1.68086" cy="1.68188" rx="1.68086" ry="1.68188" transform="matrix(0.991064 0.133386 -0.13322 0.991086 0.578125 83.8945)" fill="#F7F7EB" fill-opacity="0.1"/>
<ellipse cx="1.68086" cy="1.68188" rx="1.68086" ry="1.68188" transform="matrix(0.991064 0.133386 -0.13322 0.991086 196.668 110.285)" fill="#F7F7EB" fill-opacity="0.1"/>
<ellipse cx="1.68086" cy="1.68188" rx="1.68086" ry="1.68188" transform="matrix(0.991064 0.133386 -0.13322 0.991086 159.453 19.457)" fill="#F7F7EB" fill-opacity="0.1"/>
<ellipse cx="1.68086" cy="1.68188" rx="1.68086" ry="1.68188" transform="matrix(0.991064 0.133386 0.13322 -0.991086 136.088 193.285)" fill="#F7F7EB" fill-opacity="0.1"/>
<ellipse cx="1.68086" cy="1.68188" rx="1.68086" ry="1.68188" transform="matrix(0.991064 0.133386 -0.13322 0.991086 177.803 37.9258)" fill="#F7F7EB" fill-opacity="0.1"/>
<ellipse cx="1.68086" cy="1.68188" rx="1.68086" ry="1.68188" transform="matrix(0.991064 0.133386 0.13322 -0.991086 158.662 180.332)" fill="#F7F7EB" fill-opacity="0.1"/>
<ellipse cx="1.68086" cy="1.68188" rx="1.68086" ry="1.68188" transform="matrix(0.991064 0.133386 -0.13322 0.991086 190.283 60.457)" fill="#F7F7EB" fill-opacity="0.1"/>
<ellipse cx="1.68086" cy="1.68188" rx="1.68086" ry="1.68188" transform="matrix(0.991064 0.133386 0.13322 -0.991086 176.648 161.902)" fill="#F7F7EB" fill-opacity="0.1"/>
<ellipse cx="1.68086" cy="1.68188" rx="1.68086" ry="1.68188" transform="matrix(0.991064 0.133386 -0.13322 0.991086 196.537 86.0273)" fill="#F7F7EB" fill-opacity="0.1"/>
<ellipse cx="1.68086" cy="1.68188" rx="1.68086" ry="1.68188" transform="matrix(0.991064 0.133386 0.13322 -0.991086 189.434 138.891)" fill="#F7F7EB" fill-opacity="0.1"/>
</g>
</svg>
