<svg width="29" height="22" viewBox="0 0 29 22" fill="none" xmlns="http://www.w3.org/2000/svg">
<path d="M27.4729 9.17487C27.4682 9.11864 27.4586 9.06709 27.4538 9.01086V2.19297C27.4538 1.6541 27.5684 1.2558 27.7974 0.993397C28.0265 0.73099 28.4273 0.515442 29 0.33738V0H23.8795V0.33738C24.4045 0.515442 24.7767 0.712247 24.9962 0.927795C25.2157 1.14334 25.335 1.48541 25.3589 1.95868V17.9514L3.33092 0H0V0.33738C0.52493 0.496698 0.9067 0.693503 1.13576 0.927795C1.36482 1.16209 1.48889 1.51821 1.51275 1.99148V7.45985H1.47935V8.77657C1.47935 9.00149 1.46026 9.1983 1.42686 9.37167V12.2253C1.46026 12.4034 1.47935 12.6002 1.47935 12.8251V14.1091H1.51275V19.643C1.48889 20.0929 1.36004 20.4302 1.11667 20.6552C0.878063 20.8801 0.505842 21.0722 0 21.2268V21.5642H5.12045V21.2268C4.59552 21.0675 4.21375 20.8801 3.98469 20.6552C3.75563 20.4302 3.63157 20.0929 3.60771 19.643V2.83493L26.9385 22H27.4538V12.7876C27.4538 12.6611 27.4586 12.5393 27.4729 12.4268V9.17018V9.17487Z" fill="#F7F7EB"/>
</svg>
