<svg width="1396" height="227" viewBox="0 0 1396 227" fill="none" xmlns="http://www.w3.org/2000/svg">
<g opacity="0.36" filter="url(#filter0_di_351_6403)">
<path d="M56.7839 226.64C47.2159 226.64 37.7519 225.392 28.3919 222.896C19.0319 220.4 9.56791 216.24 -9.41455e-05 210.416L-9.41455e-05 158.312H9.35991C11.0239 176.2 16.5359 189.928 25.8959 199.496C35.2559 209.064 47.5279 213.848 62.7119 213.848C76.4399 213.848 87.4639 210.104 95.7839 202.616C104.104 195.128 108.264 185.456 108.264 173.6C108.264 165.488 105.872 158.416 101.088 152.384C96.3039 146.144 88.0879 139.8 76.4399 133.352L41.8079 114.32C27.4559 106.416 17.1599 98.5115 10.9199 90.6075C4.88791 82.4955 1.87191 73.0315 1.87191 62.2155C1.87191 50.5675 5.09591 40.2715 11.5439 31.3275C17.9919 22.1755 26.7279 14.9995 37.7519 9.79951C48.9839 4.59952 61.7759 1.99952 76.1279 1.99952C84.6559 1.99952 92.9759 2.93552 101.088 4.80752C109.2 6.67952 117.416 9.69552 125.736 13.8555L125.736 53.1675H116.376C114.296 40.6875 109.304 31.2235 101.4 24.7755C93.4959 18.1195 82.9919 14.7915 69.8879 14.7915C56.5759 14.7915 45.9679 18.0155 38.0639 24.4635C30.3679 30.9115 26.5199 39.2315 26.5199 49.4235C26.5199 57.1195 28.9119 64.0875 33.6959 70.3275C38.4799 76.5675 45.5519 82.1835 54.9119 87.1755L91.1039 106.832C102.336 112.864 111.176 118.792 117.624 124.616C124.072 130.232 128.544 136.056 131.04 142.088C133.744 148.12 135.096 154.776 135.096 162.056C135.096 174.744 131.768 185.976 125.112 195.752C118.456 205.32 109.2 212.912 97.3439 218.528C85.6959 223.936 72.1759 226.64 56.7839 226.64ZM310.525 225.392C302.829 224.768 294.925 224.248 286.813 223.832C278.909 223.624 271.837 223.52 265.597 223.52H154.525V214.16L167.317 212.912C174.181 212.288 178.965 210.416 181.669 207.296C184.373 204.176 185.725 198.976 185.725 191.696L185.725 36.9435C185.725 29.6635 184.373 24.4635 181.669 21.3435C178.965 18.2235 174.181 16.3515 167.317 15.7275L154.525 14.4795V5.11952L266.221 5.11952C276.205 5.11952 284.525 5.01552 291.181 4.80752C298.045 4.39153 304.389 3.87153 310.213 3.24752L314.893 53.7915H305.533C302.621 40.0635 298.149 30.5995 292.117 25.3995C286.085 20.1995 276.621 17.5995 263.725 17.5995L215.053 17.5995L215.053 105.896L280.261 105.896C287.541 105.896 292.637 104.544 295.549 101.84C298.461 98.9275 300.229 93.6235 300.853 85.9275L301.477 77.8155H310.837L310.837 145.832H301.477L301.165 135.224C300.957 129.192 299.189 124.928 295.861 122.432C292.741 119.728 287.541 118.376 280.261 118.376L215.053 118.376V191.696C215.053 197.104 215.989 201.264 217.861 204.176C219.941 207.088 223.789 209.168 229.405 210.416C235.021 211.456 243.341 211.976 254.365 211.976C266.013 211.976 275.165 210.624 281.821 207.92C288.685 205.008 294.093 200.12 298.045 193.256C302.205 186.184 305.845 176.408 308.965 163.928H318.637L310.525 225.392ZM339.093 223.52V214.16L351.885 212.912C358.749 212.288 363.533 210.416 366.237 207.296C368.941 204.176 370.293 198.976 370.293 191.696L370.293 36.9435C370.293 29.6635 368.941 24.4635 366.237 21.3435C363.533 18.2235 358.749 16.3515 351.885 15.7275L339.093 14.4795V5.11952L433.005 5.11952C459.005 5.11952 478.453 9.69552 491.349 18.8475C504.245 27.9995 510.693 41.4155 510.693 59.0955C510.693 66.7915 508.925 74.4875 505.389 82.1835C502.061 89.6715 496.237 96.4315 487.917 102.464C479.597 108.288 468.053 112.448 453.285 114.944C464.101 118.064 472.941 123.056 479.805 129.92C486.669 136.576 492.181 145.52 496.341 156.752C500.501 167.776 503.829 181.4 506.325 197.624C507.157 202.824 508.717 206.776 511.005 209.48C513.293 211.976 516.933 213.432 521.925 213.848L525.981 214.16V223.52L504.453 223.52C494.261 223.52 487.189 221.648 483.237 217.904C479.493 214.16 476.789 207.608 475.125 198.248C472.421 182.232 468.781 168.296 464.205 156.44C459.629 144.376 453.701 135.12 446.421 128.672C439.141 122.016 430.093 118.688 419.277 118.688L399.621 118.688L399.621 191.696C399.621 198.976 400.973 204.28 403.677 207.608C406.381 210.728 411.165 212.496 418.029 212.912L433.941 214.16V223.52H339.093ZM399.621 106.52L427.389 106.52C442.781 106.52 455.157 102.152 464.517 93.4155C474.085 84.4715 478.869 73.3435 478.869 60.0315C478.869 46.5115 474.813 36.1115 466.701 28.8315C458.797 21.3435 446.837 17.5995 430.821 17.5995C419.381 17.5995 411.269 18.4315 406.485 20.0955C401.909 21.7595 399.621 24.6715 399.621 28.8315V106.52ZM625.479 225.08L553.719 45.9915C550.391 37.2555 547.271 30.8075 544.359 26.6475C541.655 22.2795 538.431 19.3675 534.687 17.9115C531.151 16.2475 526.471 15.1035 520.647 14.4795V5.11952L610.191 5.11952V14.4795L599.895 15.4155C591.991 16.2475 586.791 19.3675 584.295 24.7755C581.799 29.9755 582.215 37.0475 585.543 45.9915L638.583 182.648L690.687 45.9915C694.431 36.2155 695.159 28.8315 692.871 23.8395C690.583 18.6395 685.175 15.7275 676.647 15.1035L667.599 14.4795V5.11952L741.855 5.11952V14.4795C735.823 15.3115 730.727 16.7675 726.567 18.8475C722.615 20.7195 719.079 23.7355 715.959 27.8955C713.047 32.0555 710.031 38.0875 706.911 45.9915L635.775 225.08H625.479ZM744.79 223.52V214.16L757.582 212.912C762.782 212.288 766.63 211.144 769.126 209.48C771.83 207.816 773.598 205.528 774.43 202.616C775.47 199.704 775.99 196.064 775.99 191.696V36.9435C775.99 32.5755 775.47 28.9355 774.43 26.0235C773.598 23.1115 771.83 20.8235 769.126 19.1595C766.63 17.2875 762.782 16.1435 757.582 15.7275L744.79 14.4795V5.11952L836.518 5.11952V14.4795L823.726 15.7275C818.734 16.1435 814.886 17.2875 812.182 19.1595C809.478 20.8235 807.606 23.1115 806.566 26.0235C805.734 28.9355 805.318 32.5755 805.318 36.9435V191.696C805.318 196.064 805.734 199.704 806.566 202.616C807.606 205.528 809.478 207.816 812.182 209.48C814.886 211.144 818.734 212.288 823.726 212.912L836.518 214.16V223.52H744.79ZM966.269 226.64C942.765 226.64 922.277 221.96 904.805 212.6C887.333 203.032 873.813 190.032 864.245 173.6C854.885 157.168 850.205 138.448 850.205 117.44C850.205 101.632 853.013 86.7595 858.629 72.8235C864.453 58.8875 872.669 46.6155 883.277 36.0075C894.093 25.3995 906.989 17.0795 921.965 11.0475C936.941 5.01552 953.581 1.99952 971.885 1.99952C985.197 1.99952 997.677 3.35152 1009.32 6.05552C1021.18 8.55152 1033.66 13.0235 1046.76 19.4715V61.2795H1037.4C1033.45 45.2635 1024.92 33.6155 1011.82 26.3355C998.925 18.8475 983.949 15.1035 966.893 15.1035C948.797 15.1035 933.405 19.2635 920.717 27.5835C908.029 35.9035 898.357 47.1355 891.701 61.2795C885.045 75.4235 881.717 91.4395 881.717 109.328C881.717 122.016 883.589 134.6 887.333 147.08C891.285 159.352 897.005 170.584 904.493 180.776C911.981 190.76 921.237 198.768 932.261 204.8C943.285 210.624 956.077 213.536 970.637 213.536C981.037 213.536 990.189 212.392 998.093 210.104C1006 207.816 1012.86 202.928 1018.68 195.44C1024.72 187.744 1029.92 176.2 1034.28 160.808H1043.64V210.416C1028.88 216.24 1015.04 220.4 1002.15 222.896C989.253 225.392 977.293 226.64 966.269 226.64ZM1221.48 225.392C1213.78 224.768 1205.88 224.248 1197.77 223.832C1189.86 223.624 1182.79 223.52 1176.55 223.52H1065.48V214.16L1078.27 212.912C1085.14 212.288 1089.92 210.416 1092.62 207.296C1095.33 204.176 1096.68 198.976 1096.68 191.696V36.9435C1096.68 29.6635 1095.33 24.4635 1092.62 21.3435C1089.92 18.2235 1085.14 16.3515 1078.27 15.7275L1065.48 14.4795V5.11952L1177.18 5.11952C1187.16 5.11952 1195.48 5.01552 1202.14 4.80752C1209 4.39153 1215.34 3.87153 1221.17 3.24752L1225.85 53.7915H1216.49C1213.58 40.0635 1209.1 30.5995 1203.07 25.3995C1197.04 20.1995 1187.58 17.5995 1174.68 17.5995L1126.01 17.5995V105.896H1191.22C1198.5 105.896 1203.59 104.544 1206.5 101.84C1209.42 98.9275 1211.18 93.6235 1211.81 85.9275L1212.43 77.8155H1221.79V145.832H1212.43L1212.12 135.224C1211.91 129.192 1210.14 124.928 1206.82 122.432C1203.7 119.728 1198.5 118.376 1191.22 118.376H1126.01V191.696C1126.01 197.104 1126.94 201.264 1128.82 204.176C1130.9 207.088 1134.74 209.168 1140.36 210.416C1145.98 211.456 1154.3 211.976 1165.32 211.976C1176.97 211.976 1186.12 210.624 1192.78 207.92C1199.64 205.008 1205.05 200.12 1209 193.256C1213.16 186.184 1216.8 176.408 1219.92 163.928H1229.59L1221.48 225.392ZM1314.63 226.64C1305.06 226.64 1295.6 225.392 1286.24 222.896C1276.88 220.4 1267.42 216.24 1257.85 210.416V158.312H1267.21C1268.87 176.2 1274.38 189.928 1283.74 199.496C1293.1 209.064 1305.38 213.848 1320.56 213.848C1334.29 213.848 1345.31 210.104 1353.63 202.616C1361.95 195.128 1366.11 185.456 1366.11 173.6C1366.11 165.488 1363.72 158.416 1358.94 152.384C1354.15 146.144 1345.94 139.8 1334.29 133.352L1299.66 114.32C1285.3 106.416 1275.01 98.5115 1268.77 90.6075C1262.74 82.4955 1259.72 73.0315 1259.72 62.2155C1259.72 50.5675 1262.94 40.2715 1269.39 31.3275C1275.84 22.1755 1284.58 14.9995 1295.6 9.79951C1306.83 4.59952 1319.62 1.99952 1333.98 1.99952C1342.5 1.99952 1350.82 2.93552 1358.94 4.80752C1367.05 6.67952 1375.26 9.69552 1383.58 13.8555V53.1675H1374.22C1372.14 40.6875 1367.15 31.2235 1359.25 24.7755C1351.34 18.1195 1340.84 14.7915 1327.74 14.7915C1314.42 14.7915 1303.82 18.0155 1295.91 24.4635C1288.22 30.9115 1284.37 39.2315 1284.37 49.4235C1284.37 57.1195 1286.76 64.0875 1291.54 70.3275C1296.33 76.5675 1303.4 82.1835 1312.76 87.1755L1348.95 106.832C1360.18 112.864 1369.02 118.792 1375.47 124.616C1381.92 130.232 1386.39 136.056 1388.89 142.088C1391.59 148.12 1392.94 154.776 1392.94 162.056C1392.94 174.744 1389.62 185.976 1382.96 195.752C1376.3 205.32 1367.05 212.912 1355.19 218.528C1343.54 223.936 1330.02 226.64 1314.63 226.64Z" fill="white" fill-opacity="0.01" shape-rendering="crispEdges"/>
</g>
<defs>
<filter id="filter0_di_351_6403" x="0" y="0" width="1395.94" height="226.64" filterUnits="userSpaceOnUse" color-interpolation-filters="sRGB">
<feFlood flood-opacity="0" result="BackgroundImageFix"/>
<feColorMatrix in="SourceAlpha" type="matrix" values="0 0 0 0 0 0 0 0 0 0 0 0 0 0 0 0 0 0 127 0" result="hardAlpha"/>
<feOffset dx="2" dy="-1"/>
<feGaussianBlur stdDeviation="0.5"/>
<feComposite in2="hardAlpha" operator="out"/>
<feColorMatrix type="matrix" values="0 0 0 0 1 0 0 0 0 1 0 0 0 0 1 0 0 0 0.12 0"/>
<feBlend mode="normal" in2="BackgroundImageFix" result="effect1_dropShadow_351_6403"/>
<feBlend mode="normal" in="SourceGraphic" in2="effect1_dropShadow_351_6403" result="shape"/>
<feColorMatrix in="SourceAlpha" type="matrix" values="0 0 0 0 0 0 0 0 0 0 0 0 0 0 0 0 0 0 127 0" result="hardAlpha"/>
<feOffset dx="2" dy="-1"/>
<feGaussianBlur stdDeviation="1"/>
<feComposite in2="hardAlpha" operator="arithmetic" k2="-1" k3="1"/>
<feColorMatrix type="matrix" values="0 0 0 0 0 0 0 0 0 0 0 0 0 0 0 0 0 0 1 0"/>
<feBlend mode="normal" in2="shape" result="effect2_innerShadow_351_6403"/>
</filter>
</defs>
</svg>
