<svg preserveAspectRatio="none" width="632" height="166" viewBox="0 0 632 166" fill="none" xmlns="http://www.w3.org/2000/svg">
<g opacity="0.8" filter="url(#filter0_di_3166_3042)">
<path d="M72.6794 165.531L24.3794 33.5109C22.2327 27.3775 20.1627 22.7775 18.1694 19.7109C16.176 16.4909 13.7994 14.2675 11.0394 13.0408C8.27938 11.6608 4.59938 10.7408 -0.00062505 10.2809V3.38085H66.0094V10.2809L58.4194 10.7408C52.8994 11.0475 49.1427 13.1942 47.1494 17.1808C45.156 21.0142 45.386 26.4575 47.8394 33.5109L82.3394 134.251L115.459 35.5809C113.159 26.9942 110.476 20.8608 107.409 17.1808C104.496 13.3475 100.586 11.2009 95.6794 10.7408L90.3894 10.2809V3.38085H154.789V10.2809L147.199 10.7408C141.833 11.0475 138.153 13.0409 136.159 16.7209C134.319 20.4009 134.473 25.9975 136.619 33.5109L166.749 134.251L201.019 33.5109C203.626 25.8442 204.009 20.2475 202.169 16.7209C200.329 13.1942 196.343 11.2009 190.209 10.7408L183.539 10.2809V3.38085H238.969V10.2809C234.216 11.0475 230.306 12.1975 227.239 13.7309C224.173 15.2642 221.566 17.5642 219.419 20.6309C217.273 23.6975 215.203 27.9909 213.209 33.5109L166.519 165.531H157.089L118.909 46.1609L123.279 46.3909L82.1094 165.531H72.6794ZM234.7 164.381V157.481L244.13 156.561C247.963 156.101 250.8 155.258 252.64 154.031C254.633 152.804 255.937 151.118 256.55 148.971C257.317 146.824 257.7 144.141 257.7 140.921V26.8408C257.7 23.6209 257.317 20.9375 256.55 18.7909C255.937 16.6442 254.633 14.9575 252.64 13.7309C250.8 12.3509 247.963 11.5075 244.13 11.2009L234.7 10.2809V3.38085H302.32V10.2809L292.89 11.2009C289.21 11.5075 286.373 12.3509 284.38 13.7309C282.387 14.9575 281.007 16.6442 280.24 18.7909C279.627 20.9375 279.32 23.6209 279.32 26.8408V140.921C279.32 144.141 279.627 146.824 280.24 148.971C281.007 151.118 282.387 152.804 284.38 154.031C286.373 155.258 289.21 156.101 292.89 156.561L302.32 157.481V164.381H234.7ZM365.689 140.921V12.3509L341.309 13.2709C333.949 13.5775 328.199 14.5742 324.059 16.2608C320.072 17.9475 317.005 21.0142 314.859 25.4609C312.865 29.7542 311.179 36.0409 309.799 44.3209H302.669L304.739 2.00085C309.185 2.46086 314.322 2.84419 320.149 3.15085C326.129 3.30418 332.032 3.38085 337.859 3.38085H415.139C420.045 3.38085 425.489 3.30418 431.469 3.15085C437.602 2.84419 443.199 2.46086 448.259 2.00085L450.329 44.3209H443.199C441.819 36.0409 440.055 29.7542 437.909 25.4609C435.915 21.0142 432.849 17.9475 428.709 16.2608C424.722 14.5742 419.049 13.5775 411.689 13.2709L387.309 12.3509V140.921C387.309 144.448 387.769 147.361 388.689 149.661C389.609 151.808 391.295 153.418 393.749 154.491C396.355 155.564 399.882 156.331 404.329 156.791L411.459 157.481V164.381H341.539V157.481L348.669 156.791C353.269 156.331 356.795 155.564 359.249 154.491C361.702 153.418 363.389 151.808 364.309 149.661C365.229 147.361 365.689 144.448 365.689 140.921ZM561.192 164.381V157.481L570.622 156.561C574.456 156.101 577.292 155.258 579.132 154.031C581.126 152.804 582.429 151.118 583.042 148.971C583.809 146.824 584.192 144.141 584.192 140.921V26.8408C584.192 23.6209 583.809 20.9375 583.042 18.7909C582.429 16.6442 581.126 14.9575 579.132 13.7309C577.292 12.3509 574.456 11.5075 570.622 11.2009L561.192 10.2809V3.38085H628.812V10.2809L619.382 11.2009C615.702 11.5075 612.866 12.3509 610.872 13.7309C608.879 14.9575 607.499 16.6442 606.732 18.7909C606.119 20.9375 605.812 23.6209 605.812 26.8408V140.921C605.812 144.141 606.119 146.824 606.732 148.971C607.499 151.118 608.879 152.804 610.872 154.031C612.866 155.258 615.702 156.101 619.382 156.561L628.812 157.481V164.381H561.192ZM450.792 164.381V157.481L460.222 156.561C464.056 156.101 466.892 155.258 468.732 154.031C470.726 152.804 472.029 151.118 472.642 148.971C473.409 146.824 473.792 144.141 473.792 140.921V26.8408C473.792 23.6209 473.409 20.9375 472.642 18.7909C472.029 16.6442 470.726 14.9575 468.732 13.7309C466.892 12.3509 464.056 11.5075 460.222 11.2009L450.792 10.2809V3.38085H518.412V10.2809L508.982 11.2009C505.302 11.5075 502.466 12.3509 500.472 13.7309C498.479 14.9575 497.099 16.6442 496.332 18.7909C495.719 20.9375 495.412 23.6209 495.412 26.8408V140.921C495.412 144.141 495.719 146.824 496.332 148.971C497.099 151.118 498.479 152.804 500.472 154.031C502.466 155.258 505.302 156.101 508.982 156.561L518.412 157.481V164.381H450.792ZM485.292 84.1109V74.9109H592.012V84.1109H485.292Z" fill="white" fill-opacity="0.01" shape-rendering="crispEdges"/>
</g>
<defs>
<filter id="filter0_di_3166_3042" x="0" y="0" width="631.812" height="165.531" filterUnits="userSpaceOnUse" color-interpolation-filters="sRGB">
<feFlood flood-opacity="0" result="BackgroundImageFix"/>
<feColorMatrix in="SourceAlpha" type="matrix" values="0 0 0 0 0 0 0 0 0 0 0 0 0 0 0 0 0 0 127 0" result="hardAlpha"/>
<feOffset dx="2" dy="-1"/>
<feGaussianBlur stdDeviation="0.5"/>
<feComposite in2="hardAlpha" operator="out"/>
<feColorMatrix type="matrix" values="0 0 0 0 1 0 0 0 0 1 0 0 0 0 1 0 0 0 0.12 0"/>
<feBlend mode="normal" in2="BackgroundImageFix" result="effect1_dropShadow_3166_3042"/>
<feBlend mode="normal" in="SourceGraphic" in2="effect1_dropShadow_3166_3042" result="shape"/>
<feColorMatrix in="SourceAlpha" type="matrix" values="0 0 0 0 0 0 0 0 0 0 0 0 0 0 0 0 0 0 127 0" result="hardAlpha"/>
<feOffset dx="2" dy="-1"/>
<feGaussianBlur stdDeviation="1"/>
<feComposite in2="hardAlpha" operator="arithmetic" k2="-1" k3="1"/>
<feColorMatrix type="matrix" values="0 0 0 0 0 0 0 0 0 0 0 0 0 0 0 0 0 0 1 0"/>
<feBlend mode="normal" in2="shape" result="effect2_innerShadow_3166_3042"/>
</filter>
</defs>
</svg>
