<svg preserveAspectRatio="none" width="373" height="384" viewBox="0 0 373 384" fill="none" xmlns="http://www.w3.org/2000/svg">
<foreignObject x="-18" y="-16" width="407" height="416"><div xmlns="http://www.w3.org/1999/xhtml" style="backdrop-filter:blur(8px);clip-path:url(#bgblur_0_1056_15950_clip_path);height:100%;width:100%"></div></foreignObject><path data-figma-bg-blur-radius="16" d="M373 384H-2V0H373V384ZM352 356C348.686 356 346 358.686 346 362C346 365.314 348.686 368 352 368C355.314 368 358 365.314 358 362C358 358.686 355.314 356 352 356ZM352 186C348.686 186 346 188.686 346 192C346 195.314 348.686 198 352 198C355.314 198 358 195.314 358 192C358 188.686 355.314 186 352 186ZM352 16C348.686 16 346 18.6863 346 22C346 25.3137 348.686 28 352 28C355.314 28 358 25.3137 358 22C358 18.6863 355.314 16 352 16Z" fill="#F7F7EB"/>
<defs>
<clipPath id="bgblur_0_1056_15950_clip_path" transform="translate(18 16)"><path d="M373 384H-2V0H373V384ZM352 356C348.686 356 346 358.686 346 362C346 365.314 348.686 368 352 368C355.314 368 358 365.314 358 362C358 358.686 355.314 356 352 356ZM352 186C348.686 186 346 188.686 346 192C346 195.314 348.686 198 352 198C355.314 198 358 195.314 358 192C358 188.686 355.314 186 352 186ZM352 16C348.686 16 346 18.6863 346 22C346 25.3137 348.686 28 352 28C355.314 28 358 25.3137 358 22C358 18.6863 355.314 16 352 16Z"/>
</clipPath></defs>
</svg>
