<svg   preserveAspectRatio="none" width="528" height="720" viewBox="0 0 528 720" fill="none" xmlns="http://www.w3.org/2000/svg">
<path d="M528 720H0V0H528V720ZM30 684C26.6863 684 24 686.686 24 690C24 693.314 26.6863 696 30 696C33.3137 696 36 693.314 36 690C36 686.686 33.3137 684 30 684ZM30 354C26.6863 354 24 356.686 24 360C24 363.314 26.6863 366 30 366C33.3137 366 36 363.314 36 360C36 356.686 33.3137 354 30 354ZM498 354C494.686 354 492 356.686 492 360C492 363.314 494.686 366 498 366C501.314 366 504 363.314 504 360C504 356.686 501.314 354 498 354ZM30 24C26.6863 24 24 26.6863 24 30C24 33.3137 26.6863 36 30 36C33.3137 36 36 33.3137 36 30C36 26.6863 33.3137 24 30 24Z" fill="#F7F7EB"/>
</svg>
