<svg preserveAspectRatio="none" width="720" height="384" viewBox="0 0 720 384" fill="none" xmlns="http://www.w3.org/2000/svg">
<path d="M720 384H0V0H720V384ZM690 348C686.686 348 684 350.686 684 354C684 357.314 686.686 360 690 360C693.314 360 696 357.314 696 354C696 350.686 693.314 348 690 348ZM690 40C686.686 40 684 42.6863 684 46C684 49.3137 686.686 52 690 52C693.314 52 696 49.3137 696 46C696 42.6863 693.314 40 690 40ZM690 24C686.686 24 684 26.6863 684 30C684 33.3137 686.686 36 690 36C693.314 36 696 33.3137 696 30C696 26.6863 693.314 24 690 24Z" fill="#F7F7EB"/>
</svg>
