<svg width="300" height="413" viewBox="0 0 300 413" fill="none" xmlns="http://www.w3.org/2000/svg">
<path d="M300 413H0V0H300V413ZM150 385C146.686 385 144 387.686 144 391C144 394.314 146.686 397 150 397C153.314 397 156 394.314 156 391C156 387.686 153.314 385 150 385ZM22 201C18.6863 201 16 203.686 16 207C16 210.314 18.6863 213 22 213C25.3137 213 28 210.314 28 207C28 203.686 25.3137 201 22 201ZM278 201C274.686 201 272 203.686 272 207C272 210.314 274.686 213 278 213C281.314 213 284 210.314 284 207C284 203.686 281.314 201 278 201ZM150 16C146.686 16 144 18.6863 144 22C144 25.3137 146.686 28 150 28C153.314 28 156 25.3137 156 22C156 18.6863 153.314 16 150 16Z" fill="#F7F7EB"/>
</svg>
