<svg width="400" height="492" viewBox="0 0 400 492" fill="none" xmlns="http://www.w3.org/2000/svg">
<path d="M400 492H0V0H400V492ZM200 456C196.686 456 194 458.686 194 462C194 465.314 196.686 468 200 468C203.314 468 206 465.314 206 462C206 458.686 203.314 456 200 456ZM30 240C26.6863 240 24 242.686 24 246C24 249.314 26.6863 252 30 252C33.3137 252 36 249.314 36 246C36 242.686 33.3137 240 30 240ZM368 240C364.686 240 362 242.686 362 246C362 249.314 364.686 252 368 252C371.314 252 374 249.314 374 246C374 242.686 371.314 240 368 240ZM200 24C196.686 24 194 26.6863 194 30C194 33.3137 196.686 36 200 36C203.314 36 206 33.3137 206 30C206 26.6863 203.314 24 200 24Z" fill="#F7F7EB"/>
</svg>
