<svg width="360" height="720" viewBox="0 0 360 720" fill="none" xmlns="http://www.w3.org/2000/svg">
<path d="M360 720H0V0H360V720ZM330 76C326.686 76 324 78.6863 324 82C324 85.3137 326.686 88 330 88C333.314 88 336 85.3137 336 82C336 78.6863 333.314 76 330 76ZM330 40C326.686 40 324 42.6863 324 46C324 49.3137 326.686 52 330 52C333.314 52 336 49.3137 336 46C336 42.6863 333.314 40 330 40ZM330 24C326.686 24 324 26.6863 324 30C324 33.3137 326.686 36 330 36C333.314 36 336 33.3137 336 30C336 26.6863 333.314 24 330 24Z" fill="#3A1A29"/>
<path d="M360 720H0V0H360V720ZM330 76C326.686 76 324 78.6863 324 82C324 85.3137 326.686 88 330 88C333.314 88 336 85.3137 336 82C336 78.6863 333.314 76 330 76ZM330 40C326.686 40 324 42.6863 324 46C324 49.3137 326.686 52 330 52C333.314 52 336 49.3137 336 46C336 42.6863 333.314 40 330 40ZM330 24C326.686 24 324 26.6863 324 30C324 33.3137 326.686 36 330 36C333.314 36 336 33.3137 336 30C336 26.6863 333.314 24 330 24Z" fill="url(#paint0_radial_515_4890)"/>
<defs>
<radialGradient id="paint0_radial_515_4890" cx="0" cy="0" r="1" gradientTransform="matrix(-240 510.035 -255.018 -346.848 360 -1.2203e-06)" gradientUnits="userSpaceOnUse">
<stop stop-color="#592D42"/>
<stop offset="1" stop-color="#3A1A29"/>
</radialGradient>
</defs>
</svg>
