<svg width="383" height="505" viewBox="0 0 383 505" fill="none" xmlns="http://www.w3.org/2000/svg">
<path d="M383 505H0V0H383V505ZM30 469C26.6863 469 24 471.686 24 475C24 478.314 26.6863 481 30 481C33.3137 481 36 478.314 36 475C36 471.686 33.3137 469 30 469ZM30 247C26.6863 247 24 249.686 24 253C24 256.314 26.6863 259 30 259C33.3137 259 36 256.314 36 253C36 249.686 33.3137 247 30 247ZM353 247C349.686 247 347 249.686 347 253C347 256.314 349.686 259 353 259C356.314 259 359 256.314 359 253C359 249.686 356.314 247 353 247ZM30 24C26.6863 24 24 26.6863 24 30C24 33.3137 26.6863 36 30 36C33.3137 36 36 33.3137 36 30C36 26.6863 33.3137 24 30 24Z" fill="#3A1A29"/>
</svg>
