<svg width="121" height="32" viewBox="0 0 121 32" fill="none" xmlns="http://www.w3.org/2000/svg">
<g clip-path="url(#clip0_340_3024)">
<g filter="url(#filter0_di_340_3024)">
<path d="M35.6197 0.917236C28.6587 0.966821 22.9648 8.67499 22.9648 15.3983C22.9648 22.4734 27.1387 31.104 35.6197 31.076C44.1007 31.048 48.5026 21.7564 48.5026 15.3983C48.5026 8.3752 42.5807 0.867653 35.6197 0.917236ZM35.6197 1.18095C41.4457 1.18095 43.0175 7.59175 43.0175 15.3983C43.0175 25.6988 41.1215 30.7806 35.6197 30.7709C30.1178 30.7613 28.328 26.602 28.328 15.3983C28.328 8.38001 29.7936 1.18095 35.6197 1.18095Z" fill="#F7F7EB"/>
<path d="M50.8048 15.5847C50.7736 7.93464 56.9189 1.15816 62.121 0.821949C64 0.689314 66.4154 1.54664 67.8256 2.15737C68.8495 2.60085 70.9398 1.95892 71.3109 0.78125H71.5134V11.2021H71.3109C71.3109 10.7578 69.374 1.08395 62.121 1.08395C56.7637 1.08395 56.2462 10.4694 56.2462 15.5847C56.2462 20.7 56.4022 30.8265 62.654 30.8265C65.6825 30.8265 67.9242 29.5064 68.5053 26.8358V18.7153H65.9632V18.3693H75.8167V18.7153H73.3863V30.5874H73.1885C73.1885 30.5874 72.7934 28.8744 70.7885 28.8801C68.226 28.8874 65.8094 31.1055 62.8636 31.0785C55.073 31.0071 50.836 23.2348 50.8048 15.5847Z" fill="#F7F7EB"/>
<path d="M3.8532 1.94126H0.785156V1.59766H11.5327V1.94126H8.8364L16.5158 22.7194C18.9172 15.3535 20.7775 9.90863 23.2809 1.94126H20.614V1.59766H26.2887V1.94126H23.7045L14.371 30.9308L3.8532 1.94126Z" fill="#F7F7EB"/>
<path d="M77.3146 23.834L77.266 1.90851H74.3457V1.58008H85.1048V1.90851H82.1861L82.251 25.9487C82.8971 28.7015 84.0458 30.7902 87.9704 30.8213C91.895 30.8524 94.563 28.5082 95.5545 25.3046V1.90851H92.2138L92.2138 1.58975H119.557L119.614 12.1149H119.351C118.844 5.3192 116.212 2.75092 111.609 2.00166C110.026 1.74384 108.364 1.93497 106.263 1.9187V15.3515C108.093 15.4923 110.041 15.3771 111.354 14.2535C112.548 13.2318 112.886 10.8711 112.973 9.9121H113.204V21.6079H112.954C112.882 21.6079 112.786 18.6729 111.354 17.2804C109.913 15.8788 108.077 15.5342 106.263 15.8682V30.2174C108.826 30.2174 110.868 30.4336 112.641 29.9491C118.033 28.4765 119.93 23.945 119.916 19.4H120.216V30.5571H98.7683V30.2174H101.193V1.90851H95.9538V25.3046C95.36 27.5432 93.1895 31.2466 87.6271 31.2213C82.4552 31.1978 77.3258 28.8748 77.3146 23.834Z" fill="#F7F7EB"/>
</g>
</g>
<defs>
<filter id="filter0_di_340_3024" x="0.785156" y="-1.21875" width="121.43" height="32.4404" filterUnits="userSpaceOnUse" color-interpolation-filters="sRGB">
<feFlood flood-opacity="0" result="BackgroundImageFix"/>
<feColorMatrix in="SourceAlpha" type="matrix" values="0 0 0 0 0 0 0 0 0 0 0 0 0 0 0 0 0 0 127 0" result="hardAlpha"/>
<feOffset dx="1" dy="-1"/>
<feGaussianBlur stdDeviation="0.5"/>
<feComposite in2="hardAlpha" operator="out"/>
<feColorMatrix type="matrix" values="0 0 0 0 1 0 0 0 0 1 0 0 0 0 1 0 0 0 0.72 0"/>
<feBlend mode="normal" in2="BackgroundImageFix" result="effect1_dropShadow_340_3024"/>
<feBlend mode="normal" in="SourceGraphic" in2="effect1_dropShadow_340_3024" result="shape"/>
<feColorMatrix in="SourceAlpha" type="matrix" values="0 0 0 0 0 0 0 0 0 0 0 0 0 0 0 0 0 0 127 0" result="hardAlpha"/>
<feOffset dx="1" dy="-1"/>
<feGaussianBlur stdDeviation="0.5"/>
<feComposite in2="hardAlpha" operator="arithmetic" k2="-1" k3="1"/>
<feColorMatrix type="matrix" values="0 0 0 0 0 0 0 0 0 0 0 0 0 0 0 0 0 0 0.12 0"/>
<feBlend mode="normal" in2="shape" result="effect2_innerShadow_340_3024"/>
</filter>
<clipPath id="clip0_340_3024">
<rect width="121" height="32" fill="white"/>
</clipPath>
</defs>
</svg>
