<svg width="79" height="48" viewBox="0 0 79 48" fill="none" xmlns="http://www.w3.org/2000/svg">
<g clip-path="url(#clip0_340_2887)">
<path d="M0.5008 16.2584H10.6656V48H0.5008V16.2584ZM5.592 11.168C2.504 11.1688 0 8.6688 0 5.5848C0 2.5 2.504 0 5.592 0C8.6816 0 11.1856 2.5 11.1856 5.584C11.1856 8.6688 8.6816 11.1688 5.5928 11.1688L5.592 11.168ZM18.3064 18.28H31.596V28.488H18.3072V18.28H18.3064ZM78.0888 24.7064C78.0888 34.94 69.524 47.5808 55.5424 47.9912H38.9896V1.532H55.544C69.5256 2.3528 78.0904 14.6112 78.0904 24.708L78.0888 24.7064ZM53.9016 38.8528L55.5432 38.8256C64.4632 38.4424 68.9232 30.8632 68.9232 24.7896C68.9232 18.7152 64.4632 11.136 55.5432 10.7256H48.32V38.8536L53.9016 38.8528Z" fill="#F7F7EB"/>
</g>
<defs>
<clipPath id="clip0_340_2887">
<rect width="78.4" height="48" fill="white"/>
</clipPath>
</defs>
</svg>
