<svg width="120" height="86" viewBox="0 0 120 86" fill="none" xmlns="http://www.w3.org/2000/svg">
<path fill-rule="evenodd" clip-rule="evenodd" d="M60 0.51637C26.8796 0.51637 0.514829 14.1481 0.514829 30.6794C0.514829 47.2108 26.8789 60.8432 60 60.8432C93.1204 60.8432 119.485 47.2115 119.485 30.6794C119.485 14.1474 93.1204 0.51637 60 0.51637ZM60 0C93.0562 0 120 13.6091 120 30.6801C120 47.7518 93.0562 61.3603 60 61.3603C26.9438 61.3603 0 47.7518 0 30.6801C0 13.6091 26.9438 0 60 0Z" fill="#F1F1F1"/>
<path fill-rule="evenodd" clip-rule="evenodd" d="M113.972 30.6832C113.972 19.923 93.8066 6.05092 60.0007 6.05092C26.1948 6.05092 6.03045 19.923 6.03045 30.6832C6.03045 41.4434 26.1948 55.3155 60.0007 55.3155C93.8066 55.3155 113.972 41.4434 113.972 30.6832ZM114.486 30.6832C114.486 41.9776 93.752 55.8319 60.0007 55.8319C26.2501 55.8319 5.51562 41.9783 5.51562 30.6832C5.51562 19.3882 26.2508 5.53455 60.0007 5.53455C93.752 5.53455 114.486 19.3889 114.486 30.6832ZM61.3786 3.02735C61.3844 3.21259 61.353 3.39712 61.2864 3.56996C61.2197 3.74281 61.1191 3.90047 60.9905 4.03356C60.8619 4.16666 60.708 4.27248 60.5378 4.34475C60.3677 4.41701 60.1848 4.45425 60 4.45425C59.8152 4.45425 59.6323 4.41701 59.4622 4.34475C59.292 4.27248 59.1381 4.16666 59.0095 4.03356C58.8809 3.90047 58.7803 3.74281 58.7136 3.56996C58.647 3.39712 58.6156 3.21259 58.6214 3.02735C58.6327 2.66817 58.7829 2.32749 59.0402 2.07741C59.2975 1.82734 59.6417 1.6875 60 1.6875C60.3583 1.6875 60.7025 1.82734 60.9598 2.07741C61.2171 2.32749 61.3673 2.66817 61.3786 3.02735ZM56.8257 3.0657C56.8372 3.25026 56.8117 3.43526 56.7507 3.60977C56.6898 3.78427 56.5945 3.94475 56.4707 4.08171C56.3468 4.21866 56.1968 4.32932 56.0295 4.40714C55.8623 4.48495 55.6812 4.52835 55.4969 4.53476C55.3127 4.54117 55.129 4.51046 54.9568 4.44446C54.7846 4.37845 54.6273 4.27849 54.4943 4.15047C54.3612 4.02245 54.2551 3.86898 54.1822 3.69913C54.1094 3.52928 54.0712 3.34649 54.0699 3.16158C54.0675 2.80138 54.2052 2.45443 54.4539 2.1945C54.7025 1.93457 55.0424 1.78216 55.4013 1.76967C55.7602 1.75718 56.1099 1.8856 56.3758 2.12763C56.6418 2.36966 56.8032 2.7062 56.8257 3.0657ZM52.2769 3.27937C52.2942 3.46308 52.2747 3.64839 52.2195 3.82442C52.1643 4.00044 52.0745 4.16361 51.9555 4.30432C51.8365 4.44503 51.6906 4.56043 51.5265 4.64375C51.3623 4.72706 51.1832 4.77659 50.9997 4.78943C50.8162 4.80227 50.632 4.77815 50.4579 4.7185C50.2838 4.65885 50.1233 4.56487 49.986 4.44209C49.8487 4.31931 49.7372 4.17022 49.6582 4.00358C49.5792 3.83695 49.5342 3.65615 49.5259 3.47181C49.5097 3.11116 49.6346 2.75842 49.8742 2.48892C50.1137 2.21942 50.4487 2.0545 50.8078 2.02938C51.1669 2.00427 51.5215 2.12093 51.796 2.35448C52.0705 2.58803 52.2431 2.91995 52.2769 3.27937ZM47.7377 3.65467C47.7598 3.83498 47.7462 4.0179 47.6979 4.19298C47.6495 4.36806 47.5672 4.53186 47.4557 4.67504C47.3442 4.81822 47.2057 4.93797 47.0481 5.02746C46.8904 5.11695 46.7168 5.17441 46.537 5.19658C46.3572 5.21875 46.1748 5.20519 46.0003 5.15666C45.8257 5.10814 45.6624 5.02561 45.5196 4.91378C45.3769 4.80195 45.2575 4.66301 45.1683 4.50491C45.0791 4.3468 45.0218 4.17261 44.9997 3.99229C44.955 3.62812 45.0564 3.26108 45.2816 2.97192C45.5068 2.68275 45.8373 2.49515 46.2003 2.45038C46.5634 2.4056 46.9294 2.50733 47.2177 2.73318C47.506 2.95903 47.693 3.2905 47.7377 3.65467Z" fill="#F1F1F1"/>
<path fill-rule="evenodd" clip-rule="evenodd" d="M43.2186 4.24093C43.2491 4.42119 43.2436 4.60571 43.2025 4.78383C43.1614 4.96194 43.0855 5.13011 42.9791 5.27861C42.8728 5.4271 42.7382 5.55297 42.583 5.64892C42.4278 5.74488 42.2553 5.80902 42.0752 5.83764C41.8952 5.86626 41.7113 5.85878 41.5342 5.81564C41.357 5.7725 41.1902 5.69455 41.0433 5.58631C40.8964 5.47807 40.7723 5.34168 40.6783 5.18504C40.5843 5.0284 40.5222 4.85462 40.4956 4.67375C40.4427 4.31351 40.5335 3.94684 40.7485 3.65338C40.9634 3.35991 41.2851 3.16334 41.6437 3.10634C42.0023 3.04934 42.3688 3.13653 42.6637 3.34896C42.9585 3.56139 43.158 3.88191 43.2186 4.24093ZM38.7306 5.01412C38.7698 5.19244 38.7734 5.37678 38.7412 5.5565C38.709 5.73623 38.6417 5.90778 38.5431 6.06128C38.4445 6.21477 38.3165 6.34716 38.1666 6.45081C38.0168 6.55447 37.8479 6.62734 37.6698 6.66522C37.4917 6.70309 37.3079 6.70523 37.129 6.67151C36.9501 6.63778 36.7796 6.56886 36.6273 6.46872C36.4751 6.36858 36.3441 6.2392 36.242 6.08804C36.1398 5.93688 36.0685 5.76694 36.0322 5.58801C35.9596 5.23038 36.0308 4.85846 36.2304 4.55327C36.4299 4.24808 36.7416 4.03435 37.0976 3.95864C37.4536 3.88294 37.825 3.95139 38.1308 4.14908C38.4367 4.34678 38.6523 4.65771 38.7306 5.01412ZM34.2849 6.00508C34.3374 6.18223 34.3539 6.36813 34.3335 6.55179C34.3131 6.73545 34.2563 6.91316 34.1663 7.07441C34.0763 7.23567 33.955 7.37721 33.8096 7.49068C33.6642 7.60415 33.4976 7.68724 33.3196 7.73506C33.1416 7.78288 32.9559 7.79445 32.7734 7.76908C32.5909 7.74372 32.4153 7.68194 32.257 7.5874C32.0987 7.49285 31.9609 7.36744 31.8517 7.21859C31.7426 7.06974 31.6642 6.90046 31.6213 6.72074C31.5377 6.37017 31.5938 6.00071 31.7777 5.69101C31.9616 5.3813 32.2587 5.15581 32.6058 5.06254C32.953 4.96927 33.3227 5.01558 33.6363 5.19162C33.9499 5.36766 34.1827 5.65953 34.2849 6.00508ZM29.898 7.23163C29.954 7.40426 29.9755 7.58626 29.9614 7.76724C29.9473 7.94822 29.8977 8.12464 29.8156 8.28642C29.7335 8.4482 29.6204 8.59218 29.4828 8.71013C29.3453 8.82808 29.1859 8.9177 29.0138 8.97386C28.8416 9.03003 28.6602 9.05164 28.4797 9.03747C28.2993 9.02329 28.1234 8.97361 27.9621 8.89126C27.8008 8.8089 27.6573 8.69549 27.5397 8.55749C27.4221 8.4195 27.3327 8.25962 27.2767 8.08699C27.1636 7.73835 27.1933 7.35893 27.3591 7.0322C27.5249 6.70547 27.8133 6.45819 28.1609 6.34476C28.5085 6.23133 28.8868 6.26105 29.2126 6.42737C29.5383 6.59369 29.7849 6.88299 29.898 7.23163ZM25.5923 8.71567C25.663 8.88635 25.6989 9.06951 25.6978 9.25433C25.6968 9.43915 25.6588 9.62189 25.5862 9.79175C25.5136 9.96161 25.4077 10.1152 25.275 10.2433C25.1422 10.3715 24.9851 10.4716 24.8131 10.5379C24.6411 10.6042 24.4576 10.6352 24.2734 10.6291C24.0892 10.6231 23.9081 10.5801 23.7408 10.5027C23.5735 10.4252 23.4233 10.315 23.2992 10.1784C23.1751 10.0418 23.0795 9.88159 23.0181 9.70732C22.8984 9.36751 22.9157 8.99426 23.0662 8.667C23.2167 8.33975 23.4886 8.08433 23.8241 7.95511C24.1595 7.82589 24.532 7.83307 24.8622 7.97512C25.1924 8.11716 25.4544 8.38286 25.5923 8.71567ZM21.3753 10.4415C21.4605 10.6053 21.5121 10.7847 21.527 10.9688C21.5419 11.153 21.5199 11.3384 21.4623 11.5139C21.4046 11.6894 21.3125 11.8516 21.1913 11.9908C21.0701 12.13 20.9224 12.2434 20.7568 12.3244C20.5912 12.4054 20.4111 12.4523 20.2271 12.4623C20.0431 12.4723 19.859 12.4453 19.6856 12.3828C19.5122 12.3202 19.3531 12.2235 19.2176 12.0983C19.0821 11.973 18.973 11.8219 18.8968 11.6536C18.748 11.3255 18.7328 10.9521 18.8544 10.6129C18.976 10.2737 19.2248 9.99553 19.5478 9.83756C19.8708 9.67958 20.2426 9.65429 20.5839 9.76709C20.9252 9.87988 21.2092 10.1218 21.3753 10.4415ZM17.3059 12.4926C17.402 12.6484 17.4662 12.8217 17.495 13.0027C17.5237 13.1836 17.5164 13.3684 17.4733 13.5465C17.4303 13.7245 17.3524 13.8922 17.2442 14.0398C17.136 14.1874 16.9997 14.312 16.8431 14.4063C16.6865 14.5007 16.5128 14.5628 16.3321 14.5893C16.1514 14.6158 15.9672 14.6059 15.7902 14.5604C15.6133 14.5149 15.4472 14.4346 15.3014 14.3241C15.1557 14.2137 15.0333 14.0753 14.9413 13.917C14.7587 13.6028 14.7068 13.229 14.7969 12.8767C14.8871 12.5244 15.1119 12.2218 15.4228 12.0345C15.7337 11.8472 16.1056 11.7903 16.458 11.876C16.8105 11.9617 17.115 12.1832 17.3059 12.4926ZM13.4487 14.9196C13.5631 15.066 13.6468 15.234 13.695 15.4135C13.7431 15.5931 13.7547 15.7805 13.729 15.9647C13.7033 16.1488 13.6409 16.3259 13.5454 16.4852C13.45 16.6446 13.3234 16.7831 13.1734 16.8923C13.0234 17.0016 12.853 17.0794 12.6723 17.121C12.4917 17.1627 12.3045 17.1675 12.122 17.135C11.9394 17.1025 11.7653 17.0334 11.61 16.9318C11.4547 16.8303 11.3214 16.6984 11.218 16.5441C11.019 16.2468 10.9427 15.8836 11.0051 15.531C11.0675 15.1784 11.2638 14.8639 11.5528 14.6535C11.8417 14.443 12.2007 14.3532 12.5543 14.4029C12.9079 14.4525 13.2285 14.6378 13.4487 14.9196ZM9.84699 17.7172C9.97503 17.8456 10.0766 17.9981 10.1459 18.1659C10.2152 18.3337 10.2509 18.5135 10.2509 18.6952C10.2509 18.8768 10.2152 19.0566 10.1459 19.2244C10.0766 19.3922 9.97503 19.5447 9.84699 19.6731C9.71895 19.8015 9.56694 19.9034 9.39964 19.9729C9.23235 20.0424 9.05304 20.0782 8.87196 20.0782C8.69088 20.0782 8.51157 20.0424 8.34427 19.9729C8.17698 19.9034 8.02497 19.8015 7.89693 19.6731C7.63833 19.4137 7.49306 19.062 7.49306 18.6952C7.49306 18.3284 7.63833 17.9766 7.89693 17.7172C8.15552 17.4578 8.50625 17.3121 8.87196 17.3121C9.23767 17.3121 9.5884 17.4578 9.84699 17.7172ZM6.71842 21.0373C6.8728 21.1389 7.00527 21.2705 7.10798 21.4244C7.21069 21.5783 7.28155 21.7513 7.31637 21.9331C7.35118 22.115 7.34923 22.302 7.31064 22.4831C7.27206 22.6642 7.19761 22.8357 7.09172 22.9874C6.98583 23.1391 6.85065 23.2679 6.69419 23.3663C6.53774 23.4646 6.36319 23.5304 6.18091 23.5598C5.99862 23.5892 5.8123 23.5816 5.63299 23.5375C5.45369 23.4933 5.28505 23.4135 5.13707 23.3028C4.84966 23.0877 4.65707 22.7688 4.60012 22.4137C4.54317 22.0586 4.62634 21.6952 4.832 21.4006C5.03766 21.106 5.34964 20.9032 5.70179 20.8354C6.05395 20.7676 6.4186 20.84 6.71842 21.0373ZM4.26582 24.8957C4.6117 25.0151 4.89611 25.2675 5.05649 25.5972C5.21688 25.927 5.24009 26.3071 5.12102 26.654C5.00196 27.0009 4.75037 27.2862 4.4216 27.4471C4.09283 27.6079 3.71382 27.6312 3.36794 27.5118C3.02206 27.3924 2.73765 27.14 2.57727 26.8103C2.49785 26.647 2.45128 26.4696 2.44021 26.2883C2.42914 26.107 2.45379 25.9252 2.51274 25.7535C2.5717 25.5817 2.66381 25.4232 2.78381 25.2872C2.90382 25.1511 3.04937 25.0401 3.21216 24.9604C3.54093 24.7996 3.91994 24.7763 4.26582 24.8957ZM61.3769 58.3316C61.3769 58.6985 61.2316 59.0504 60.9729 59.3098C60.7143 59.5693 60.3635 59.715 59.9977 59.715C59.6319 59.715 59.281 59.5693 59.0224 59.3098C58.7637 59.0504 58.6184 58.6985 58.6184 58.3316C58.6184 57.9647 58.7637 57.6129 59.0224 57.3534C59.281 57.094 59.6319 56.9482 59.9977 56.9482C60.3635 56.9482 60.7143 57.094 60.9729 57.3534C61.2316 57.6129 61.3769 57.9647 61.3769 58.3316ZM56.8227 58.2933C56.8098 58.6598 56.6523 59.0062 56.3848 59.2563C56.1173 59.5063 55.7617 59.6395 55.3963 59.6266C55.0309 59.6138 54.6855 59.4558 54.4362 59.1875C54.1869 58.9192 54.054 58.5626 54.0669 58.196C54.0798 57.8295 54.2373 57.4831 54.5047 57.233C54.7722 56.983 55.1278 56.8497 55.4933 56.8626C55.8587 56.8755 56.2041 57.0335 56.4534 57.3018C56.7027 57.5701 56.8355 57.9267 56.8227 58.2933ZM52.2739 58.0796C52.2627 58.2618 52.2156 58.44 52.1354 58.6038C52.0552 58.7677 51.9435 58.914 51.8066 59.0344C51.6697 59.1547 51.5104 59.2466 51.338 59.3049C51.1655 59.3632 50.9832 59.3866 50.8016 59.3739C50.6201 59.3611 50.4428 59.3124 50.2801 59.2306C50.1174 59.1488 49.9725 59.0355 49.8537 58.8972C49.7348 58.7589 49.6445 58.5984 49.5878 58.425C49.5312 58.2515 49.5093 58.0685 49.5236 57.8865C49.552 57.5229 49.7225 57.1853 49.9979 56.9472C50.2734 56.7091 50.6315 56.5898 50.9942 56.6152C51.3569 56.6407 51.6949 56.8089 51.9346 57.0832C52.1743 57.3574 52.2962 57.7156 52.2739 58.0796ZM47.7353 57.7043C47.7166 57.8873 47.6616 58.0648 47.5736 58.2262C47.4857 58.3877 47.3665 58.5299 47.223 58.6446C47.0796 58.7593 46.9148 58.8441 46.7383 58.8941C46.5617 58.9441 46.377 58.9583 46.195 58.9359C46.0129 58.9134 45.8371 58.8547 45.6779 58.7633C45.5188 58.6719 45.3794 58.5495 45.2679 58.4034C45.1564 58.2573 45.0751 58.0903 45.0288 57.9123C44.9825 57.7343 44.972 57.5488 44.998 57.3667C45.0492 57.0082 45.2385 56.6842 45.5252 56.4641C45.812 56.2441 46.1733 56.1456 46.5317 56.1898C46.89 56.234 47.2168 56.4174 47.4418 56.7005C47.6669 56.9837 47.7723 57.3441 47.7353 57.7043ZM43.22 57.1105C43.194 57.292 43.1324 57.4665 43.0386 57.6239C42.9448 57.7812 42.8207 57.9183 42.6737 58.0272C42.5266 58.136 42.3594 58.2145 42.1818 58.2579C42.0043 58.3014 41.8198 58.3091 41.6393 58.2804C41.4588 58.2518 41.2857 58.1874 41.1302 58.0911C40.9746 57.9948 40.8397 57.8685 40.7333 57.7194C40.6269 57.5703 40.5511 57.4015 40.5103 57.2228C40.4695 57.0441 40.4645 56.8591 40.4956 56.6784C40.5574 56.3203 40.7571 56.0009 41.0518 55.7893C41.3464 55.5777 41.7122 55.4909 42.0702 55.5476C42.4281 55.6044 42.7494 55.8002 42.9646 56.0927C43.1797 56.3851 43.2715 56.7508 43.22 57.1105ZM38.7313 56.3381C38.6978 56.5198 38.6283 56.6929 38.527 56.8473C38.4257 57.0016 38.2945 57.134 38.1413 57.2367C37.9882 57.3394 37.816 57.4102 37.6351 57.4451C37.4541 57.4799 37.268 57.478 37.0878 57.4395C36.9076 57.401 36.7369 57.3267 36.5858 57.221C36.4347 57.1152 36.3063 56.9802 36.2081 56.8238C36.1099 56.6675 36.0439 56.493 36.014 56.3106C35.9842 56.1283 35.9911 55.9418 36.0343 55.7621C36.1185 55.4117 36.3358 55.1081 36.6399 54.916C36.944 54.7239 37.3108 54.6584 37.6623 54.7334C38.0138 54.8085 38.3222 55.0182 38.5218 55.3179C38.7215 55.6176 38.7967 55.9836 38.7313 56.3381ZM34.2856 55.3464C34.2427 55.5261 34.1644 55.6954 34.0552 55.8443C33.946 55.9931 33.8082 56.1185 33.6499 56.2131C33.4916 56.3076 33.316 56.3694 33.1335 56.3947C32.951 56.4201 32.7653 56.4086 32.5873 56.3607C32.4094 56.3129 32.2428 56.2298 32.0973 56.1163C31.9519 56.0029 31.8306 55.8613 31.7407 55.7001C31.6507 55.5388 31.5938 55.3611 31.5735 55.1775C31.5531 54.9938 31.5696 54.8079 31.622 54.6307C31.7243 54.2852 31.957 53.9933 32.2706 53.8173C32.5843 53.6412 32.954 53.5949 33.3011 53.6882C33.6483 53.7815 33.9454 54.007 34.1293 54.3167C34.3132 54.6264 34.3693 54.9958 34.2856 55.3464ZM29.8987 54.1199C29.8427 54.2925 29.7535 54.4525 29.6359 54.5905C29.5184 54.7286 29.3749 54.8421 29.2136 54.9246C29.0524 55.007 28.8765 55.0568 28.6961 55.0711C28.5156 55.0853 28.3341 55.0638 28.162 55.0078C27.8143 54.8945 27.5257 54.6474 27.3597 54.3207C27.2775 54.1589 27.2278 53.9825 27.2136 53.8015C27.1994 53.6206 27.2208 53.4385 27.2767 53.2659C27.3896 52.9171 27.636 52.6277 27.9617 52.4612C28.2874 52.2946 28.6657 52.2647 29.0134 52.378C29.3611 52.4912 29.6497 52.7384 29.8157 53.065C29.9817 53.3917 30.0116 53.7711 29.8987 54.1199ZM25.5929 52.6351C25.5316 52.8094 25.436 52.9696 25.3119 53.1062C25.1877 53.2428 25.0376 53.353 24.8702 53.4305C24.7029 53.5079 24.5218 53.5509 24.3377 53.5569C24.1535 53.563 23.97 53.532 23.7979 53.4657C23.6259 53.3994 23.4689 53.2993 23.3361 53.1711C23.2033 53.043 23.0975 52.8894 23.0249 52.7196C22.9522 52.5497 22.9143 52.367 22.9132 52.1821C22.9122 51.9973 22.9481 51.8142 23.0188 51.6435C23.1567 51.3107 23.4186 51.045 23.7489 50.9029C24.0791 50.7609 24.4516 50.7537 24.787 50.8829C25.1224 51.0121 25.3943 51.2676 25.5449 51.5948C25.6954 51.9221 25.7126 52.2953 25.5929 52.6351ZM21.3753 50.91C21.296 51.0732 21.1854 51.2192 21.0499 51.3396C20.9143 51.4599 20.7565 51.5523 20.5853 51.6115C20.4141 51.6707 20.233 51.6955 20.0523 51.6844C19.8716 51.6734 19.6949 51.6268 19.5321 51.5473C19.3694 51.4677 19.2238 51.3568 19.1038 51.2208C18.9838 51.0849 18.8917 50.9265 18.8327 50.7549C18.7737 50.5832 18.749 50.4016 18.76 50.2203C18.771 50.0391 18.8175 49.8618 18.8968 49.6985C19.0569 49.3689 19.3411 49.1165 19.6868 48.997C20.0325 48.8775 20.4113 48.9006 20.74 49.0613C21.0686 49.2219 21.3202 49.507 21.4394 49.8537C21.5585 50.2004 21.5355 50.5804 21.3753 50.91ZM17.3052 48.8589C17.2119 49.0145 17.089 49.1502 16.9435 49.2582C16.7979 49.3662 16.6326 49.4444 16.457 49.4883C16.1022 49.577 15.7269 49.5207 15.4135 49.3318C15.1001 49.1429 14.8744 48.8369 14.786 48.4811C14.6975 48.1252 14.7537 47.7488 14.942 47.4345C15.0347 47.2777 15.1574 47.1409 15.303 47.0319C15.4486 46.9229 15.6143 46.8438 15.7904 46.7993C15.9666 46.7547 16.1498 46.7455 16.3296 46.7722C16.5093 46.7989 16.682 46.861 16.8377 46.9548C16.9935 47.0487 17.1292 47.1725 17.237 47.3192C17.3449 47.4658 17.4228 47.6324 17.4662 47.8094C17.5096 47.9863 17.5178 48.1702 17.4901 48.3503C17.4625 48.5304 17.3996 48.7033 17.3052 48.8589ZM13.4487 46.4318C13.3438 46.5826 13.21 46.7109 13.0551 46.8093C12.9001 46.9076 12.7272 46.9739 12.5464 47.0044C12.3656 47.0349 12.1806 47.029 12.0021 46.9869C11.8237 46.9449 11.6553 46.8675 11.507 46.7594C11.3587 46.6514 11.2333 46.5147 11.1383 46.3575C11.0432 46.2003 10.9804 46.0256 10.9534 45.8437C10.9264 45.6618 10.9359 45.4764 10.9812 45.2982C11.0265 45.12 11.1068 44.9527 11.2174 44.806C11.4352 44.517 11.7574 44.3252 12.1147 44.2719C12.4721 44.2186 12.836 44.308 13.1283 44.521C13.4205 44.734 13.6178 45.0534 13.6778 45.4107C13.7377 45.7681 13.6555 46.1347 13.4487 46.4318ZM9.84563 43.635C9.7186 43.7681 9.56635 43.8744 9.39779 43.9477C9.22923 44.021 9.04778 44.0598 8.86407 44.0618C8.68037 44.0638 8.49812 44.0289 8.32802 43.9593C8.15792 43.8897 8.00341 43.7867 7.87355 43.6563C7.74369 43.526 7.6411 43.371 7.5718 43.2003C7.5025 43.0296 7.4679 42.8468 7.47001 42.6626C7.47212 42.4783 7.51092 42.2963 7.58411 42.1273C7.65731 41.9583 7.76343 41.8057 7.89624 41.6784C8.15685 41.4286 8.50459 41.291 8.86504 41.2952C9.22548 41.2994 9.56998 41.4449 9.82478 41.7006C10.0796 41.9564 10.2244 42.302 10.2283 42.6635C10.2322 43.0251 10.0949 43.3738 9.84563 43.635ZM6.71637 40.3142C6.56839 40.4249 6.39975 40.5047 6.22044 40.5489C6.04114 40.593 5.85482 40.6006 5.67253 40.5712C5.49025 40.5418 5.3157 40.476 5.15925 40.3777C5.00279 40.2793 4.86761 40.1505 4.76172 39.9988C4.65583 39.8471 4.58138 39.6756 4.54279 39.4945C4.50421 39.3134 4.50226 39.1264 4.53707 38.9446C4.57189 38.7627 4.64275 38.5897 4.74546 38.4358C4.84817 38.2819 4.98064 38.1503 5.13502 38.0487C5.43484 37.8514 5.79949 37.779 6.15164 37.8468C6.5038 37.9147 6.81578 38.1174 7.02144 38.412C7.2271 38.7066 7.31027 39.07 7.25332 39.4251C7.19637 39.7802 7.00378 40.0991 6.71637 40.3142ZM4.26377 36.4558C4.0926 36.5149 3.9115 36.5396 3.73081 36.5285C3.55012 36.5173 3.37339 36.4706 3.2107 36.391C3.048 36.3114 2.90254 36.2004 2.78261 36.0644C2.66268 35.9284 2.57063 35.7701 2.51172 35.5984C2.45281 35.4267 2.42819 35.245 2.43927 35.0638C2.45034 34.8826 2.4969 34.7053 2.57628 34.5421C2.65567 34.379 2.76631 34.2331 2.90191 34.1128C3.03751 33.9925 3.1954 33.9002 3.36658 33.8411C3.53827 33.7798 3.72036 33.7533 3.90233 33.7631C4.0843 33.7729 4.26253 33.8187 4.42671 33.898C4.59089 33.9773 4.73777 34.0885 4.85885 34.2251C4.97993 34.3617 5.0728 34.521 5.1321 34.6938C5.19141 34.8667 5.21596 35.0496 5.20434 35.232C5.19272 35.4144 5.14516 35.5927 5.06441 35.7565C4.98366 35.9204 4.87132 36.0665 4.7339 36.1866C4.59647 36.3066 4.43668 36.3981 4.26377 36.4558ZM3.05932 32.0578C2.69388 32.0705 2.33838 31.9371 2.07101 31.6869C1.93862 31.563 1.83186 31.4142 1.75682 31.2489C1.68177 31.0836 1.63992 30.9052 1.63364 30.7237C1.62736 30.5422 1.65679 30.3612 1.72024 30.1912C1.78368 30.0211 1.87991 29.8652 2.00342 29.7324C2.25286 29.4642 2.59829 29.3064 2.96373 29.2937C3.32916 29.281 3.68467 29.4144 3.95204 29.6646C4.2194 29.9148 4.37673 30.2613 4.3894 30.6278C4.40208 30.9943 4.26907 31.3509 4.01963 31.6191C3.77019 31.8872 3.42476 32.045 3.05932 32.0578ZM117.032 29.2937C117.212 29.3 117.39 29.342 117.555 29.4172C117.72 29.4925 117.868 29.5995 117.991 29.7322C118.115 29.8649 118.211 30.0207 118.274 30.1907C118.338 30.3607 118.367 30.5416 118.361 30.723C118.355 30.9044 118.313 31.0828 118.238 31.248C118.163 31.4131 118.056 31.5619 117.924 31.6857C117.791 31.8095 117.636 31.906 117.467 31.9696C117.297 32.0332 117.117 32.0627 116.936 32.0564C116.571 32.0437 116.225 31.8859 115.976 31.6179C115.727 31.3499 115.594 30.9935 115.607 30.6271C115.619 30.2608 115.777 29.9145 116.044 29.6644C116.311 29.4144 116.666 29.281 117.032 29.2937ZM116.627 33.8411C116.8 33.8988 116.96 33.9903 117.097 34.1103C117.235 34.2303 117.347 34.3765 117.428 34.5404C117.509 34.7042 117.556 34.8825 117.568 35.0649C117.58 35.2473 117.555 35.4302 117.496 35.603C117.436 35.7758 117.344 35.9352 117.222 36.0718C117.101 36.2084 116.954 36.3195 116.79 36.3988C116.626 36.4781 116.448 36.524 116.266 36.5338C116.084 36.5435 115.902 36.517 115.73 36.4558C115.388 36.3337 115.108 36.0812 114.95 35.753C114.793 35.4248 114.77 35.0475 114.889 34.7031C115.007 34.3587 115.256 34.0749 115.581 33.9135C115.907 33.7521 116.283 33.7261 116.627 33.8411ZM114.86 38.0487C115.014 38.1503 115.146 38.2819 115.249 38.4358C115.352 38.5897 115.423 38.7627 115.458 38.9446C115.492 39.1264 115.49 39.3134 115.452 39.4945C115.413 39.6756 115.339 39.8471 115.233 39.9988C115.127 40.1505 114.992 40.2793 114.835 40.3777C114.679 40.476 114.504 40.5418 114.322 40.5712C114.14 40.6006 113.953 40.593 113.774 40.5489C113.595 40.5047 113.426 40.4249 113.278 40.3142C112.991 40.0991 112.798 39.7802 112.741 39.4251C112.684 39.07 112.768 38.7066 112.973 38.412C113.179 38.1174 113.491 37.9147 113.843 37.8468C114.195 37.779 114.56 37.8514 114.86 38.0487ZM112.099 41.6791C112.358 41.9383 112.503 42.29 112.503 42.6567C112.503 43.0233 112.358 43.375 112.099 43.6343C111.841 43.8936 111.49 44.0392 111.124 44.0392C110.759 44.0392 110.408 43.8936 110.15 43.6343C110.022 43.5059 109.92 43.3535 109.851 43.1857C109.782 43.018 109.746 42.8382 109.746 42.6567C109.746 42.4751 109.782 42.2953 109.851 42.1276C109.92 41.9599 110.022 41.8074 110.15 41.6791C110.278 41.5507 110.43 41.4488 110.597 41.3794C110.764 41.3099 110.943 41.2741 111.124 41.2741C111.305 41.2741 111.485 41.3099 111.652 41.3794C111.819 41.4488 111.971 41.5507 112.099 41.6791ZM108.777 44.8067C108.888 44.9533 108.968 45.1206 109.014 45.2989C109.06 45.4772 109.07 45.6628 109.043 45.8449C109.016 46.027 108.953 46.202 108.858 46.3594C108.763 46.5169 108.638 46.6538 108.489 46.762C108.341 46.8702 108.172 46.9476 107.994 46.9896C107.815 47.0316 107.63 47.0374 107.449 47.0066C107.268 46.9759 107.095 46.9092 106.94 46.8105C106.785 46.7118 106.651 46.5831 106.547 46.4318C106.341 46.1348 106.26 45.7689 106.32 45.4124C106.38 45.0559 106.577 44.7373 106.869 44.5248C107.16 44.3122 107.523 44.2227 107.88 44.2754C108.237 44.3282 108.558 44.5189 108.777 44.8067ZM105.052 47.4351C105.192 47.6695 105.26 47.9403 105.247 48.2133C105.234 48.4863 105.14 48.7493 104.978 48.9689C104.816 49.1886 104.593 49.3552 104.336 49.4475C104.08 49.5398 103.801 49.5537 103.537 49.4875C103.273 49.4214 103.034 49.278 102.851 49.0757C102.667 48.8733 102.548 48.621 102.508 48.3507C102.468 48.0803 102.508 47.8041 102.625 47.5569C102.741 47.3097 102.928 47.1026 103.161 46.9619C103.316 46.8684 103.488 46.8064 103.667 46.7796C103.846 46.7527 104.029 46.7616 104.204 46.8055C104.38 46.8495 104.545 46.9277 104.691 47.0357C104.836 47.1438 104.959 47.2795 105.052 47.4351ZM101.097 49.6972C101.176 49.8604 101.223 50.0377 101.234 50.219C101.245 50.4003 101.22 50.5821 101.161 50.7538C101.102 50.9256 101.01 51.084 100.89 51.2199C100.77 51.3559 100.624 51.4668 100.461 51.5462C100.135 51.6938 99.7633 51.7078 99.4262 51.5855C99.0891 51.4631 98.8128 51.2139 98.6557 50.8907C98.4987 50.5675 98.4733 50.1956 98.5849 49.854C98.6965 49.5123 98.9363 49.2276 99.2536 49.0603C99.5822 48.8997 99.961 48.8766 100.307 48.996C100.652 49.1154 100.936 49.3676 101.097 49.6972ZM96.9758 51.6442C97.0428 51.8141 97.0755 51.9957 97.072 52.1784C97.0686 52.3611 97.029 52.5413 96.9557 52.7086C96.8824 52.8759 96.7767 53.027 96.6449 53.153C96.513 53.2791 96.3575 53.3777 96.1874 53.4432C96.0173 53.5086 95.8359 53.5396 95.6538 53.5343C95.4717 53.529 95.2924 53.4876 95.1264 53.4124C94.9603 53.3372 94.8108 53.2297 94.6864 53.0962C94.562 52.9626 94.4652 52.8057 94.4017 52.6344C94.275 52.293 94.2878 51.9152 94.4373 51.5832C94.5868 51.2511 94.8609 50.9917 95.2 50.8612C95.5391 50.7307 95.9159 50.7398 96.2484 50.8864C96.581 51.033 96.8424 51.3053 96.9758 51.6442ZM92.7179 53.2652C92.7739 53.4379 92.7955 53.6199 92.7814 53.8009C92.7673 53.982 92.7178 54.1585 92.6357 54.3203C92.5536 54.4822 92.4405 54.6262 92.3029 54.7442C92.1653 54.8622 92.0059 54.9519 91.8337 55.0081C91.6615 55.0643 91.48 55.0859 91.2995 55.0718C91.119 55.0576 90.9431 55.008 90.7817 54.9256C90.6203 54.8433 90.4767 54.7298 90.3591 54.5918C90.2414 54.4538 90.152 54.2939 90.096 54.1212C89.9828 53.7725 90.0124 53.393 90.1782 53.0661C90.344 52.7392 90.6325 52.4918 90.9802 52.3783C91.3279 52.2648 91.7063 52.2945 92.0322 52.4608C92.3581 52.6271 92.6047 52.9165 92.7179 53.2652ZM88.3719 54.6307C88.4188 54.8062 88.4307 54.9891 88.4071 55.1692C88.3834 55.3492 88.3247 55.5228 88.2341 55.6801C88.1436 55.8374 88.023 55.9752 87.8794 56.0857C87.7357 56.1963 87.5718 56.2774 87.3969 56.3244C87.222 56.3713 87.0396 56.3833 86.8601 56.3596C86.6806 56.3359 86.5075 56.2769 86.3507 56.1861C86.1939 56.0953 86.0564 55.9744 85.9462 55.8304C85.836 55.6863 85.7552 55.5218 85.7083 55.3464C85.6247 54.9958 85.6808 54.6264 85.8647 54.3167C86.0485 54.007 86.3457 53.7815 86.6928 53.6882C87.04 53.5949 87.4097 53.6412 87.7233 53.8173C88.0369 53.9933 88.2696 54.2852 88.3719 54.6307ZM83.9604 55.7628C84.0018 55.9418 84.0072 56.1274 83.9763 56.3086C83.9455 56.4898 83.8789 56.663 83.7805 56.8181C83.6821 56.9732 83.5539 57.1071 83.4033 57.2119C83.2528 57.3167 83.0829 57.3904 82.9036 57.4286C82.7244 57.4668 82.5393 57.4689 82.3593 57.4345C82.1792 57.4002 82.0078 57.3302 81.855 57.2287C81.7022 57.1272 81.5712 56.9961 81.4694 56.8432C81.3677 56.6902 81.2974 56.5185 81.2626 56.3381C81.1941 55.9822 81.2675 55.6135 81.4671 55.3114C81.6667 55.0092 81.9765 54.7977 82.33 54.7223C82.6835 54.647 83.0523 54.7138 83.3572 54.9083C83.6621 55.1029 83.8787 55.4097 83.9604 55.7628ZM79.4976 56.6777C79.5274 56.8578 79.5214 57.0419 79.4799 57.2196C79.4384 57.3973 79.3622 57.565 79.2559 57.713C79.1495 57.861 79.0149 57.9865 78.86 58.0822C78.7051 58.1778 78.5328 58.2418 78.3531 58.2704C78.1734 58.299 77.9898 58.2917 77.813 58.2488C77.6361 58.2059 77.4695 58.1284 77.3226 58.0206C77.1758 57.9129 77.0516 57.7771 76.9574 57.621C76.8631 57.4649 76.8005 57.2917 76.7733 57.1112C76.7188 56.7501 76.8088 56.3821 77.0238 56.0873C77.2388 55.7926 77.5612 55.5951 77.9209 55.5378C78.2805 55.4806 78.6481 55.5683 78.9434 55.7819C79.2388 55.9954 79.438 56.3174 79.4976 56.6777ZM74.9959 57.3674C75.018 57.5476 75.0045 57.7304 74.9561 57.9054C74.9077 58.0804 74.8254 58.2441 74.714 58.3871C74.6025 58.5302 74.464 58.6499 74.3064 58.7393C74.1489 58.8287 73.9753 58.8861 73.7956 58.9083C73.6159 58.9304 73.4336 58.9168 73.2592 58.8683C73.0847 58.8197 72.9215 58.7372 72.7788 58.6254C72.6362 58.5136 72.5169 58.3747 72.4277 58.2167C72.3386 58.0586 72.2814 57.8845 72.2593 57.7043C72.2371 57.5241 72.2505 57.3412 72.2988 57.1661C72.3471 56.9911 72.4294 56.8273 72.5408 56.6842C72.6523 56.541 72.7909 56.4214 72.9485 56.332C73.1062 56.2427 73.2799 56.1854 73.4597 56.1634C73.6394 56.1411 73.8217 56.1546 73.9962 56.203C74.1708 56.2515 74.3341 56.334 74.4768 56.4458C74.6195 56.5576 74.7388 56.6966 74.8279 56.8547C74.9169 57.0129 74.9741 57.1871 74.9959 57.3674ZM70.4711 57.8858C70.4839 58.067 70.461 58.2489 70.4036 58.4211C70.3462 58.5934 70.2556 58.7526 70.1368 58.8897C70.018 59.0268 69.8734 59.139 69.7113 59.22C69.5492 59.301 69.3728 59.3491 69.1922 59.3616C68.9202 59.3807 68.6487 59.3185 68.4119 59.1828C68.1752 59.0472 67.9839 58.8441 67.8622 58.5994C67.7405 58.3547 67.6939 58.0792 67.7283 57.8079C67.7627 57.5366 67.8765 57.2817 68.0554 57.0753C68.2342 56.8689 68.4701 56.7203 68.7332 56.6483C68.9962 56.5764 69.2746 56.5843 69.5332 56.671C69.7918 56.7578 70.0189 56.9195 70.1858 57.1357C70.3528 57.352 70.452 57.613 70.4711 57.8858ZM65.9271 58.1967C65.9386 58.3813 65.9131 58.5663 65.8521 58.7408C65.7911 58.9153 65.6959 59.0758 65.572 59.2127C65.4482 59.3497 65.2982 59.4603 65.1309 59.5381C64.9637 59.616 64.7826 59.6594 64.5983 59.6658C64.4141 59.6722 64.2304 59.6415 64.0582 59.5755C63.886 59.5095 63.7287 59.4095 63.5956 59.2815C63.4626 59.1535 63.3565 59 63.2836 58.8301C63.2107 58.6603 63.1725 58.4775 63.1713 58.2926C63.1689 57.9324 63.3066 57.5854 63.5552 57.3255C63.8039 57.0656 64.1438 56.9132 64.5027 56.9007C64.8616 56.8882 65.2112 57.0166 65.4772 57.2586C65.7432 57.5007 65.9046 57.8372 65.9271 58.1967ZM63.1733 3.05821C63.1858 2.69168 63.343 2.34514 63.6102 2.09483C63.7425 1.97089 63.8979 1.8743 64.0675 1.81058C64.237 1.74686 64.4174 1.71726 64.5983 1.72346C64.7793 1.72967 64.9572 1.77156 65.122 1.84675C65.2868 1.92193 65.4353 2.02894 65.5588 2.16166C65.6824 2.29438 65.7787 2.45021 65.8422 2.62025C65.9058 2.7903 65.9353 2.97124 65.9291 3.15272C65.9166 3.51925 65.7595 3.8658 65.4922 4.11611C65.225 4.36643 64.8695 4.50001 64.5041 4.48748C64.1387 4.47494 63.7932 4.31732 63.5436 4.04928C63.294 3.78124 63.1608 3.42475 63.1733 3.05821ZM67.7221 3.27188C67.7333 3.08968 67.7804 2.91151 67.8606 2.74764C67.9408 2.58377 68.0525 2.43745 68.1894 2.31712C68.3263 2.1968 68.4856 2.10485 68.658 2.04658C68.8305 1.98831 69.0128 1.96487 69.1944 1.97762C69.3759 1.99037 69.5532 2.03905 69.7159 2.12086C69.8786 2.20266 70.0235 2.31598 70.1423 2.45426C70.2612 2.59254 70.3515 2.75305 70.4082 2.92653C70.4648 3.10001 70.4867 3.28302 70.4724 3.46501C70.444 3.82861 70.2735 4.16622 69.9981 4.40432C69.7226 4.64242 69.3645 4.76172 69.0018 4.73625C68.6391 4.71078 68.3011 4.54259 68.0614 4.26832C67.8217 3.99405 67.6998 3.63591 67.7221 3.27188ZM72.2607 3.64718C72.2828 3.46686 72.3402 3.29268 72.4294 3.13459C72.5187 2.9765 72.6381 2.83759 72.7809 2.72579C72.9237 2.61399 73.087 2.5315 73.2616 2.48302C73.4362 2.43454 73.6185 2.42102 73.7983 2.44323C73.9781 2.46544 74.1518 2.52295 74.3094 2.61248C74.467 2.70201 74.6055 2.8218 74.717 2.96501C74.8284 3.10822 74.9107 3.27206 74.959 3.44715C75.0073 3.62224 75.0208 3.80517 74.9987 3.98549C74.9539 4.34966 74.7668 4.68109 74.4785 4.90687C74.1901 5.13266 73.8241 5.2343 73.461 5.18944C73.0979 5.14457 72.7675 4.95688 72.5424 4.66765C72.3173 4.37842 72.2159 4.01135 72.2607 3.64718ZM76.776 4.24093C76.8026 4.06006 76.8647 3.88628 76.9587 3.72964C77.0527 3.573 77.1767 3.43662 77.3236 3.32838C77.4705 3.22014 77.6374 3.14219 77.8145 3.09905C77.9916 3.05591 78.1756 3.04843 78.3556 3.07705C78.5356 3.10566 78.7082 3.1698 78.8634 3.26576C79.0185 3.36172 79.1532 3.48759 79.2595 3.63608C79.3658 3.78457 79.4417 3.95274 79.4829 4.13086C79.524 4.30897 79.5294 4.4935 79.499 4.67375C79.4383 5.03278 79.2389 5.3533 78.944 5.56573C78.6491 5.77816 78.2826 5.86534 77.924 5.80834C77.5654 5.75135 77.2438 5.55477 77.0288 5.26131C76.8139 4.96784 76.723 4.60118 76.776 4.24093ZM81.2633 5.01412C81.2965 4.83212 81.3657 4.65864 81.4669 4.50394C81.5681 4.34925 81.6992 4.21649 81.8525 4.11352C82.0057 4.01055 82.178 3.93945 82.3591 3.90445C82.5403 3.86944 82.7266 3.87123 82.907 3.90972C83.0874 3.9482 83.2583 4.0226 83.4096 4.1285C83.5608 4.2344 83.6894 4.36966 83.7876 4.52627C83.8858 4.68288 83.9517 4.85766 83.9814 5.04027C84.0111 5.22287 84.0039 5.4096 83.9604 5.58938C83.8756 5.93922 83.6583 6.24214 83.3545 6.43382C83.0507 6.6255 82.6843 6.69084 82.3332 6.61595C81.9821 6.54107 81.674 6.33186 81.4742 6.03277C81.2744 5.73368 81.1988 5.36826 81.2633 5.01412ZM85.7097 6.00508C85.7566 5.82962 85.8376 5.66515 85.9479 5.52106C86.0582 5.37697 86.1957 5.25609 86.3526 5.16531C86.5095 5.07453 86.6827 5.01563 86.8623 4.99198C87.0419 4.96833 87.2243 4.98039 87.3993 5.02747C87.5742 5.07455 87.7382 5.15573 87.8819 5.26637C88.0255 5.37702 88.146 5.51496 88.2365 5.67232C88.327 5.82968 88.3858 6.00338 88.4094 6.18351C88.4329 6.36363 88.4209 6.54665 88.374 6.72211C88.2792 7.07647 88.0479 7.37855 87.731 7.56188C87.4142 7.74522 87.0377 7.7948 86.6844 7.69972C86.3311 7.60463 86.0299 7.37267 85.8471 7.05487C85.6643 6.73706 85.6149 6.35944 85.7097 6.00508ZM90.096 7.23163C90.1488 7.05512 90.2363 6.89099 90.3533 6.74887C90.4703 6.60675 90.6144 6.48951 90.7772 6.40403C90.94 6.31855 91.1182 6.26656 91.3013 6.25111C91.4844 6.23565 91.6687 6.25705 91.8434 6.31404C92.0182 6.37103 92.1798 6.46247 92.3188 6.58298C92.4578 6.70349 92.5714 6.85065 92.653 7.01581C92.7345 7.18097 92.7823 7.36081 92.7936 7.54476C92.8048 7.72871 92.7794 7.91306 92.7186 8.08699C92.5994 8.42815 92.3519 8.70897 92.0289 8.86936C91.7059 9.02975 91.3331 9.05697 90.9904 8.94518C90.6477 8.8334 90.3622 8.59149 90.195 8.27124C90.0278 7.95099 89.9923 7.57783 90.096 7.23163ZM94.4024 8.71567C94.4638 8.5414 94.5593 8.38124 94.6835 8.24464C94.8076 8.10804 94.9577 7.99777 95.1251 7.92035C95.2924 7.84292 95.4735 7.79991 95.6577 7.79386C95.8418 7.7878 96.0253 7.81882 96.1974 7.88509C96.3694 7.95136 96.5264 8.05153 96.6592 8.17969C96.792 8.30784 96.8978 8.46139 96.9704 8.63125C97.0431 8.80111 97.081 8.98385 97.0821 9.16867C97.0831 9.35349 97.0472 9.53665 96.9765 9.70732C96.8386 10.0401 96.5767 10.3058 96.2465 10.4479C95.9162 10.5899 95.5437 10.5971 95.2083 10.4679C94.8729 10.3387 94.601 10.0833 94.4505 9.756C94.2999 9.42875 94.2827 9.05549 94.4024 8.71567ZM98.6186 10.4415C98.6979 10.2783 98.8084 10.1324 98.9439 10.012C99.0794 9.89168 99.2372 9.79928 99.4083 9.74011C99.5794 9.68093 99.7605 9.65614 99.9411 9.66715C100.122 9.67815 100.298 9.72472 100.461 9.80423C100.624 9.88373 100.769 9.9946 100.889 10.1305C101.009 10.2664 101.101 10.4247 101.16 10.5963C101.219 10.7679 101.244 10.9495 101.233 11.1306C101.222 11.3118 101.176 11.4891 101.097 11.6523C100.936 11.9818 100.652 12.2341 100.307 12.3536C99.9613 12.4731 99.5826 12.4501 99.254 12.2895C98.9254 12.129 98.6739 11.844 98.5547 11.4975C98.4355 11.1509 98.4585 10.771 98.6186 10.4415ZM102.689 12.4926C102.78 12.3321 102.902 12.1915 103.047 12.0791C103.193 11.9666 103.36 11.8846 103.538 11.8377C103.716 11.7909 103.901 11.7802 104.084 11.8064C104.266 11.8325 104.441 11.895 104.598 11.99C104.756 12.085 104.893 12.2107 105.002 12.3597C105.11 12.5087 105.188 12.678 105.23 12.8575C105.273 13.0371 105.279 13.2233 105.248 13.4053C105.218 13.5872 105.151 13.7612 105.053 13.917C104.86 14.2219 104.556 14.439 104.205 14.5221C103.855 14.6051 103.486 14.5476 103.178 14.3616C102.869 14.1757 102.645 13.8761 102.554 13.5269C102.463 13.1777 102.511 12.8065 102.689 12.4926ZM106.546 14.9196C106.651 14.7689 106.784 14.6407 106.939 14.5424C107.094 14.4442 107.267 14.3778 107.448 14.3473C107.628 14.3168 107.813 14.3227 107.992 14.3647C108.17 14.4067 108.338 14.484 108.486 14.5919C108.635 14.6999 108.76 14.8364 108.855 14.9935C108.95 15.1506 109.013 15.3252 109.04 15.5069C109.067 15.6887 109.058 15.874 109.012 16.0521C108.967 16.2302 108.887 16.3974 108.777 16.5441C108.559 16.8331 108.237 17.025 107.88 17.0784C107.523 17.1318 107.159 17.0425 106.867 16.8297C106.574 16.6169 106.377 16.2976 106.317 15.9404C106.257 15.5832 106.339 15.2167 106.546 14.9196ZM110.148 17.7172C110.34 17.524 110.586 17.3925 110.853 17.3393C111.12 17.286 111.397 17.3135 111.649 17.4181C111.901 17.5227 112.116 17.6999 112.267 17.9271C112.419 18.1544 112.499 18.4215 112.499 18.6948C112.499 18.9681 112.419 19.2353 112.267 19.4625C112.116 19.6898 111.901 19.8669 111.649 19.9715C111.397 20.0761 111.12 20.1036 110.853 20.0503C110.586 19.9971 110.34 19.8656 110.148 19.6724C110.02 19.5441 109.918 19.3917 109.849 19.2239C109.779 19.0562 109.744 18.8764 109.744 18.6948C109.744 18.5132 109.779 18.3334 109.849 18.1657C109.918 17.9979 110.02 17.8456 110.148 17.7172ZM113.276 21.0373C113.424 20.9266 113.593 20.8468 113.772 20.8026C113.951 20.7584 114.138 20.7508 114.32 20.7803C114.502 20.8097 114.677 20.8755 114.833 20.9738C114.99 21.0721 115.125 21.201 115.231 21.3527C115.337 21.5044 115.411 21.6758 115.45 21.8569C115.488 22.038 115.49 22.2251 115.456 22.4069C115.421 22.5888 115.35 22.7618 115.247 22.9157C115.144 23.0695 115.012 23.2012 114.858 23.3028C114.558 23.5 114.193 23.5725 113.841 23.5046C113.489 23.4368 113.177 23.2341 112.971 22.9395C112.765 22.6449 112.682 22.2815 112.739 21.9264C112.796 21.5713 112.989 21.2524 113.276 21.0373ZM115.729 24.8957C115.9 24.8366 116.081 24.8119 116.262 24.823C116.442 24.8341 116.619 24.8808 116.782 24.9605C116.945 25.0401 117.09 25.1511 117.21 25.2871C117.33 25.4231 117.422 25.5814 117.481 25.7531C117.54 25.9248 117.564 26.1064 117.553 26.2877C117.542 26.4689 117.496 26.6462 117.416 26.8093C117.337 26.9725 117.226 27.1184 117.091 27.2387C116.955 27.359 116.797 27.4513 116.626 27.5104C116.28 27.6297 115.902 27.6065 115.573 27.4457C115.244 27.2849 114.993 26.9997 114.874 26.653C114.755 26.3063 114.778 25.9263 114.939 25.5968C115.099 25.2672 115.383 25.015 115.729 24.8957ZM23.6067 23.4377C24.17 23.7637 24.5278 24.1177 24.6664 24.2444C24.9211 24.4766 25.3601 24.8799 25.7575 25.3306C26.103 25.7223 26.3864 26.0887 26.5844 26.3832C27.1777 27.2646 27.4542 28.298 27.4542 29.1417C27.4542 30.3135 26.8336 32.0379 25.7841 32.7933L26.5024 33.5137C27.317 34.278 27.9076 35.4491 27.9076 37.1071C27.9076 39.3965 26.0832 42.2605 23.3698 42.2605H17.0177L15.3653 40.6073V22.8035H21.2647C22.1988 22.8035 22.9751 23.0466 23.6067 23.4377ZM20.6481 34.2951V37.796H20.8113C21.9632 37.796 22.6262 36.5263 22.6262 35.219C22.6262 34.8944 22.5798 34.5828 22.4965 34.2951H20.6481ZM20.6481 27.2673V29.8128C21.6198 29.6868 22.1721 28.9157 22.1721 27.7227C22.1721 27.5638 22.1612 27.4132 22.14 27.2721L22.0096 27.2673H20.6481ZM18.4816 38.3124V32.1255H20.8113C22.179 32.1255 23.141 33.6973 23.141 35.2197C23.141 36.5859 22.4296 38.3131 20.8113 38.3131L18.4816 38.3124ZM18.4816 30.3477V25.0984H20.3579C21.6013 25.0984 22.6876 26.0524 22.6876 27.7227C22.6876 29.2362 21.8662 30.3477 20.3579 30.3477H18.4816ZM25.7411 35.4532C25.7411 33.4418 24.8029 32.2707 23.7405 31.6907L22.9567 31.2613L23.7194 30.7949C24.6473 30.2285 25.2871 28.6103 25.2871 27.4885C25.2871 25.7791 24.0498 23.3199 21.2647 23.3199H15.8809V40.0902H21.7181C24.0437 40.0909 25.7411 37.5741 25.7411 35.4532ZM33.3324 22.8035L34.9841 24.4567L34.9848 37.255L34.9882 37.3714L35.1466 37.3776C36.2248 37.3776 36.9615 36.564 36.9615 35.6025V22.8035H40.5912L42.2429 24.4567V37.255C42.2429 40.2402 39.7377 42.6851 36.7976 42.6851C35.5269 42.6851 34.2078 42.1571 32.9023 41.1805C31.9928 40.4991 31.0908 39.3335 30.9242 39C30.1362 38.0439 29.7037 36.843 29.7006 35.6025V22.8035H33.3324ZM37.477 23.3206V35.6025C37.477 36.8434 36.5149 37.894 35.1473 37.894C33.779 37.894 32.8176 36.8441 32.8176 35.6025L32.8169 23.3206H30.2168V35.6025C30.2168 38.2966 32.4858 40.5162 35.1473 40.5162C37.8088 40.5162 40.0771 38.2966 40.0771 35.6025V23.3206H37.477ZM52.6774 22.9234C53.1328 23.1309 53.5241 23.3836 53.8798 23.6534C54.3291 23.9999 54.807 24.3971 55.298 24.9717C55.6819 25.4212 56.0176 25.9099 56.2996 26.4297C56.7551 27.27 56.977 28.2987 56.977 29.4629V29.8313H53.8013L52.1489 28.1781V27.809C52.1489 27.6748 52.1387 27.544 52.1196 27.418C51.9403 27.3672 51.7536 27.3482 51.5679 27.3618C50.4836 27.457 49.7175 28.3843 49.7175 29.4622V37.2557C49.7175 37.3611 49.7264 37.4666 49.7448 37.57C49.8015 37.5803 49.8581 37.5871 49.9162 37.5926C51.2026 37.7056 52.1025 36.9249 52.1476 35.6984H51.9666L50.3149 34.0458V31.2353L55.3253 31.2359L56.977 32.8891V37.2536C56.977 40.4916 55.2611 42.6837 51.5679 42.6837C50.2268 42.6837 48.9521 42.1632 47.6377 41.1791C46.735 40.5025 45.8529 39.3396 45.6221 38.937C44.884 38.0145 44.4354 36.8557 44.4354 35.6018V27.809C44.4354 24.8238 46.9767 22.3789 49.9162 22.3789C51.0066 22.3789 51.925 22.57 52.6774 22.9234ZM52.6603 27.6618H54.8084C54.7586 24.7615 53.2373 22.896 49.9148 22.896C47.2492 22.896 44.9495 25.1196 44.9495 27.8097V35.6025C44.9495 38.2925 47.2499 40.5176 49.9148 40.5176C53.2933 40.5176 54.8091 38.5877 54.8091 35.6025V31.7544L50.8284 31.7537V33.5308H52.6631V35.6025C52.6631 37.2002 51.4777 38.2494 49.8697 38.1076C48.5103 37.9878 47.5496 36.8242 47.5496 35.6038V27.809C47.5496 26.4729 48.4966 25.3155 49.8697 25.1943C51.4634 25.0539 52.5907 26.1743 52.6603 27.6618ZM65.9393 31.0524L65.2299 34.2047H66.5771L65.9393 31.0524ZM67.5439 38.9808H64.1538L63.4137 42.2605H59.6494L57.9971 40.6073L62.5349 22.8035H67.5268L69.1778 24.4567L73.4091 42.2605H69.5247L67.8723 40.6073L67.5439 38.9808ZM65.4873 26.2147L67.208 34.7204H62.5616L64.4809 26.2031L65.4873 26.2147ZM62.935 23.3206L58.6607 40.0909H61.351L62.0897 36.8112H67.6306L68.2936 40.0909H70.9634L67.1158 23.3206H62.935ZM75.9826 27.7364H74.0052L72.3542 26.0832V22.8035H83.2428L84.8951 24.4567V27.7364H81.2654V42.294H77.6356L75.9833 40.6408L75.9826 27.7364ZM76.4988 40.1245H79.0982V25.5668H82.7279V23.3206H72.8684V25.5668H76.4981L76.4988 40.1245ZM96.5265 22.8035L98.1789 24.4567V27.7364H94.5492V42.294H90.9194L89.2671 40.6408V27.7364H87.2897L85.6373 26.0832V22.8035H96.5265ZM89.7812 40.1245H92.382V25.5668H96.0117V23.3206H86.1515V25.5668H89.7812V40.1245ZM102.952 22.8035L104.604 24.4567V42.2605H100.974L99.3219 40.6073V22.8035H102.952ZM102.437 23.3206H99.8361V40.0909H102.437V23.3206ZM57.0316 14.9765V15.6812H55.2481V12.1563H57.0316V12.8617H58.7352V10.3394H54.4445V11.2345H52.6603V8.54994H63.9661C64.5816 8.55024 65.184 8.72835 65.7013 9.06296C66.2185 9.39758 66.6288 9.87454 66.8829 10.4368C67.1371 10.9991 67.2244 11.6229 67.1345 12.2336C67.0445 12.8444 66.7811 13.4162 66.3757 13.8807C66.8378 14.3563 67.1498 14.9579 67.2727 15.6104C67.3956 16.2629 67.324 16.9373 67.0667 17.5491C66.8095 18.161 66.378 18.6832 65.8264 19.0504C65.2748 19.4176 64.6274 19.6135 63.9654 19.6135H52.6603V16.929H54.4445V17.824H58.7352V14.9772L57.0316 14.9765ZM63.9654 12.8617C64.7472 12.8617 65.2231 12.2967 65.2231 11.6009C65.2231 10.9051 64.7472 10.3401 63.9654 10.3401H61.086V12.8624L63.9654 12.8617ZM63.9654 17.8234C64.8537 17.8234 65.3856 17.1858 65.3856 16.3996C65.3856 15.6134 64.8537 14.9758 63.9654 14.9758H61.086V17.8227L63.9654 17.8234Z" fill="#F1F1F1"/>
<path d="M39.0804 79.5853H44.1079V76.3018C44.1079 75.7151 44.0733 75.3286 44.0042 75.1425C43.951 75.0014 43.8392 74.8801 43.669 74.7786C43.4402 74.6432 43.1982 74.5755 42.9428 74.5755H42.5597V74.2623H47.1883V74.5755H46.8052C46.5499 74.5755 46.3078 74.6403 46.079 74.7701C45.9088 74.8604 45.7917 74.9986 45.7279 75.1848C45.6694 75.3653 45.6401 75.7377 45.6401 76.3018V83.7066C45.6401 84.2877 45.6747 84.6714 45.7439 84.8575C45.7971 84.9986 45.9061 85.1199 46.071 85.2214C46.3051 85.3568 46.5499 85.4245 46.8052 85.4245H47.1883V85.7377H42.5597V85.4245H42.9428C43.3844 85.4245 43.7062 85.2863 43.9084 85.0099C44.0414 84.8293 44.1079 84.3949 44.1079 83.7066V80.2116H39.0804V83.7066C39.0804 84.2877 39.1149 84.6714 39.1841 84.8575C39.2373 84.9986 39.349 85.1199 39.5193 85.2214C39.748 85.3568 39.9901 85.4245 40.2455 85.4245H40.6365V85.7377H36V85.4245H36.3831C36.8299 85.4245 37.1545 85.2863 37.3566 85.0099C37.4843 84.8293 37.5482 84.3949 37.5482 83.7066V76.3018C37.5482 75.7151 37.5136 75.3286 37.4444 75.1425C37.3912 75.0014 37.2822 74.8801 37.1172 74.7786C36.8831 74.6432 36.6384 74.5755 36.3831 74.5755H36V74.2623H40.6365V74.5755H40.2455C39.9901 74.5755 39.748 74.6403 39.5193 74.7701C39.3544 74.8604 39.24 74.9986 39.1761 75.1848C39.1123 75.3653 39.0804 75.7377 39.0804 76.3018V79.5853Z" fill="#F7F7EB"/>
<path d="M53.3452 74C54.7497 74 55.9653 74.567 56.9921 75.701C58.0242 76.8293 58.5403 78.2398 58.5403 79.9323C58.5403 81.6756 58.0216 83.1227 56.9842 84.2736C55.9467 85.4245 54.6912 86 53.2175 86C51.7278 86 50.475 85.4386 49.4588 84.3159C48.448 83.1932 47.9426 81.7405 47.9426 79.9577C47.9426 78.1354 48.5278 76.6488 49.6982 75.4979C50.7144 74.4993 51.93 74 53.3452 74ZM53.1935 74.6178C52.2253 74.6178 51.4485 74.9986 50.8633 75.7602C50.1345 76.708 49.77 78.0959 49.77 79.9238C49.77 81.7969 50.1478 83.2384 50.9032 84.2482C51.4831 85.0155 52.2492 85.3992 53.2015 85.3992C54.2177 85.3992 55.0556 84.9788 55.7153 84.1382C56.3803 83.2976 56.7128 81.9718 56.7128 80.1608C56.7128 78.1975 56.3484 76.7334 55.6195 75.7687C55.0343 75.0014 54.2257 74.6178 53.1935 74.6178Z" fill="#F7F7EB"/>
<path d="M65.7027 85.7377L61.5211 76.0818V83.7489C61.5211 84.4542 61.5929 84.8942 61.7365 85.0691C61.9334 85.3061 62.2446 85.4245 62.6702 85.4245H63.0533V85.7377H59.2866V85.4245H59.6697C60.1272 85.4245 60.4517 85.2779 60.6432 84.9845C60.7603 84.8039 60.8188 84.3921 60.8188 83.7489V76.2511C60.8188 75.7433 60.7656 75.3766 60.6592 75.1509C60.5847 74.9873 60.4464 74.8519 60.2442 74.7447C60.0474 74.6319 59.7282 74.5755 59.2866 74.5755V74.2623H62.351L66.2773 83.2412L70.1397 74.2623H73.2041V74.5755H72.829C72.3662 74.5755 72.039 74.7221 71.8475 75.0155C71.7304 75.1961 71.6719 75.6079 71.6719 76.2511V83.7489C71.6719 84.4542 71.7464 84.8942 71.8954 85.0691C72.0922 85.3061 72.4034 85.4245 72.829 85.4245H73.2041V85.7377H68.6075V85.4245H68.9906C69.4534 85.4245 69.7779 85.2779 69.9641 84.9845C70.0812 84.8039 70.1397 84.3921 70.1397 83.7489V76.0818L65.9661 85.7377H65.7027Z" fill="#F7F7EB"/>
<path d="M76.8073 74.8886V79.4245H79.1855C79.8026 79.4245 80.2149 79.3258 80.4224 79.1283C80.699 78.8688 80.8533 78.4118 80.8852 77.7574H81.1805V81.7518H80.8852C80.8108 81.1932 80.7363 80.835 80.6618 80.677C80.566 80.4795 80.4091 80.3244 80.191 80.2116C79.9728 80.0987 79.6377 80.0423 79.1855 80.0423H76.8073V83.8251C76.8073 84.3329 76.8286 84.6432 76.8712 84.756C76.9137 84.8632 76.9882 84.9506 77.0946 85.0183C77.201 85.0804 77.4032 85.1114 77.7011 85.1114H79.5366C80.1484 85.1114 80.5926 85.0663 80.8693 84.976C81.1459 84.8858 81.4119 84.708 81.6673 84.4429C81.9972 84.0931 82.335 83.5656 82.6808 82.8604H83L82.0663 85.7377H73.727V85.4245H74.11C74.3654 85.4245 74.6075 85.3597 74.8362 85.2299C75.0065 85.1396 75.1209 85.0042 75.1794 84.8237C75.2432 84.6432 75.2751 84.2736 75.2751 83.7151V76.2595C75.2751 75.5317 75.206 75.0832 75.0677 74.914C74.8761 74.6883 74.5569 74.5755 74.11 74.5755H73.727V74.2623H82.0663L82.186 76.7757H81.8748C81.7631 76.1721 81.638 75.7574 81.4997 75.5317C81.3667 75.3061 81.1672 75.134 80.9012 75.0155C80.6884 74.9309 80.3133 74.8886 79.776 74.8886H76.8073Z" fill="#F7F7EB"/>
</svg>
