<svg width="107" height="48" viewBox="0 0 107 48" fill="none" xmlns="http://www.w3.org/2000/svg">
<g clip-path="url(#clip0_340_2822)">
<path fill-rule="evenodd" clip-rule="evenodd" d="M77.0118 34.4471H76.5895V48H77.4342V34.4471H77.0118ZM9.68294 36.1547C11.0942 37.4846 11.8263 39.3001 11.8263 41.2405C11.8263 43.1102 11.1117 44.8896 9.75389 46.202C8.27223 47.6403 6.68299 48 4.6821 48H2.25263V34.4471H4.68153C6.64695 34.4471 8.20127 34.7706 9.68294 36.1547ZM10.9686 41.241C10.9686 39.5159 10.2906 37.898 9.02235 36.7296C7.7361 35.5612 6.34285 35.2557 4.66351 35.2557H3.11088V47.1913H4.66464C6.43295 47.1913 7.89716 46.8316 9.18342 45.5554C10.3252 44.4113 10.9675 42.8596 10.9692 41.241H10.9686ZM13.5158 48V34.4471H20.2737V35.2557H14.4168V40.1811H20.1233V40.9897H14.4168V47.1913H20.2737V48H13.5158ZM28.8365 47.4353C25.1636 47.4353 21.9632 44.3712 21.9632 40.6763C21.9632 36.9295 25.1112 33.8824 28.854 33.8824C30.4454 33.8824 32.0544 34.5131 33.2263 35.5991V36.7544C32.2121 35.511 30.4274 34.6707 28.8016 34.6707C25.5133 34.6707 22.8028 37.5072 22.8028 40.7469C22.8028 42.288 23.4674 43.741 24.5695 44.8264C25.671 45.8767 27.245 46.6475 28.8016 46.6475C30.3232 46.6475 32.247 45.8248 33.2263 44.6338V45.7892C31.9846 46.8226 30.4629 47.4353 28.8365 47.4353ZM40.2658 33.8824C44.0823 33.8824 47.3053 36.9464 47.3053 40.6588C47.3053 44.3712 44.0823 47.4353 40.2658 47.4353C36.4493 47.4353 33.2263 44.3712 33.2263 40.6588C33.2263 36.9464 36.4307 33.8824 40.2658 33.8824ZM46.4414 40.6588C46.4414 37.4022 43.6324 34.6701 40.2658 34.6701C36.8812 34.6701 34.0908 37.4022 34.0908 40.6588C34.0908 43.916 36.8812 46.6475 40.2658 46.6475C43.6324 46.6475 46.4414 43.8985 46.4414 40.6588ZM51.2772 41.5827L55.7526 48H54.7558L50.299 41.5827H49.8643V48H48.9947V34.4471H50.6977C51.8032 34.4471 52.8901 34.4646 53.8137 35.1298C54.7924 35.8131 55.1912 36.8917 55.1912 38.042C55.1912 40.3968 53.5422 41.6188 51.2772 41.5827ZM53.3609 40.1449C54.0136 39.6237 54.3211 38.8151 54.3211 38.0058C54.3211 36.999 53.8503 35.9927 52.8721 35.5612C52.1473 35.2201 51.2232 35.2557 50.4257 35.2557H49.8643V40.774H50.9697C51.8212 40.774 52.6727 40.7379 53.3609 40.1449ZM62.8006 33.8824L68.1421 48H67.3109L65.5989 43.5055H59.9859L58.2733 48H57.4421L62.8006 33.8824ZM65.2931 42.6901L62.8006 36.0932L60.2911 42.6901H65.2931ZM71.953 48H71.0891V35.2557H67.5789V34.4471H75.4632V35.2557H71.953V48ZM93.4842 40.6588C93.4842 44.3712 90.2613 47.4353 86.4447 47.4353C82.6282 47.4353 79.4053 44.3712 79.4053 40.6588C79.4053 36.9464 82.6102 33.8824 86.4447 33.8824C90.2613 33.8824 93.4842 36.9464 93.4842 40.6588ZM92.6203 40.6588C92.6203 37.4022 89.8113 34.6701 86.4453 34.6701C83.0607 34.6701 80.2691 37.4022 80.2691 40.6588C80.2691 43.9155 83.0607 46.647 86.4453 46.647C89.8113 46.647 92.6203 43.898 92.6203 40.6588ZM96.0077 47.5528H95.1737V33.8824L106.167 45.8349V34.0608H107V48L96.0072 35.9582V47.5528H96.0077ZM13.5158 32.1882H0V31.7348H2.43847V0.453459H0V0H13.2263V8.53158H12.7719C12.7719 1.03059 9.83724 0.453459 6.24092 0.453459V15.4554C9.63056 15.4554 10.0439 13.0645 10.0439 9.60282H10.4984V21.6367H10.0439C10.0439 18.1751 9.63056 15.9083 6.24092 15.9083V31.7348C9.83724 31.7348 13.0608 30.9515 13.0608 23.6154H13.5158V32.1882ZM44.2045 23.5443H44.4895V32.1882H31.5368V31.9002H33.8176V0.288H31.5368V0H39.8462V0.288H37.5654V31.9002C41.1088 31.9002 44.2045 30.8708 44.2045 23.5443ZM75.7414 23.5443H76.0263V32.1882H63.0737V31.9002H65.3545V0.288H63.0737V0H71.3831V0.288H69.1017V31.9002C72.6457 31.9002 75.7414 30.8708 75.7414 23.5443ZM100.075 15.7649V31.6535C103.619 31.6535 106.715 30.8708 106.715 23.5443H107V32.1882H94.0474V31.9002H96.3282V0.288H94.0474V0H106.756V8.60273H106.471C106.471 1.11134 103.619 0.534777 100.075 0.534777V15.4769C103.416 15.4769 103.742 13.0069 103.742 9.54918H104.027V21.5684H103.742C103.742 18.1112 103.416 15.7649 100.075 15.7649Z" fill="#F7F7EB"/>
</g>
<defs>
<clipPath id="clip0_340_2822">
<rect width="107" height="48" fill="white"/>
</clipPath>
</defs>
</svg>
