<svg width="140" height="26" viewBox="0 0 140 26" fill="none" xmlns="http://www.w3.org/2000/svg">
<path d="M5.88098 10.2276V1.63082H8.05134C11.8553 1.63082 13.0922 3.07527 13.0922 5.68459C13.0922 8.45699 12.252 10.2276 8.35472 10.2276C8.37806 10.2276 5.88098 10.2276 5.88098 10.2276ZM5.88098 11.043H8.23804C11.4586 11.043 12.4387 11.672 12.7421 14.5376L12.9755 17.0305C13.2322 19.6631 13.8623 20.6416 17.2695 20.6416C17.853 20.6416 18.6698 20.5484 19.2065 20.4086V19.7796C16.9195 19.7097 16.3361 19.3136 15.9627 17.1237L15.6826 15.1667C15.2859 12.5573 14.5858 10.9498 10.6884 10.647V10.5538C14.6558 9.85484 16.1727 8.01434 16.1727 5.5914C16.1727 2.98208 14.1424 0.815412 8.28471 0.815412H0V1.44445C2.52042 1.53764 3.15053 2.05018 3.15053 3.12187V18.1022C3.15053 19.1738 2.52042 19.6631 0 19.7563V20.4319H8.98483V19.7563C6.34772 19.6631 5.90432 19.2437 5.90432 18.1022L5.88098 11.043ZM24.5974 20.6882C28.238 20.6882 31.0852 17.7993 31.0852 13.7455C31.0852 9.71505 28.4014 6.94265 24.5974 6.94265C20.9102 6.94265 18.0397 9.83154 18.0397 13.862C18.0397 17.9158 20.7235 20.6882 24.5974 20.6882ZM24.7141 19.966C22.4037 19.966 20.7935 18.1953 20.7935 13.7921C20.7935 9.36559 22.147 7.61828 24.4341 7.61828C26.7445 7.61828 28.3547 9.3423 28.3547 13.7921C28.3547 18.1953 26.9545 19.966 24.7141 19.966ZM32.4154 20.8047H32.9055L34.119 19.267C35.5426 20.2921 36.9662 20.6882 38.5064 20.6882C42.3104 20.6882 44.6441 17.31 44.6441 13.4194C44.6441 9.69176 42.6138 6.94265 39.2065 6.94265C37.4096 6.94265 36.126 7.64158 34.9592 8.82975V0L30.175 0.116487V0.722224C32.0887 0.792116 32.5321 1.21147 32.5321 2.16667V18.2652L32.4154 20.8047ZM38.273 19.966C36.8495 19.966 35.5426 19.1505 34.9358 17.4498V9.59857C35.7993 8.71326 36.8028 8.15412 38.1564 8.15412C40.4434 8.15412 41.9603 10.414 41.9603 13.5591C41.9603 17.4964 40.7935 19.966 38.273 19.966ZM45.8576 20.8047H46.3711L47.5846 19.267C49.0082 20.2921 50.4317 20.6882 51.972 20.6882C55.776 20.6882 58.1097 17.31 58.1097 13.4194C58.1097 9.69176 56.0793 6.94265 52.6721 6.94265C50.8751 6.94265 49.5916 7.64158 48.4247 8.82975V0L43.6406 0.116487V0.722224C45.5543 0.792116 45.9977 1.21147 45.9977 2.16667V18.2652L45.8576 20.8047ZM51.7153 19.966C50.2917 19.966 48.9848 19.1505 48.3781 17.4498V9.59857C49.2415 8.71326 50.245 8.15412 51.5986 8.15412C53.8856 8.15412 55.4026 10.414 55.4026 13.5591C55.4026 17.4964 54.2357 19.966 51.7153 19.966ZM67.5146 10.2276V1.63082H69.6849C73.4889 1.63082 74.7258 3.07527 74.7258 5.68459C74.7258 8.45699 73.8856 10.2276 69.9883 10.2276H67.5146ZM67.5146 11.043H69.8716C73.0922 11.043 74.0723 11.672 74.3757 14.5376L74.6091 17.0305C74.8658 19.6631 75.4959 20.6416 78.9031 20.6416C79.4866 20.6416 80.3034 20.5484 80.8401 20.4086V19.7796C78.5531 19.7097 77.9697 19.3136 77.5963 17.1237L77.3162 15.1667C76.9195 12.5573 76.2194 10.9498 72.3221 10.647V10.5538C76.2894 9.85484 77.8063 8.01434 77.8063 5.5914C77.8063 2.98208 75.776 0.815412 69.9183 0.815412H61.6336V1.44445C64.154 1.53764 64.7841 2.05018 64.7841 3.12187V18.1022C64.7841 19.1738 64.154 19.6631 61.6336 19.7563V20.4319H70.6184V19.7563C67.9813 19.6631 67.5379 19.2437 67.5379 18.1022V11.043H67.5146ZM86.0677 20.6882C88.9848 20.6882 90.5018 19.034 91.5753 17.2401L91.1319 16.8674C89.9417 18.3351 88.7515 19.3602 87.0245 19.3602C84.0373 19.3602 82.4737 16.8674 82.4737 13.6523V13.1398H91.4352C91.6686 9.94803 89.8716 6.94265 86.0677 6.94265C82.4971 6.94265 79.8133 9.97132 79.8133 13.9552C79.8133 17.7527 82.1704 20.6882 86.0677 20.6882ZM85.881 7.64158C88.1214 7.64158 89.0315 9.59857 88.7748 12.3943L82.5204 12.4875C82.7538 9.10932 84.0373 7.64158 85.881 7.64158ZM91.5052 26H98.8098V25.3943C96.6628 25.371 96.056 25.1613 96.056 24.2993V19.6864C97.1295 20.2688 98.1797 20.6416 99.6499 20.6416C103.384 20.6416 105.648 17.4964 105.648 13.4892C105.648 9.66846 103.757 6.91936 100.397 6.91936C98.5998 6.91936 97.2462 7.78136 95.986 8.99283V7.08244L91.4819 7.19893V7.80466C93.1622 7.82796 93.6056 8.3871 93.6056 9.24911V24.276C93.6056 25.138 93.1622 25.3477 91.4819 25.371L91.5052 26ZM99.2999 19.9194C97.6663 19.9194 96.6161 19.1971 96.056 17.4265V9.80824C96.8961 8.87635 97.923 8.15412 99.3232 8.15412C101.61 8.15412 102.94 10.4606 102.94 13.6523C102.94 17.7061 101.494 19.9194 99.2999 19.9194ZM113.279 20.6882C116.919 20.6882 119.767 17.7993 119.767 13.7455C119.767 9.71505 117.083 6.94265 113.279 6.94265C109.592 6.94265 106.721 9.83154 106.721 13.862C106.721 17.9158 109.405 20.6882 113.279 20.6882ZM113.396 19.966C111.085 19.966 109.475 18.1953 109.475 13.7921C109.475 9.36559 110.828 7.61828 113.116 7.61828C115.426 7.61828 117.036 9.3423 117.036 13.7921C117.036 18.1953 115.636 19.966 113.396 19.966ZM119.813 20.4552H126.791V19.8262C124.901 19.8029 124.364 19.5932 124.364 18.7545V10.5771C125.111 9.36559 125.998 8.50359 127.281 8.4104C127.211 8.62007 127.165 8.85305 127.165 9.03943C127.165 10.0179 127.888 10.5771 128.751 10.5771C129.638 10.5771 130.268 9.87813 130.268 8.94623C130.268 7.96774 129.638 7.01255 128.145 7.01255C126.651 7.01255 125.321 8.13083 124.294 9.73836V7.12903L119.79 7.24552V7.85126C121.47 7.87455 121.914 8.43369 121.914 9.2957V18.7545C121.914 19.5932 121.47 19.8029 119.79 19.8262V20.4552H119.813ZM136.079 20.7348C137.806 20.7348 138.973 19.8495 140 17.9857L139.51 17.6362C138.763 18.8011 137.97 19.4068 137.153 19.4068C135.963 19.4068 135.426 18.7079 135.426 17.0305V8.24731H139.603V7.19893H135.426V2.39964L133.022 3.44803V7.12903L130.385 7.73477V8.29391H132.999V17.0538C132.975 19.5 134.002 20.7348 136.079 20.7348Z" fill="#F1F1F1"/>
</svg>
