<svg width="136" height="36" viewBox="0 0 136 36" fill="none" xmlns="http://www.w3.org/2000/svg">
<g clip-path="url(#clip0_340_2874)">
<path d="M40.0361 1.03152C32.2122 1.08731 25.8125 9.75899 25.8125 17.3227C25.8125 25.2822 30.5038 34.9916 40.0361 34.9601C49.5685 34.9286 54.5161 24.4756 54.5161 17.3227C54.5161 9.42173 47.86 0.975743 40.0361 1.03152ZM40.0361 1.3282C46.5844 1.3282 48.351 8.54035 48.351 17.3227C48.351 28.9108 46.22 34.6278 40.0361 34.6169C33.8522 34.606 31.8405 29.9269 31.8405 17.3227C31.8405 9.42715 33.4878 1.3282 40.0361 1.3282Z" fill="#F7F7EB"/>
<path d="M57.1017 17.5328C57.0666 8.92647 63.9737 1.30293 69.8207 0.924692C71.9327 0.775478 74.6475 1.73997 76.2325 2.42704C77.3833 2.92595 79.7327 2.20379 80.1499 0.878906H80.3774V12.6023H80.1499C80.1499 12.1026 77.9728 1.21944 69.8207 1.21944C63.7993 1.21944 63.2176 11.7781 63.2176 17.5328C63.2176 23.2875 63.393 34.6799 70.4197 34.6799C73.8237 34.6799 76.3433 33.1947 76.9965 30.1902V21.0547H74.1393V20.6655H85.2142V21.0547H82.4826V34.4108H82.2602C82.2602 34.4108 81.8161 32.4837 79.5627 32.4901C76.6826 32.4983 73.9664 34.9937 70.6554 34.9633C61.899 34.883 57.1368 26.1391 57.1017 17.5328Z" fill="#F7F7EB"/>
<path d="M4.3312 2.18343H0.882812V1.79688H12.9627V2.18343H9.93214L18.5635 25.5589C21.2626 17.2722 23.3535 11.1467 26.1673 2.18343H23.1697V1.79688H29.548V2.18343H26.6434L16.1528 34.7967L4.3312 2.18343Z" fill="#F7F7EB"/>
<path d="M86.8994 26.813L86.8448 2.14683H83.5625V1.77734H95.6553V2.14683H92.3749L92.4477 29.192C93.1739 32.2889 94.4651 34.6388 98.8762 34.6738C103.287 34.7087 106.286 32.0715 107.401 28.4674V2.14683H103.646L103.646 1.78823H134.379L134.443 13.629H134.147C133.577 5.98385 130.619 3.09454 125.446 2.25163C123.666 1.96157 121.798 2.17659 119.437 2.15829V17.2702C121.493 17.4286 123.683 17.299 125.159 16.035C126.501 14.8855 126.88 12.2298 126.979 11.1509H127.238V24.3087H126.957C126.876 24.3087 126.768 21.0068 125.159 19.4402C123.539 17.8634 121.476 17.4758 119.437 17.8514V33.9943C122.317 33.9943 124.612 34.2375 126.606 33.6925C132.665 32.0359 134.798 26.9378 134.782 21.8247H135.119V34.3765H111.013V33.9943H113.738V2.14683H107.849V28.4674C107.182 30.9858 104.742 35.1522 98.4903 35.1237C92.6773 35.0973 86.912 32.4839 86.8994 26.813Z" fill="#F7F7EB"/>
</g>
<defs>
<clipPath id="clip0_340_2874">
<rect width="136" height="36" fill="white"/>
</clipPath>
</defs>
</svg>
