<svg width="94" height="48" viewBox="0 0 94 48" fill="none" xmlns="http://www.w3.org/2000/svg">
<g clip-path="url(#clip0_340_2994)">
<path d="M13.4527 9.17564C12.0144 7.82906 10.1055 7.094 8.13169 7.12663C3.3251 7.12663 0 11.5115 0 16.884C0 22.2565 3.3251 26.6332 8.13169 26.6332C10.8272 26.6332 12.2716 25.7111 13.3786 24.3875H13.4527V26.1906H17.9794V-0.00390625H13.4527V9.17564ZM9.16461 22.5147C5.76543 22.5147 4.76543 19.5682 4.72839 16.884C4.76543 14.1957 5.76132 11.2533 9.16461 11.2533C12.5679 11.2533 13.5597 14.1957 13.5967 16.884C13.5597 19.5682 12.5638 22.5147 9.16461 22.5147Z" fill="#F7F7EB"/>
<path d="M34.1077 19.8614C33.6633 20.4884 32.26 22.5128 28.7126 22.5128C27.4652 22.5373 26.2581 22.0723 25.3519 21.2182C24.4457 20.3641 23.9131 19.1894 23.869 17.9477H37.688C37.688 11.2884 34.9554 7.12891 28.7085 7.12891C22.6509 7.12481 19.1406 11.3253 19.1406 16.8822C19.1406 22.4391 22.6509 26.6313 28.7126 26.6313C33.8114 26.6313 36.5069 24.2012 37.9143 22.0662L34.1077 19.8614ZM28.7126 10.813C31.7414 10.813 32.9637 13.4972 32.9637 14.5012H23.869C24.1242 13.4239 24.7461 12.4677 25.6291 11.7954C26.5121 11.123 27.6017 10.7759 28.7126 10.813Z" fill="#F7F7EB"/>
<path d="M36.9144 32.3962V28.9375H22.0954V32.8392H30.9637L21.0625 44.1001V47.5589H36.9144V43.6576H27.1201L36.9144 32.3962Z" fill="#F7F7EB"/>
<path d="M47.0408 43.8798C45.7944 43.9043 44.5883 43.4397 43.6829 42.5864C42.7775 41.733 42.2453 40.5594 42.2013 39.3187H56.0202C56.0202 32.6595 53.2877 28.5 47.0408 28.5C40.979 28.5 37.4688 32.6964 37.4688 38.2492C37.4688 43.802 40.979 47.9983 47.0408 47.9983C52.1395 47.9983 54.835 45.5682 56.2424 43.4332L52.4358 41.2243C51.9914 41.8554 50.5881 43.8798 47.0408 43.8798ZM47.0408 32.1759C50.0696 32.1759 51.2918 34.8642 51.2918 35.8641H42.2013C42.4563 34.7875 43.0776 33.8319 43.9598 33.1596C44.8419 32.4873 45.9305 32.1397 47.0408 32.1759Z" fill="#F7F7EB"/>
<path d="M67.1501 43.8798C65.9041 43.9032 64.6986 43.4383 63.7934 42.5852C62.8882 41.7321 62.3557 40.559 62.3106 39.3187H76.1296C76.1296 32.6595 73.3929 28.5 67.1501 28.5C61.0884 28.5 57.5781 32.6964 57.5781 38.2492C57.5781 43.802 61.1049 47.9983 67.1501 47.9983C72.2489 47.9983 74.9444 45.5682 76.3518 43.4332L72.5452 41.2243C72.1172 41.8554 70.7098 43.8798 67.1501 43.8798ZM67.1501 32.1759C70.1789 32.1759 71.3971 34.8642 71.3971 35.8641H62.323C62.5776 34.7896 63.1971 33.8356 64.0767 33.1636C64.9563 32.4915 66.042 32.1426 67.1501 32.1759Z" fill="#F7F7EB"/>
<path d="M87.5635 28.4937C86.5967 28.4732 85.6375 28.6674 84.7556 29.0622C83.8736 29.4571 83.091 30.0426 82.4647 30.7762H82.3783V28.9362H77.8516V47.5535H82.3783V37.7183C82.3783 34.2964 84.189 32.8253 86.3701 32.8253C88.6993 32.8253 89.473 34.4645 89.473 36.1733V47.5453H93.9997V34.8251C93.9915 30.7394 91.9956 28.4937 87.5635 28.4937Z" fill="#F7F7EB"/>
</g>
<defs>
<clipPath id="clip0_340_2994">
<rect width="94" height="48" fill="white"/>
</clipPath>
</defs>
</svg>
