<svg width="148" height="34" viewBox="0 0 148 34" fill="none" xmlns="http://www.w3.org/2000/svg">
<g clip-path="url(#clip0_340_2829)">
<path fill-rule="evenodd" clip-rule="evenodd" d="M34.4079 20.2428C31.7288 20.5485 30.8511 21.0063 30.8511 22.927C30.8511 24.5201 31.8154 25.2701 33.0207 25.2701C34.3117 25.2701 35.1493 24.7944 35.7669 24.1265V20.0898L34.4079 20.2428ZM29.5831 11.1404C31.0129 10.6287 32.3838 10.3711 33.9445 10.3711C36.5377 10.3711 38.3302 11.0443 39.2009 12.4709C39.8693 13.3334 40.1309 14.4795 40.1151 16.7874V23.2744C40.1151 24.321 40.9328 24.8601 41.7561 25.0292L40.0695 28.1396C39.5268 28.0926 38.9405 27.969 38.3941 27.7504C37.5102 27.3966 36.7338 26.7948 36.4269 25.8733C36.1677 26.3358 35.8336 26.6758 35.5177 26.9918C34.6526 27.858 33.3442 28.2512 32.1272 28.2512C28.7655 28.2512 26.4766 26.6242 26.4766 23.1049C26.4766 19.4927 28.7315 17.7655 33.9115 17.5101C34.068 17.5101 35.5954 17.3739 35.7669 17.39V16.3682C35.7669 14.3364 35.3977 13.8804 33.4253 13.8804C31.8203 13.8804 30.4482 14.4997 28.384 15.4195L27.1407 12.2642C27.9976 11.8217 28.5627 11.5045 29.5831 11.1404Z" fill="#F7F7EB"/>
<path fill-rule="evenodd" clip-rule="evenodd" d="M43.1094 27.8062H47.4734V2.17969H43.1094V27.8062Z" fill="#F7F7EB"/>
<path fill-rule="evenodd" clip-rule="evenodd" d="M50.1719 27.8062H54.5353V2.17969H50.1719V27.8062Z" fill="#F7F7EB"/>
<path fill-rule="evenodd" clip-rule="evenodd" d="M0 5.71875L5.56669 27.8065H10.565L13.7278 12.1183L16.8663 27.8065H21.7216L27.3532 5.71875H22.8301L19.5288 22.0831L16.2511 5.71875H11.4655L8.1942 22.2078L4.94537 5.71875H0Z" fill="#F7F7EB"/>
<path fill-rule="evenodd" clip-rule="evenodd" d="M81.4251 20.2428C78.7453 20.5485 77.8665 21.0063 77.8665 22.927C77.8665 24.5201 78.8316 25.2701 80.0366 25.2701C81.3277 25.2701 82.165 24.7944 82.7838 24.1265V20.0898L81.4251 20.2428ZM76.5991 11.1404C78.0295 10.6287 79.3997 10.3711 80.9605 10.3711C83.5543 10.3711 85.3465 11.0443 86.2169 12.4709C86.8842 13.3334 87.1466 14.4795 87.1311 16.7874V23.2744C87.1311 24.321 87.9497 24.8601 88.7727 25.0292L87.0866 28.1396C86.5208 28.0904 85.9094 27.9587 85.3462 27.7239C84.4896 27.3667 83.743 26.7732 83.444 25.8733C83.1845 26.3358 82.8496 26.6758 82.5345 26.9918C81.6685 27.858 80.3602 28.2512 79.1431 28.2512C75.7823 28.2512 73.4922 26.6242 73.4922 23.1049C73.4922 19.4927 75.7478 17.7655 80.9274 17.5101C81.084 17.5101 82.6114 17.3739 82.7838 17.39V16.3682C82.7838 14.3364 82.4148 13.8804 80.4424 13.8804C78.8363 13.8804 77.4642 14.4997 75.3997 15.4195L74.1571 12.2642C75.0147 11.8217 75.5796 11.5045 76.5991 11.1404Z" fill="#F7F7EB"/>
<path fill-rule="evenodd" clip-rule="evenodd" d="M117.402 17.6702V17.3715C117.402 15.0279 116.775 13.4105 114.568 13.4105C112.809 13.4105 111.664 14.3517 111.579 17.6383L111.581 17.6702H117.402ZM121.767 26.4214C120.187 27.4725 118.046 28.2686 115.548 28.2686C110.283 28.2686 107.07 24.9858 107.07 19.3524C107.07 16.3961 107.772 14.2934 109.172 12.7224C110.589 11.1293 112.491 10.3594 114.862 10.3594C117.106 10.3594 118.936 11.0496 120.078 12.3023C121.473 13.8112 122.103 16.025 122.103 19.1759V20.6203H111.726C111.726 23.6877 113.648 24.758 115.875 24.758C117.605 24.758 119.228 24.268 120.761 23.4396L121.767 26.4214Z" fill="#F7F7EB"/>
<path fill-rule="evenodd" clip-rule="evenodd" d="M132.344 10.3711C133.152 10.3711 133.653 10.4713 134.221 10.6982L133.314 14.5783C132.82 14.4004 132.255 14.284 131.473 14.284C130.251 14.284 129.196 14.7099 128.239 15.4937V27.8036H123.808V15.2632C123.808 14.1691 123.681 11.493 123.508 11.0331L126.952 10.5255C127.143 10.8581 127.967 12.8914 127.999 13.351C128.668 12.2944 129.576 11.2873 130.535 10.7917C131.055 10.5146 131.885 10.3711 132.344 10.3711Z" fill="#F7F7EB"/>
<path fill-rule="evenodd" clip-rule="evenodd" d="M64.5703 25.121C65.8058 25.121 66.6756 24.9607 67.2186 23.8923C67.689 22.9668 67.9128 21.3277 67.9128 18.9131C67.9128 17.0806 67.6875 15.8115 67.2393 15.0278C66.7756 14.1965 65.9927 13.8354 64.8927 13.8354C63.6066 13.8354 62.5895 14.2961 61.6158 15.0667V24.0832C62.2916 24.5765 63.3284 25.121 64.5703 25.121ZM60.5407 10.5426C60.8444 10.9875 61.3739 12.512 61.3896 12.7654C62.4084 11.0854 64.4123 10.3711 65.9831 10.3711C67.3429 10.3711 68.5933 10.7522 69.5669 11.4272C71.4427 12.7227 72.6012 15.1402 72.6012 18.9957C72.6012 22.5502 71.8216 24.9603 70.0452 26.5847C68.8767 27.6443 67.318 28.2357 65.5053 28.2357C63.7854 28.2357 62.4578 27.6622 61.5678 27.0027C61.5731 27.3025 61.5995 28.3433 61.5995 28.5813V33.7604H57.3167V15.2635C57.3167 14.1694 57.2602 11.4933 57.0859 11.0334L60.5407 10.5426Z" fill="#F7F7EB"/>
<path fill-rule="evenodd" clip-rule="evenodd" d="M97.5311 25.121C98.7678 25.121 99.637 24.9607 100.18 23.8923C100.651 22.9668 100.873 21.3277 100.873 18.9131C100.873 17.0806 100.649 15.8115 100.201 15.0278C99.7369 14.1965 98.9536 13.8354 97.8535 13.8354C96.5676 13.8354 95.5505 14.2961 94.5767 15.0667V24.0832C95.2526 24.5765 96.2896 25.121 97.5311 25.121ZM93.5023 10.5426C93.805 10.9875 94.3363 12.512 94.3505 12.7654C95.3704 11.0854 97.3736 10.3711 98.9451 10.3711C100.306 10.3711 101.553 10.7522 102.528 11.4272C104.405 12.7227 105.563 15.1402 105.563 18.9957C105.563 22.5502 104.782 24.9603 103.007 26.5847C101.838 27.6443 100.28 28.2357 98.4671 28.2357C96.7468 28.2357 95.4204 27.6622 94.5286 27.0027C94.5334 27.3025 94.5616 28.3433 94.5616 28.5813V33.7604H90.2783V15.2635C90.2783 14.1694 90.2218 11.4933 90.0469 11.0334L93.5023 10.5426Z" fill="#F7F7EB"/>
<path fill-rule="evenodd" clip-rule="evenodd" d="M139.255 0V4.37013L135.055 3.00248L134.094 5.96662L138.275 7.32813L135.704 10.8736L138.221 12.7051L140.767 9.19379L143.313 12.7051L145.831 10.8736L143.259 7.32813L147.44 5.96662L146.479 3.00248L142.279 4.37013V0L139.255 0Z" fill="#F7F7EB"/>
</g>
<defs>
<clipPath id="clip0_340_2829">
<rect width="148" height="34" fill="white"/>
</clipPath>
</defs>
</svg>
